{"glyphs":{"0":{"ha":956,"x_min":70,"x_max":886,"o":"m 478 -22 q 259 40 351 -22 q 119 220 168 103 q 70 504 70 338 q 119 786 70 669 q 260 963 168 902 q 478 1024 351 1024 q 696 963 605 1024 q 837 785 788 902 q 886 504 886 669 q 837 220 886 338 q 696 40 788 102 q 478 -22 605 -22 m 478 155 q 617 242 565 155 q 668 504 668 329 q 644 695 668 619 q 578 810 621 772 q 478 849 536 849 q 340 763 392 849 q 288 504 288 676 q 311 310 288 388 q 377 194 334 232 q 478 155 420 155 z "},"1":{"ha":680,"x_min":71,"x_max":521,"o":"m 521 1010 l 521 0 l 308 0 l 308 807 l 302 807 l 71 662 l 71 852 l 321 1010 l 521 1010 z "},"2":{"ha":875,"x_min":72,"x_max":802,"o":"m 82 0 l 82 154 l 441 487 q 519 567 487 531 q 566 636 550 602 q 582 711 582 671 q 562 787 582 755 q 507 837 542 820 q 428 855 472 855 q 347 836 381 855 q 293 782 312 817 q 275 699 275 747 l 72 699 q 117 871 72 798 q 243 984 162 944 q 429 1024 324 1024 q 618 986 538 1024 q 744 880 699 947 q 789 725 789 812 q 766 612 789 668 q 687 489 744 556 q 525 326 629 421 l 378 182 l 378 175 l 802 175 l 802 0 l 82 0 z "},"3":{"ha":916,"x_min":72,"x_max":844,"o":"m 455 -14 q 259 24 345 -14 q 123 130 173 63 q 72 286 73 197 l 287 286 q 311 221 289 249 q 371 178 334 193 q 456 162 409 162 q 542 180 505 162 q 601 227 580 197 q 622 298 622 258 q 600 370 622 338 q 535 419 577 401 q 436 436 494 436 l 342 436 l 342 593 l 436 593 q 522 610 485 593 q 580 657 559 627 q 601 727 601 687 q 583 793 601 764 q 532 838 565 822 q 457 855 500 855 q 378 839 414 855 q 320 795 342 824 q 297 728 298 766 l 92 728 q 142 882 94 815 q 273 986 190 948 q 458 1024 355 1024 q 641 986 563 1024 q 763 884 720 948 q 806 739 807 819 q 754 598 807 654 q 616 526 701 541 l 616 518 q 786 441 727 504 q 844 284 844 378 q 794 130 844 197 q 656 25 744 63 q 455 -14 569 -14 z "},"4":{"ha":942,"x_min":67,"x_max":881,"o":"m 67 178 l 67 346 l 488 1010 l 633 1010 l 633 777 l 547 777 l 282 357 l 282 349 l 881 349 l 881 178 l 67 178 m 551 0 l 551 229 l 555 303 l 555 1010 l 756 1010 l 756 0 l 551 0 z "},"5":{"ha":895,"x_min":85,"x_max":829,"o":"m 451 -14 q 265 25 346 -14 q 135 131 183 63 q 85 286 87 198 l 292 286 q 342 190 296 227 q 451 154 388 154 q 540 176 501 154 q 600 239 579 199 q 622 331 622 279 q 600 425 622 385 q 538 488 578 466 q 448 511 499 511 q 362 493 403 511 q 297 443 320 475 l 107 477 l 155 1010 l 772 1010 l 772 836 l 331 836 l 305 582 l 311 582 q 391 645 337 620 q 511 669 445 669 q 674 626 603 669 q 787 509 746 583 q 828 337 829 434 q 781 156 829 235 q 648 31 733 76 q 451 -14 563 -14 z "},"6":{"ha":917,"x_min":66,"x_max":847,"o":"m 470 -14 q 319 12 392 -13 q 190 96 247 38 q 99 249 133 153 q 66 482 66 344 q 95 710 67 610 q 178 880 124 810 q 308 987 232 950 q 477 1024 383 1024 q 655 985 578 1024 q 780 878 733 945 q 837 728 827 811 l 626 728 q 575 811 614 781 q 477 841 535 841 q 327 755 378 841 q 275 522 276 669 l 282 522 q 344 599 305 567 q 432 647 382 630 q 537 664 481 664 q 696 622 626 664 q 807 507 766 580 q 847 338 847 433 q 800 156 847 236 q 667 31 752 76 q 470 -14 582 -14 m 469 154 q 557 178 518 154 q 618 242 596 201 q 640 332 640 282 q 618 423 640 383 q 558 486 596 463 q 470 510 519 510 q 402 496 433 510 q 347 458 370 482 q 310 401 324 433 q 297 332 297 368 q 319 243 297 283 q 381 178 342 202 q 469 154 419 154 z "},"7":{"ha":826,"x_min":53,"x_max":762,"o":"m 122 0 l 541 829 l 541 836 l 53 836 l 53 1010 l 762 1010 l 762 833 l 342 0 l 122 0 z "},"8":{"ha":918,"x_min":67,"x_max":851,"o":"m 459 -14 q 256 23 345 -14 q 117 125 168 61 q 67 272 67 190 q 96 388 67 335 q 175 476 125 441 q 286 521 224 511 l 286 528 q 155 607 205 545 q 105 752 105 669 q 150 892 105 831 q 276 989 196 953 q 459 1024 357 1024 q 641 988 561 1024 q 767 891 721 953 q 813 752 813 830 q 762 607 813 669 q 632 528 711 545 l 632 521 q 742 476 692 511 q 821 388 792 441 q 851 272 850 335 q 800 125 850 190 q 661 23 750 61 q 459 -14 573 -14 m 459 143 q 547 162 509 143 q 607 213 585 180 q 628 289 628 246 q 606 366 628 332 q 546 419 584 400 q 459 439 508 439 q 371 419 410 439 q 311 366 333 400 q 289 289 289 332 q 310 213 289 246 q 370 162 331 180 q 459 143 408 143 m 459 594 q 534 612 501 594 q 586 659 567 629 q 605 730 605 690 q 586 799 605 769 q 535 846 567 829 q 459 863 502 863 q 383 846 416 863 q 331 799 350 829 q 313 730 313 769 q 331 659 313 690 q 383 612 350 629 q 459 594 416 594 z "},"9":{"ha":917,"x_min":70,"x_max":851,"o":"m 447 1024 q 598 998 525 1024 q 727 914 670 972 q 817 763 784 857 q 851 531 850 668 q 822 302 851 402 q 739 130 793 201 q 610 23 686 60 q 440 -14 534 -14 q 261 25 339 -14 q 137 132 184 65 q 80 285 90 200 l 291 285 q 342 200 303 230 q 440 169 382 169 q 590 255 539 169 q 642 491 641 341 l 635 491 q 574 415 612 447 q 486 366 535 383 q 380 349 436 349 q 221 391 291 349 q 110 506 151 433 q 70 674 70 580 q 117 855 70 775 q 249 979 164 934 q 447 1024 334 1024 m 449 856 q 360 833 399 856 q 299 769 322 809 q 277 680 277 729 q 299 590 277 630 q 359 527 321 550 q 447 504 398 504 q 515 517 484 504 q 570 556 547 531 q 607 612 594 580 q 620 680 620 644 q 598 768 620 728 q 537 832 576 808 q 449 856 498 856 z "},"A":{"ha":1039,"x_min":33,"x_max":1005,"o":"m 262 0 l 33 0 l 382 1010 l 657 1010 l 1005 0 l 776 0 l 523 779 l 515 779 l 262 0 m 248 397 l 788 397 l 788 230 l 248 230 l 248 397 z "},"Ä":{"ha":1039,"x_min":33,"x_max":1005,"o":"m 262 0 l 33 0 l 382 1010 l 657 1010 l 1005 0 l 776 0 l 523 779 l 515 779 l 262 0 m 248 397 l 788 397 l 788 230 l 248 230 l 248 397 m 369 1114 q 296 1144 327 1114 q 265 1214 265 1173 q 296 1285 265 1256 q 369 1314 327 1314 q 442 1285 412 1314 q 472 1214 472 1256 q 442 1144 472 1173 q 369 1114 412 1114 m 671 1114 q 598 1144 628 1114 q 567 1214 567 1173 q 598 1285 567 1256 q 671 1314 628 1314 q 744 1285 714 1314 q 773 1214 773 1256 q 744 1144 773 1173 q 671 1114 714 1114 z "},"Ã":{"ha":1039,"x_min":33,"x_max":1005,"o":"m 262 0 l 33 0 l 382 1010 l 657 1010 l 1005 0 l 776 0 l 523 779 l 515 779 l 262 0 m 248 397 l 788 397 l 788 230 l 248 230 l 248 397 m 378 1110 l 261 1111 q 308 1256 261 1205 q 422 1307 354 1306 q 481 1295 456 1307 q 526 1270 506 1284 q 564 1244 546 1255 q 604 1233 582 1233 q 647 1254 632 1233 q 662 1309 662 1275 l 777 1306 q 730 1162 776 1212 q 617 1111 684 1111 q 555 1122 580 1110 q 511 1147 530 1133 q 475 1173 493 1162 q 435 1185 457 1185 q 394 1164 409 1185 q 378 1110 378 1144 z "},"À":{"ha":1039,"x_min":33,"x_max":1005,"o":"m 262 0 l 33 0 l 382 1010 l 657 1010 l 1005 0 l 776 0 l 523 779 l 515 779 l 262 0 m 248 397 l 788 397 l 788 230 l 248 230 l 248 397 m 446 1108 l 296 1332 l 490 1332 l 595 1108 l 446 1108 z "},"Á":{"ha":1039,"x_min":33,"x_max":1005,"o":"m 262 0 l 33 0 l 382 1010 l 657 1010 l 1005 0 l 776 0 l 523 779 l 515 779 l 262 0 m 248 397 l 788 397 l 788 230 l 248 230 l 248 397 m 444 1108 l 548 1332 l 743 1332 l 592 1108 l 444 1108 z "},"Â":{"ha":1039,"x_min":33,"x_max":1005,"o":"m 262 0 l 33 0 l 382 1010 l 657 1010 l 1005 0 l 776 0 l 523 779 l 515 779 l 262 0 m 248 397 l 788 397 l 788 230 l 248 230 l 248 397 m 618 1101 l 519 1221 l 420 1101 l 241 1101 l 241 1108 l 441 1325 l 597 1325 l 798 1108 l 798 1101 l 618 1101 z "},"Å":{"ha":1039,"x_min":33,"x_max":1005,"o":"m 262 0 l 33 0 l 382 1010 l 657 1010 l 1005 0 l 776 0 l 523 779 l 515 779 l 262 0 m 248 397 l 788 397 l 788 230 l 248 230 l 248 397 m 519 1068 q 412 1112 456 1068 q 367 1217 367 1156 q 388 1291 367 1258 q 443 1345 408 1325 q 519 1365 477 1365 q 596 1345 561 1365 q 651 1291 630 1325 q 671 1217 671 1258 q 651 1142 671 1176 q 596 1088 630 1108 q 519 1068 561 1068 m 519 1153 q 566 1171 547 1153 q 585 1217 585 1190 q 566 1263 585 1244 q 519 1281 547 1281 q 472 1262 492 1281 q 453 1217 453 1243 q 472 1171 453 1190 q 519 1153 491 1152 z "},"Ǻ":{"ha":1039,"x_min":33,"x_max":1005,"o":"m 262 0 l 33 0 l 382 1010 l 657 1010 l 1005 0 l 776 0 l 523 779 l 515 779 l 262 0 m 248 397 l 788 397 l 788 230 l 248 230 l 248 397 m 452 1404 l 550 1546 l 726 1546 l 586 1404 l 452 1404 m 519 1075 q 412 1116 456 1075 q 367 1216 367 1158 q 387 1287 367 1255 q 443 1338 408 1319 q 519 1357 477 1357 q 626 1316 582 1357 q 671 1216 671 1274 q 651 1145 671 1177 q 596 1094 630 1113 q 519 1075 561 1075 m 519 1155 q 566 1173 546 1155 q 585 1216 585 1191 q 566 1259 585 1241 q 519 1277 547 1277 q 472 1259 491 1277 q 453 1216 453 1241 q 472 1173 453 1191 q 519 1155 491 1155 z "},"":{"ha":1039,"x_min":33,"x_max":1022,"o":"m 262 0 l 33 0 l 382 1010 l 657 1010 l 1005 0 l 776 0 l 523 779 l 515 779 l 262 0 m 248 397 l 788 397 l 788 230 l 248 230 l 248 397 m 519 1068 q 412 1112 456 1068 q 367 1217 367 1156 q 388 1291 367 1258 q 443 1345 408 1325 q 519 1365 477 1365 q 596 1345 561 1365 q 651 1291 630 1325 q 671 1217 671 1258 q 651 1142 671 1176 q 596 1088 630 1108 q 519 1068 561 1068 m 519 1153 q 566 1171 547 1153 q 585 1217 585 1190 q 566 1263 585 1244 q 519 1281 547 1281 q 472 1262 492 1281 q 453 1217 453 1243 q 472 1171 453 1190 q 519 1153 491 1152 m 909 -283 q 800 -249 844 -283 q 744 -153 756 -216 q 745 -72 737 -112 q 780 3 754 -31 q 849 57 806 37 l 1006 0 q 930 -47 959 -22 q 901 -108 900 -72 q 912 -144 900 -131 q 948 -157 925 -157 q 978 -153 965 -157 q 1000 -145 990 -148 l 1022 -254 q 975 -273 1004 -264 q 909 -283 947 -283 z "},"Ā":{"ha":1039,"x_min":33,"x_max":1005,"o":"m 262 0 l 33 0 l 382 1010 l 657 1010 l 1005 0 l 776 0 l 523 779 l 515 779 l 262 0 m 248 397 l 788 397 l 788 230 l 248 230 l 248 397 m 760 1263 l 760 1149 l 279 1149 l 279 1263 l 760 1263 z "},"Ă":{"ha":1039,"x_min":33,"x_max":1005,"o":"m 262 0 l 33 0 l 382 1010 l 657 1010 l 1005 0 l 776 0 l 523 779 l 515 779 l 262 0 m 248 397 l 788 397 l 788 230 l 248 230 l 248 397 m 617 1274 l 763 1274 q 697 1130 763 1185 q 519 1075 631 1075 q 341 1130 407 1075 q 276 1274 276 1185 l 421 1274 q 443 1213 421 1240 q 519 1186 466 1186 q 594 1213 572 1186 q 617 1274 617 1239 z "},"Ą":{"ha":1039,"x_min":33,"x_max":1022,"o":"m 262 0 l 33 0 l 382 1010 l 657 1010 l 1005 0 l 776 0 l 523 779 l 515 779 l 262 0 m 248 397 l 788 397 l 788 230 l 248 230 l 248 397 m 909 -283 q 800 -249 844 -283 q 744 -153 756 -216 q 745 -72 737 -112 q 780 3 754 -31 q 849 57 806 37 l 1006 0 q 930 -47 959 -22 q 901 -108 900 -72 q 912 -144 900 -131 q 948 -157 925 -157 q 978 -153 965 -157 q 1000 -145 990 -148 l 1022 -254 q 975 -273 1004 -264 q 909 -283 947 -283 z "},"Ǎ":{"ha":1039,"x_min":33,"x_max":1005,"o":"m 262 0 l 33 0 l 382 1010 l 657 1010 l 1005 0 l 776 0 l 523 779 l 515 779 l 262 0 m 248 397 l 788 397 l 788 230 l 248 230 l 248 397 m 420 1325 l 519 1204 l 618 1325 l 798 1325 l 798 1318 l 597 1101 l 441 1101 l 241 1318 l 241 1325 l 420 1325 z "},"Ǟ":{"ha":1039,"x_min":33,"x_max":1005,"o":"m 262 0 l 33 0 l 382 1010 l 657 1010 l 1005 0 l 776 0 l 523 779 l 515 779 l 262 0 m 248 397 l 788 397 l 788 230 l 248 230 l 248 397 m 369 1114 q 296 1144 327 1114 q 265 1214 265 1173 q 296 1285 265 1256 q 369 1314 327 1314 q 442 1285 412 1314 q 472 1214 472 1256 q 442 1144 472 1173 q 369 1114 412 1114 m 671 1114 q 598 1144 628 1114 q 567 1214 567 1173 q 598 1285 567 1256 q 671 1314 628 1314 q 744 1285 714 1314 q 773 1214 773 1256 q 744 1144 773 1173 q 671 1114 714 1114 m 760 1515 l 760 1401 l 279 1401 l 279 1515 l 760 1515 z "},"Ǡ":{"ha":1039,"x_min":33,"x_max":1005,"o":"m 262 0 l 33 0 l 382 1010 l 657 1010 l 1005 0 l 776 0 l 523 779 l 515 779 l 262 0 m 248 397 l 788 397 l 788 230 l 248 230 l 248 397 m 520 1114 q 445 1143 476 1114 q 414 1214 414 1173 q 445 1285 414 1256 q 520 1314 476 1314 q 594 1285 563 1314 q 625 1214 625 1256 q 594 1143 625 1173 q 520 1114 563 1114 m 760 1515 l 760 1401 l 279 1401 l 279 1515 l 760 1515 z "},"Ȁ":{"ha":1039,"x_min":33,"x_max":1005,"o":"m 262 0 l 33 0 l 382 1010 l 657 1010 l 1005 0 l 776 0 l 523 779 l 515 779 l 262 0 m 248 397 l 788 397 l 788 230 l 248 230 l 248 397 m 330 1108 l 176 1332 l 373 1332 l 478 1108 l 330 1108 m 574 1108 l 468 1332 l 659 1332 l 719 1108 l 574 1108 z "},"Ȃ":{"ha":1039,"x_min":33,"x_max":1005,"o":"m 262 0 l 33 0 l 382 1010 l 657 1010 l 1005 0 l 776 0 l 523 779 l 515 779 l 262 0 m 248 397 l 788 397 l 788 230 l 248 230 l 248 397 m 274 1132 q 339 1279 273 1222 q 518 1337 405 1337 q 696 1279 630 1337 q 763 1132 763 1222 l 616 1132 q 593 1193 616 1166 q 518 1220 571 1220 q 442 1193 465 1220 q 420 1132 420 1166 l 274 1132 z "},"Ȧ":{"ha":1039,"x_min":33,"x_max":1005,"o":"m 262 0 l 33 0 l 382 1010 l 657 1010 l 1005 0 l 776 0 l 523 779 l 515 779 l 262 0 m 248 397 l 788 397 l 788 230 l 248 230 l 248 397 m 519 1108 q 439 1139 472 1108 q 405 1214 405 1170 q 439 1289 405 1258 q 519 1320 472 1320 q 600 1289 566 1320 q 633 1214 633 1258 q 600 1139 633 1170 q 519 1108 566 1108 z "},"Ḁ":{"ha":1039,"x_min":33,"x_max":1005,"o":"m 262 0 l 33 0 l 382 1010 l 657 1010 l 1005 0 l 776 0 l 523 779 l 515 779 l 262 0 m 248 397 l 788 397 l 788 230 l 248 230 l 248 397 m 387 -154 q 425 -72 387 -106 q 519 -38 463 -38 q 611 -72 573 -38 q 649 -154 649 -106 q 611 -238 649 -206 q 519 -271 573 -271 q 425 -238 463 -271 q 387 -154 387 -205 m 466 -154 q 481 -191 466 -177 q 519 -205 496 -205 q 554 -191 540 -205 q 569 -154 569 -177 q 554 -119 569 -133 q 519 -106 540 -106 q 481 -119 496 -106 q 466 -154 466 -133 z "},"Ạ":{"ha":1039,"x_min":33,"x_max":1005,"o":"m 262 0 l 33 0 l 382 1010 l 657 1010 l 1005 0 l 776 0 l 523 779 l 515 779 l 262 0 m 248 397 l 788 397 l 788 230 l 248 230 l 248 397 m 519 -284 q 439 -253 472 -284 q 405 -178 405 -221 q 439 -103 405 -134 q 519 -72 472 -72 q 600 -103 566 -72 q 633 -178 633 -134 q 600 -253 633 -221 q 519 -284 566 -284 z "},"Ả":{"ha":1039,"x_min":33,"x_max":1005,"o":"m 262 0 l 33 0 l 382 1010 l 657 1010 l 1005 0 l 776 0 l 523 779 l 515 779 l 262 0 m 248 397 l 788 397 l 788 230 l 248 230 l 248 397 m 597 1119 l 441 1119 l 430 1207 q 505 1221 482 1210 q 526 1252 527 1233 q 498 1288 527 1279 q 428 1298 470 1298 l 433 1393 q 634 1357 565 1393 q 702 1259 702 1322 q 670 1191 702 1214 q 597 1162 637 1168 l 597 1119 z "},"Ấ":{"ha":1039,"x_min":33,"x_max":1005,"o":"m 262 0 l 33 0 l 382 1010 l 657 1010 l 1005 0 l 776 0 l 523 779 l 515 779 l 262 0 m 248 397 l 788 397 l 788 230 l 248 230 l 248 397 m 262 1093 l 461 1246 l 575 1246 l 774 1093 l 623 1093 l 519 1176 l 413 1093 l 262 1093 m 723 1180 l 838 1365 l 1001 1365 l 841 1180 l 723 1180 z "},"Ầ":{"ha":1039,"x_min":33,"x_max":1005,"o":"m 262 0 l 33 0 l 382 1010 l 657 1010 l 1005 0 l 776 0 l 523 779 l 515 779 l 262 0 m 248 397 l 788 397 l 788 230 l 248 230 l 248 397 m 575 1243 l 775 1090 l 623 1090 l 519 1173 l 414 1090 l 263 1090 l 462 1243 l 575 1243 m 199 1361 l 315 1177 l 197 1177 l 37 1361 l 199 1361 z "},"Ẩ":{"ha":1039,"x_min":33,"x_max":1005,"o":"m 262 0 l 33 0 l 382 1010 l 657 1010 l 1005 0 l 776 0 l 523 779 l 515 779 l 262 0 m 248 397 l 788 397 l 788 230 l 248 230 l 248 397 m 578 1241 l 772 1088 l 628 1088 l 518 1174 l 407 1088 l 263 1088 l 457 1241 l 578 1241 m 817 1174 l 708 1174 l 699 1248 q 761 1259 741 1250 q 780 1285 780 1268 q 756 1315 780 1308 q 695 1323 731 1323 l 700 1403 q 853 1373 800 1403 q 906 1291 906 1344 q 878 1234 906 1254 q 817 1209 850 1215 l 817 1174 z "},"Ẫ":{"ha":1039,"x_min":33,"x_max":1005,"o":"m 262 0 l 33 0 l 382 1010 l 657 1010 l 1005 0 l 776 0 l 523 779 l 515 779 l 262 0 m 248 397 l 788 397 l 788 230 l 248 230 l 248 397 m 576 1237 l 774 1086 l 629 1086 l 518 1168 l 410 1086 l 263 1086 l 463 1237 l 576 1237 m 627 1405 l 700 1380 q 674 1306 699 1340 q 606 1273 649 1273 q 563 1279 583 1273 q 527 1295 544 1286 q 493 1310 510 1304 q 458 1316 477 1316 q 432 1302 441 1316 q 422 1270 422 1288 l 351 1289 q 376 1361 351 1328 q 444 1394 401 1394 q 482 1388 463 1394 q 519 1373 500 1381 q 556 1359 538 1365 q 592 1352 574 1352 q 617 1369 607 1352 q 627 1405 626 1386 z "},"Ậ":{"ha":1039,"x_min":33,"x_max":1005,"o":"m 262 0 l 33 0 l 382 1010 l 657 1010 l 1005 0 l 776 0 l 523 779 l 515 779 l 262 0 m 248 397 l 788 397 l 788 230 l 248 230 l 248 397 m 618 1101 l 519 1221 l 420 1101 l 241 1101 l 241 1108 l 441 1325 l 597 1325 l 798 1108 l 798 1101 l 618 1101 m 519 -284 q 439 -253 472 -284 q 405 -178 405 -221 q 439 -103 405 -134 q 519 -72 472 -72 q 600 -103 566 -72 q 633 -178 633 -134 q 600 -253 633 -221 q 519 -284 566 -284 z "},"Ắ":{"ha":1039,"x_min":33,"x_max":1005,"o":"m 262 0 l 33 0 l 382 1010 l 657 1010 l 1005 0 l 776 0 l 523 779 l 515 779 l 262 0 m 248 397 l 788 397 l 788 230 l 248 230 l 248 397 m 626 1250 l 763 1250 q 696 1133 763 1178 q 516 1088 629 1088 q 338 1133 404 1088 q 273 1250 272 1178 l 407 1250 q 432 1197 406 1221 q 516 1173 457 1173 q 601 1197 576 1173 q 626 1250 626 1221 m 459 1249 l 546 1376 l 691 1376 l 569 1249 l 459 1249 z "},"Ằ":{"ha":1039,"x_min":33,"x_max":1005,"o":"m 262 0 l 33 0 l 382 1010 l 657 1010 l 1005 0 l 776 0 l 523 779 l 515 779 l 262 0 m 248 397 l 788 397 l 788 230 l 248 230 l 248 397 m 626 1251 l 763 1251 q 696 1136 763 1181 q 516 1090 630 1090 q 338 1136 404 1090 q 273 1251 272 1181 l 407 1251 q 432 1198 406 1222 q 516 1174 457 1174 q 600 1198 575 1174 q 626 1251 626 1222 m 472 1249 l 349 1376 l 494 1376 l 580 1249 l 472 1249 z "},"Ẳ":{"ha":1039,"x_min":33,"x_max":1005,"o":"m 262 0 l 33 0 l 382 1010 l 657 1010 l 1005 0 l 776 0 l 523 779 l 515 779 l 262 0 m 248 397 l 788 397 l 788 230 l 248 230 l 248 397 m 624 1243 l 761 1243 q 694 1127 761 1171 q 514 1083 628 1083 q 335 1127 400 1083 q 268 1243 269 1171 l 403 1243 q 430 1192 404 1213 q 514 1171 455 1171 q 599 1192 574 1171 q 624 1243 625 1214 m 575 1265 l 447 1265 l 435 1335 q 508 1344 485 1337 q 530 1367 530 1352 q 502 1397 530 1390 q 432 1404 474 1404 l 438 1477 q 618 1450 557 1477 q 679 1374 679 1422 q 647 1321 679 1338 q 575 1299 615 1304 l 575 1265 z "},"Ẵ":{"ha":1039,"x_min":33,"x_max":1005,"o":"m 262 0 l 33 0 l 382 1010 l 657 1010 l 1005 0 l 776 0 l 523 779 l 515 779 l 262 0 m 248 397 l 788 397 l 788 230 l 248 230 l 248 397 m 623 1245 l 759 1245 q 692 1128 759 1173 q 514 1083 626 1083 q 337 1128 403 1083 q 271 1245 271 1173 l 405 1245 q 430 1195 405 1216 q 514 1173 454 1173 q 598 1194 572 1173 q 623 1245 623 1215 m 632 1456 l 719 1430 q 686 1345 719 1382 q 604 1308 654 1308 q 542 1319 567 1308 q 493 1342 516 1330 q 440 1353 470 1353 q 407 1336 421 1353 q 393 1295 393 1320 l 308 1318 q 340 1404 308 1367 q 423 1442 372 1442 q 465 1435 445 1442 q 504 1419 485 1428 q 544 1404 524 1411 q 586 1397 564 1397 q 618 1414 604 1397 q 632 1456 632 1431 z "},"Ặ":{"ha":1039,"x_min":33,"x_max":1005,"o":"m 262 0 l 33 0 l 382 1010 l 657 1010 l 1005 0 l 776 0 l 523 779 l 515 779 l 262 0 m 248 397 l 788 397 l 788 230 l 248 230 l 248 397 m 617 1274 l 763 1274 q 697 1130 763 1185 q 519 1075 631 1075 q 341 1130 407 1075 q 276 1274 276 1185 l 421 1274 q 443 1213 421 1240 q 519 1186 466 1186 q 594 1213 572 1186 q 617 1274 617 1239 m 519 -284 q 439 -253 472 -284 q 405 -178 405 -221 q 439 -103 405 -134 q 519 -72 472 -72 q 600 -103 566 -72 q 633 -178 633 -134 q 600 -253 633 -221 q 519 -284 566 -284 z "},"Α":{"ha":1039,"x_min":33,"x_max":1005,"o":"m 262 0 l 33 0 l 382 1010 l 657 1010 l 1005 0 l 776 0 l 523 779 l 515 779 l 262 0 m 248 397 l 788 397 l 788 230 l 248 230 l 248 397 z "},"Ά":{"ha":1039,"x_min":33,"x_max":1005,"o":"m 262 0 l 33 0 l 382 1010 l 657 1010 l 1005 0 l 776 0 l 523 779 l 515 779 l 262 0 m 248 397 l 788 397 l 788 230 l 248 230 l 248 397 m 89 848 l 142 1083 l 329 1083 l 213 848 l 89 848 z "},"Ἀ":{"ha":1039,"x_min":33,"x_max":1005,"o":"m 262 0 l 33 0 l 382 1010 l 657 1010 l 1005 0 l 776 0 l 523 779 l 515 779 l 262 0 m 248 397 l 788 397 l 788 230 l 248 230 l 248 397 m 272 1010 l 272 945 q 257 868 272 903 q 216 807 242 833 q 157 765 190 781 l 99 827 q 132 860 120 841 q 148 900 144 878 q 153 949 153 923 l 153 1010 l 272 1010 z "},"Ἁ":{"ha":1039,"x_min":33,"x_max":1005,"o":"m 262 0 l 33 0 l 382 1010 l 657 1010 l 1005 0 l 776 0 l 523 779 l 515 779 l 262 0 m 248 397 l 788 397 l 788 230 l 248 230 l 248 397 m 122 945 l 122 1010 l 242 1010 l 242 949 q 247 903 243 926 q 263 861 252 881 q 295 827 274 842 l 237 765 q 156 836 188 789 q 122 945 123 882 z "},"Ἂ":{"ha":1039,"x_min":-145,"x_max":1005,"o":"m 262 0 l 33 0 l 382 1010 l 657 1010 l 1005 0 l 776 0 l 523 779 l 515 779 l 262 0 m 248 397 l 788 397 l 788 230 l 248 230 l 248 397 m 297 793 l 297 783 l 231 783 l 71 998 l 71 1012 l 218 1012 l 297 793 m 39 1012 l 39 956 q 24 882 39 917 q -20 818 9 847 q -90 767 -49 789 l -144 808 q -102 876 -116 839 q -88 960 -87 912 l -88 1012 l 39 1012 z "},"Ἃ":{"ha":1039,"x_min":-107,"x_max":1005,"o":"m 262 0 l 33 0 l 382 1010 l 657 1010 l 1005 0 l 776 0 l 523 779 l 515 779 l 262 0 m 248 397 l 788 397 l 788 230 l 248 230 l 248 397 m 296 796 l 296 780 l 230 780 l 70 996 l 70 1010 l 218 1010 l 296 796 m -106 945 l -106 1010 l 15 1010 l 15 949 q 25 882 15 914 q 69 827 36 849 l 11 765 q -73 836 -40 789 q -106 945 -107 882 z "},"Ἄ":{"ha":1039,"x_min":-115,"x_max":1005,"o":"m 262 0 l 33 0 l 382 1010 l 657 1010 l 1005 0 l 776 0 l 523 779 l 515 779 l 262 0 m 248 397 l 788 397 l 788 230 l 248 230 l 248 397 m 80 780 l 80 796 l 160 1010 l 307 1010 l 307 996 l 146 780 l 80 780 m 60 1010 l 60 945 q 45 869 60 904 q 3 808 30 834 q -57 765 -23 781 l -115 827 q -72 882 -83 849 q -61 949 -62 914 l -61 1010 l 60 1010 z "},"Ἅ":{"ha":1039,"x_min":-135,"x_max":1005,"o":"m 262 0 l 33 0 l 382 1010 l 657 1010 l 1005 0 l 776 0 l 523 779 l 515 779 l 262 0 m 248 397 l 788 397 l 788 230 l 248 230 l 248 397 m 76 780 l 76 796 l 152 1010 l 301 1010 l 301 996 l 139 780 l 76 780 m -21 765 q -102 834 -68 788 q -135 945 -135 880 l -135 1010 l -15 1010 l -15 949 q -4 879 -15 909 q 37 827 7 848 l -21 765 z "},"Ἆ":{"ha":1039,"x_min":-25,"x_max":1005,"o":"m 262 0 l 33 0 l 382 1010 l 657 1010 l 1005 0 l 776 0 l 523 779 l 515 779 l 262 0 m 248 397 l 788 397 l 788 230 l 248 230 l 248 397 m 299 1178 l 384 1152 q 352 1067 384 1103 q 270 1030 320 1030 q 222 1037 243 1030 q 184 1053 201 1044 q 148 1069 166 1062 q 107 1076 130 1076 q 73 1058 86 1076 q 61 1017 61 1041 l -25 1041 q 7 1127 -25 1090 q 89 1165 39 1165 q 132 1159 112 1165 q 172 1143 152 1152 q 211 1127 191 1134 q 252 1120 231 1120 q 285 1137 272 1120 q 299 1178 299 1154 m 247 995 l 247 941 q 218 851 247 890 q 145 793 189 813 l 90 843 q 128 888 119 861 q 136 944 136 915 l 136 995 l 247 995 z "},"Ἇ":{"ha":1039,"x_min":-43,"x_max":1005,"o":"m 262 0 l 33 0 l 382 1010 l 657 1010 l 1005 0 l 776 0 l 523 779 l 515 779 l 262 0 m 248 397 l 788 397 l 788 230 l 248 230 l 248 397 m 116 941 l 116 995 l 227 995 l 227 944 q 236 888 227 915 q 274 843 244 861 l 216 793 q 146 850 176 812 q 116 941 116 888 m 280 1178 l 365 1152 q 333 1067 365 1103 q 251 1030 301 1030 q 203 1037 224 1030 q 165 1053 182 1044 q 129 1069 147 1062 q 88 1076 111 1076 q 55 1058 68 1076 q 42 1017 42 1041 l -43 1041 q -12 1127 -43 1090 q 71 1165 20 1165 q 113 1159 93 1165 q 153 1143 133 1152 q 192 1127 173 1134 q 233 1120 212 1120 q 267 1137 253 1120 q 280 1178 280 1154 z "},"Ᾰ":{"ha":1039,"x_min":33,"x_max":1005,"o":"m 262 0 l 33 0 l 382 1010 l 657 1010 l 1005 0 l 776 0 l 523 779 l 515 779 l 262 0 m 248 397 l 788 397 l 788 230 l 248 230 l 248 397 m 617 1274 l 763 1274 q 697 1130 763 1185 q 519 1075 631 1075 q 341 1130 407 1075 q 276 1274 276 1185 l 421 1274 q 443 1213 421 1240 q 519 1186 466 1186 q 594 1213 572 1186 q 617 1274 617 1239 z "},"Ᾱ":{"ha":1039,"x_min":33,"x_max":1005,"o":"m 262 0 l 33 0 l 382 1010 l 657 1010 l 1005 0 l 776 0 l 523 779 l 515 779 l 262 0 m 248 397 l 788 397 l 788 230 l 248 230 l 248 397 m 760 1263 l 760 1149 l 279 1149 l 279 1263 l 760 1263 z "},"Ὰ":{"ha":1039,"x_min":33,"x_max":1005,"o":"m 262 0 l 33 0 l 382 1010 l 657 1010 l 1005 0 l 776 0 l 523 779 l 515 779 l 262 0 m 248 397 l 788 397 l 788 230 l 248 230 l 248 397 m 227 779 l 67 996 l 67 1010 l 214 1010 l 291 798 l 291 779 l 227 779 z "},"Ⱥ":{"ha":1039,"x_min":33,"x_max":1005,"o":"m 847 1138 l 438 -128 l 309 -128 l 719 1138 l 847 1138 m 262 0 l 33 0 l 382 1010 l 657 1010 l 1005 0 l 776 0 l 523 779 l 515 779 l 262 0 m 248 397 l 788 397 l 788 230 l 248 230 l 248 397 z "},"Ά":{"ha":1039,"x_min":33,"x_max":1005,"o":"m 262 0 l 33 0 l 382 1010 l 657 1010 l 1005 0 l 776 0 l 523 779 l 515 779 l 262 0 m 248 397 l 788 397 l 788 230 l 248 230 l 248 397 m 93 852 l 93 871 l 170 1083 l 358 1083 l 358 1069 l 198 852 l 93 852 z "},"А":{"ha":1039,"x_min":33,"x_max":1005,"o":"m 262 0 l 33 0 l 382 1010 l 657 1010 l 1005 0 l 776 0 l 523 779 l 515 779 l 262 0 m 248 397 l 788 397 l 788 230 l 248 230 l 248 397 z "},"Ӑ":{"ha":1039,"x_min":33,"x_max":1005,"o":"m 262 0 l 33 0 l 382 1010 l 657 1010 l 1005 0 l 776 0 l 523 779 l 515 779 l 262 0 m 248 397 l 788 397 l 788 230 l 248 230 l 248 397 m 617 1274 l 763 1274 q 697 1130 763 1185 q 519 1075 631 1075 q 341 1130 407 1075 q 276 1274 276 1185 l 421 1274 q 443 1213 421 1240 q 519 1186 466 1186 q 594 1213 572 1186 q 617 1274 617 1239 z "},"Ӓ":{"ha":1039,"x_min":33,"x_max":1005,"o":"m 262 0 l 33 0 l 382 1010 l 657 1010 l 1005 0 l 776 0 l 523 779 l 515 779 l 262 0 m 248 397 l 788 397 l 788 230 l 248 230 l 248 397 m 369 1114 q 296 1144 327 1114 q 265 1214 265 1173 q 296 1285 265 1256 q 369 1314 327 1314 q 442 1285 412 1314 q 472 1214 472 1256 q 442 1144 472 1173 q 369 1114 412 1114 m 671 1114 q 598 1144 628 1114 q 567 1214 567 1173 q 598 1285 567 1256 q 671 1314 628 1314 q 744 1285 714 1314 q 773 1214 773 1256 q 744 1144 773 1173 q 671 1114 714 1114 z "},"ᾈ":{"ha":1039,"x_min":33,"x_max":1005,"o":"m 262 0 l 33 0 l 382 1010 l 657 1010 l 1005 0 l 776 0 l 523 779 l 515 779 l 262 0 m 248 397 l 788 397 l 788 230 l 248 230 l 248 397 m 587 -335 q 496 -305 534 -335 q 458 -208 458 -275 l 458 -65 l 583 -65 l 583 -207 q 592 -238 583 -228 q 620 -248 600 -248 q 638 -247 631 -248 q 652 -246 646 -246 l 652 -327 q 623 -333 638 -330 q 587 -335 608 -335 m 272 1010 l 272 945 q 257 868 272 903 q 216 807 242 833 q 157 765 190 781 l 99 827 q 132 860 120 841 q 148 900 144 878 q 153 949 153 923 l 153 1010 l 272 1010 z "},"ᾉ":{"ha":1039,"x_min":33,"x_max":1005,"o":"m 262 0 l 33 0 l 382 1010 l 657 1010 l 1005 0 l 776 0 l 523 779 l 515 779 l 262 0 m 248 397 l 788 397 l 788 230 l 248 230 l 248 397 m 587 -335 q 496 -305 534 -335 q 458 -208 458 -275 l 458 -65 l 583 -65 l 583 -207 q 592 -238 583 -228 q 620 -248 600 -248 q 638 -247 631 -248 q 652 -246 646 -246 l 652 -327 q 623 -333 638 -330 q 587 -335 608 -335 m 122 945 l 122 1010 l 242 1010 l 242 949 q 247 903 243 926 q 263 861 252 881 q 295 827 274 842 l 237 765 q 156 836 188 789 q 122 945 123 882 z "},"ᾊ":{"ha":1039,"x_min":-145,"x_max":1005,"o":"m 262 0 l 33 0 l 382 1010 l 657 1010 l 1005 0 l 776 0 l 523 779 l 515 779 l 262 0 m 248 397 l 788 397 l 788 230 l 248 230 l 248 397 m 587 -335 q 496 -305 534 -335 q 458 -208 458 -275 l 458 -65 l 583 -65 l 583 -207 q 592 -238 583 -228 q 620 -248 600 -248 q 638 -247 631 -248 q 652 -246 646 -246 l 652 -327 q 623 -333 638 -330 q 587 -335 608 -335 m 297 793 l 297 783 l 231 783 l 71 998 l 71 1012 l 218 1012 l 297 793 m 39 1012 l 39 956 q 24 882 39 917 q -20 818 9 847 q -90 767 -49 789 l -144 808 q -102 876 -116 839 q -88 960 -87 912 l -88 1012 l 39 1012 z "},"ᾋ":{"ha":1039,"x_min":-107,"x_max":1005,"o":"m 262 0 l 33 0 l 382 1010 l 657 1010 l 1005 0 l 776 0 l 523 779 l 515 779 l 262 0 m 248 397 l 788 397 l 788 230 l 248 230 l 248 397 m 587 -335 q 496 -305 534 -335 q 458 -208 458 -275 l 458 -65 l 583 -65 l 583 -207 q 592 -238 583 -228 q 620 -248 600 -248 q 638 -247 631 -248 q 652 -246 646 -246 l 652 -327 q 623 -333 638 -330 q 587 -335 608 -335 m 296 796 l 296 780 l 230 780 l 70 996 l 70 1010 l 218 1010 l 296 796 m -106 945 l -106 1010 l 15 1010 l 15 949 q 25 882 15 914 q 69 827 36 849 l 11 765 q -73 836 -40 789 q -106 945 -107 882 z "},"ᾌ":{"ha":1039,"x_min":-115,"x_max":1005,"o":"m 262 0 l 33 0 l 382 1010 l 657 1010 l 1005 0 l 776 0 l 523 779 l 515 779 l 262 0 m 248 397 l 788 397 l 788 230 l 248 230 l 248 397 m 80 780 l 80 796 l 160 1010 l 307 1010 l 307 996 l 146 780 l 80 780 m 60 1010 l 60 945 q 45 869 60 904 q 3 808 30 834 q -57 765 -23 781 l -115 827 q -72 882 -83 849 q -61 949 -62 914 l -61 1010 l 60 1010 m 587 -335 q 496 -305 534 -335 q 458 -208 458 -275 l 458 -65 l 583 -65 l 583 -207 q 592 -238 583 -228 q 620 -248 600 -248 q 638 -247 631 -248 q 652 -246 646 -246 l 652 -327 q 623 -333 638 -330 q 587 -335 608 -335 z "},"ᾍ":{"ha":1039,"x_min":-135,"x_max":1005,"o":"m 262 0 l 33 0 l 382 1010 l 657 1010 l 1005 0 l 776 0 l 523 779 l 515 779 l 262 0 m 248 397 l 788 397 l 788 230 l 248 230 l 248 397 m 587 -335 q 496 -305 534 -335 q 458 -208 458 -275 l 458 -65 l 583 -65 l 583 -207 q 592 -238 583 -228 q 620 -248 600 -248 q 638 -247 631 -248 q 652 -246 646 -246 l 652 -327 q 623 -333 638 -330 q 587 -335 608 -335 m 76 780 l 76 796 l 152 1010 l 301 1010 l 301 996 l 139 780 l 76 780 m -21 765 q -102 834 -68 788 q -135 945 -135 880 l -135 1010 l -15 1010 l -15 949 q -4 879 -15 909 q 37 827 7 848 l -21 765 z "},"ᾎ":{"ha":1039,"x_min":-25,"x_max":1005,"o":"m 262 0 l 33 0 l 382 1010 l 657 1010 l 1005 0 l 776 0 l 523 779 l 515 779 l 262 0 m 248 397 l 788 397 l 788 230 l 248 230 l 248 397 m 299 1178 l 384 1152 q 352 1067 384 1103 q 270 1030 320 1030 q 222 1037 243 1030 q 184 1053 201 1044 q 148 1069 166 1062 q 107 1076 130 1076 q 73 1058 86 1076 q 61 1017 61 1041 l -25 1041 q 7 1127 -25 1090 q 89 1165 39 1165 q 132 1159 112 1165 q 172 1143 152 1152 q 211 1127 191 1134 q 252 1120 231 1120 q 285 1137 272 1120 q 299 1178 299 1154 m 247 995 l 247 941 q 218 851 247 890 q 145 793 189 813 l 90 843 q 128 888 119 861 q 136 944 136 915 l 136 995 l 247 995 m 587 -335 q 496 -305 534 -335 q 458 -208 458 -275 l 458 -65 l 583 -65 l 583 -207 q 592 -238 583 -228 q 620 -248 600 -248 q 638 -247 631 -248 q 652 -246 646 -246 l 652 -327 q 623 -333 638 -330 q 587 -335 608 -335 z "},"ᾏ":{"ha":1039,"x_min":-43,"x_max":1005,"o":"m 262 0 l 33 0 l 382 1010 l 657 1010 l 1005 0 l 776 0 l 523 779 l 515 779 l 262 0 m 248 397 l 788 397 l 788 230 l 248 230 l 248 397 m 587 -335 q 496 -305 534 -335 q 458 -208 458 -275 l 458 -65 l 583 -65 l 583 -207 q 592 -238 583 -228 q 620 -248 600 -248 q 638 -247 631 -248 q 652 -246 646 -246 l 652 -327 q 623 -333 638 -330 q 587 -335 608 -335 m 116 941 l 116 995 l 227 995 l 227 944 q 236 888 227 915 q 274 843 244 861 l 216 793 q 146 850 176 812 q 116 941 116 888 m 280 1178 l 365 1152 q 333 1067 365 1103 q 251 1030 301 1030 q 203 1037 224 1030 q 165 1053 182 1044 q 129 1069 147 1062 q 88 1076 111 1076 q 55 1058 68 1076 q 42 1017 42 1041 l -43 1041 q -12 1127 -43 1090 q 71 1165 20 1165 q 113 1159 93 1165 q 153 1143 133 1152 q 192 1127 173 1134 q 233 1120 212 1120 q 267 1137 253 1120 q 280 1178 280 1154 z "},"ᾼ":{"ha":1039,"x_min":33,"x_max":1005,"o":"m 262 0 l 33 0 l 382 1010 l 657 1010 l 1005 0 l 776 0 l 523 779 l 515 779 l 262 0 m 248 397 l 788 397 l 788 230 l 248 230 l 248 397 m 587 -335 q 496 -305 534 -335 q 458 -208 458 -275 l 458 -65 l 583 -65 l 583 -207 q 592 -238 583 -228 q 620 -248 600 -248 q 638 -247 631 -248 q 652 -246 646 -246 l 652 -327 q 623 -333 638 -330 q 587 -335 608 -335 z "},"Λ":{"ha":1039,"x_min":33,"x_max":1005,"o":"m 262 0 l 33 0 l 382 1010 l 657 1010 l 1005 0 l 776 0 l 523 779 l 515 779 l 262 0 z "},"Æ":{"ha":1431,"x_min":33,"x_max":1350,"o":"m 33 0 l 466 1010 l 1348 1010 l 1348 834 l 881 834 l 881 593 l 1313 593 l 1313 417 l 881 417 l 881 176 l 1350 176 l 1350 0 l 668 0 l 668 800 l 597 800 l 268 0 l 33 0 m 265 230 l 265 397 l 790 397 l 790 230 l 265 230 z "},"Ǣ":{"ha":1431,"x_min":33,"x_max":1350,"o":"m 33 0 l 466 1010 l 1348 1010 l 1348 834 l 881 834 l 881 593 l 1313 593 l 1313 417 l 881 417 l 881 176 l 1350 176 l 1350 0 l 668 0 l 668 800 l 597 800 l 268 0 l 33 0 m 265 230 l 265 397 l 790 397 l 790 230 l 265 230 m 1150 1263 l 1150 1149 l 669 1149 l 669 1263 l 1150 1263 z "},"Ǽ":{"ha":1431,"x_min":33,"x_max":1350,"o":"m 33 0 l 466 1010 l 1348 1010 l 1348 834 l 881 834 l 881 593 l 1313 593 l 1313 417 l 881 417 l 881 176 l 1350 176 l 1350 0 l 668 0 l 668 800 l 597 800 l 268 0 l 33 0 m 265 230 l 265 397 l 790 397 l 790 230 l 265 230 m 834 1108 l 939 1332 l 1133 1332 l 982 1108 l 834 1108 z "},"Ӕ":{"ha":1431,"x_min":33,"x_max":1350,"o":"m 33 0 l 466 1010 l 1348 1010 l 1348 834 l 881 834 l 881 593 l 1313 593 l 1313 417 l 881 417 l 881 176 l 1350 176 l 1350 0 l 668 0 l 668 800 l 597 800 l 268 0 l 33 0 m 265 230 l 265 397 l 790 397 l 790 230 l 265 230 z "},"B":{"ha":918,"x_min":88,"x_max":867,"o":"m 88 0 l 88 1010 l 492 1010 q 678 977 604 1010 q 790 886 753 944 q 828 751 828 827 q 804 647 828 692 q 739 574 780 603 q 645 534 698 546 l 645 524 q 753 492 703 522 q 836 408 804 462 q 867 279 867 354 q 827 136 867 199 q 710 36 788 73 q 519 0 633 0 l 88 0 m 301 175 l 475 175 q 606 209 565 175 q 647 300 647 243 q 626 374 647 342 q 569 425 606 406 q 480 443 532 443 l 301 443 l 301 175 m 301 587 l 460 587 q 538 603 504 587 q 592 647 572 618 q 612 716 612 676 q 573 804 612 770 q 464 837 535 837 l 301 837 l 301 587 z "},"Ḃ":{"ha":918,"x_min":88,"x_max":867,"o":"m 88 0 l 88 1010 l 492 1010 q 678 977 604 1010 q 790 886 753 944 q 828 751 828 827 q 804 647 828 692 q 739 574 780 603 q 645 534 698 546 l 645 524 q 753 492 703 522 q 836 408 804 462 q 867 279 867 354 q 827 136 867 199 q 710 36 788 73 q 519 0 633 0 l 88 0 m 301 175 l 475 175 q 606 209 565 175 q 647 300 647 243 q 626 374 647 342 q 569 425 606 406 q 480 443 532 443 l 301 443 l 301 175 m 301 587 l 460 587 q 538 603 504 587 q 592 647 572 618 q 612 716 612 676 q 573 804 612 770 q 464 837 535 837 l 301 837 l 301 587 m 444 1108 q 364 1139 398 1108 q 330 1214 330 1170 q 364 1289 330 1258 q 444 1320 398 1320 q 525 1289 491 1320 q 558 1214 558 1258 q 525 1139 558 1170 q 444 1108 491 1108 z "},"Ḅ":{"ha":918,"x_min":88,"x_max":867,"o":"m 88 0 l 88 1010 l 492 1010 q 678 977 604 1010 q 790 886 753 944 q 828 751 828 827 q 804 647 828 692 q 739 574 780 603 q 645 534 698 546 l 645 524 q 753 492 703 522 q 836 408 804 462 q 867 279 867 354 q 827 136 867 199 q 710 36 788 73 q 519 0 633 0 l 88 0 m 301 175 l 475 175 q 606 209 565 175 q 647 300 647 243 q 626 374 647 342 q 569 425 606 406 q 480 443 532 443 l 301 443 l 301 175 m 301 587 l 460 587 q 538 603 504 587 q 592 647 572 618 q 612 716 612 676 q 573 804 612 770 q 464 837 535 837 l 301 837 l 301 587 m 445 -284 q 365 -253 399 -284 q 331 -178 331 -221 q 365 -103 331 -134 q 445 -72 399 -72 q 526 -103 492 -72 q 559 -178 559 -134 q 526 -253 559 -221 q 445 -284 492 -284 z "},"Ḇ":{"ha":918,"x_min":88,"x_max":867,"o":"m 88 0 l 88 1010 l 492 1010 q 678 977 604 1010 q 790 886 753 944 q 828 751 828 827 q 804 647 828 692 q 739 574 780 603 q 645 534 698 546 l 645 524 q 753 492 703 522 q 836 408 804 462 q 867 279 867 354 q 827 136 867 199 q 710 36 788 73 q 519 0 633 0 l 88 0 m 301 175 l 475 175 q 606 209 565 175 q 647 300 647 243 q 626 374 647 342 q 569 425 606 406 q 480 443 532 443 l 301 443 l 301 175 m 301 587 l 460 587 q 538 603 504 587 q 592 647 572 618 q 612 716 612 676 q 573 804 612 770 q 464 837 535 837 l 301 837 l 301 587 m 686 -126 l 686 -240 l 205 -240 l 205 -126 l 686 -126 z "},"Ƀ":{"ha":1005,"x_min":31,"x_max":955,"o":"m 176 0 l 176 1010 l 580 1010 q 766 977 691 1010 q 878 886 840 944 q 915 751 915 827 q 892 647 915 692 q 827 574 868 603 q 733 534 786 546 l 733 524 q 841 492 791 522 q 923 408 892 462 q 955 279 955 354 q 915 136 955 199 q 798 36 875 73 q 607 0 721 0 l 176 0 m 389 175 l 563 175 q 693 209 653 175 q 734 300 734 243 q 714 374 734 342 q 657 425 694 406 q 568 443 619 443 l 389 443 l 389 175 m 389 587 l 547 587 q 626 603 591 587 q 680 647 660 618 q 700 716 700 676 q 661 804 700 770 q 551 837 622 837 l 389 837 l 389 587 m 30 247 l 30 371 l 522 371 l 522 247 l 30 247 z "},"Ɓ":{"ha":1203,"x_min":49,"x_max":1153,"o":"m 485 836 l 339 836 q 276 817 298 836 q 247 769 254 798 q 240 709 239 740 l 240 651 l 49 651 l 49 750 q 84 888 49 829 q 184 978 119 946 q 338 1010 249 1010 l 485 1010 l 485 836 m 374 0 l 374 1010 l 778 1010 q 964 977 889 1010 q 1076 886 1038 944 q 1114 751 1114 827 q 1090 647 1114 692 q 1025 574 1066 603 q 931 534 983 546 l 931 524 q 1039 492 988 522 q 1122 408 1090 462 q 1153 279 1153 354 q 1113 136 1153 199 q 996 36 1074 73 q 805 0 919 0 l 374 0 m 587 175 l 761 175 q 891 209 850 175 q 932 300 932 243 q 912 374 932 342 q 854 425 892 406 q 766 443 817 443 l 587 443 l 587 175 m 587 587 l 745 587 q 823 603 789 587 q 878 647 858 618 q 898 716 898 676 q 859 804 898 770 q 749 837 820 837 l 587 837 l 587 587 z "},"В":{"ha":918,"x_min":88,"x_max":867,"o":"m 88 0 l 88 1010 l 492 1010 q 678 977 604 1010 q 790 886 753 944 q 828 751 828 827 q 804 647 828 692 q 739 574 780 603 q 645 534 698 546 l 645 524 q 753 492 703 522 q 836 408 804 462 q 867 279 867 354 q 827 136 867 199 q 710 36 788 73 q 519 0 633 0 l 88 0 m 301 175 l 475 175 q 606 209 565 175 q 647 300 647 243 q 626 374 647 342 q 569 425 606 406 q 480 443 532 443 l 301 443 l 301 175 m 301 587 l 460 587 q 538 603 504 587 q 592 647 572 618 q 612 716 612 676 q 573 804 612 770 q 464 837 535 837 l 301 837 l 301 587 z "},"Β":{"ha":918,"x_min":88,"x_max":867,"o":"m 88 0 l 88 1010 l 492 1010 q 678 977 604 1010 q 790 886 753 944 q 828 751 828 827 q 804 647 828 692 q 739 574 780 603 q 645 534 698 546 l 645 524 q 753 492 703 522 q 836 408 804 462 q 867 279 867 354 q 827 136 867 199 q 710 36 788 73 q 519 0 633 0 l 88 0 m 301 175 l 475 175 q 606 209 565 175 q 647 300 647 243 q 626 374 647 342 q 569 425 606 406 q 480 443 532 443 l 301 443 l 301 175 m 301 587 l 460 587 q 538 603 504 587 q 592 647 572 618 q 612 716 612 676 q 573 804 612 770 q 464 837 535 837 l 301 837 l 301 587 z "},"C":{"ha":1045,"x_min":70,"x_max":979,"o":"m 979 656 l 763 656 q 739 731 757 698 q 692 787 721 764 q 626 823 663 810 q 545 835 589 835 q 409 796 467 835 q 319 684 351 758 q 287 505 287 610 q 319 324 287 397 q 409 213 351 250 q 544 175 468 175 q 624 186 587 175 q 689 220 660 198 q 737 273 718 242 q 763 345 756 305 l 979 344 q 937 210 971 275 q 848 95 904 146 q 715 16 792 45 q 541 -14 638 -14 q 299 47 405 -14 q 131 224 193 109 q 70 505 70 340 q 132 786 70 670 q 301 963 194 902 q 541 1024 407 1024 q 704 999 628 1024 q 837 927 779 975 q 932 812 895 880 q 979 656 969 744 z "},"Ƈ":{"ha":1163,"x_min":70,"x_max":1175,"o":"m 979 656 l 774 656 l 774 768 q 816 917 774 857 q 926 1009 857 978 q 1075 1041 994 1041 q 1125 1040 1101 1041 q 1175 1035 1149 1039 l 1175 865 q 1145 867 1163 866 q 1116 868 1127 868 q 1053 856 1084 868 q 1000 817 1021 844 q 979 741 979 789 l 979 656 m 979 656 l 763 656 q 739 731 757 698 q 692 787 721 764 q 626 823 663 810 q 545 835 589 835 q 409 796 467 835 q 319 684 351 758 q 287 505 287 610 q 319 324 287 397 q 409 213 351 250 q 544 175 468 175 q 624 186 587 175 q 689 220 660 198 q 737 273 718 242 q 763 345 756 305 l 979 344 q 937 210 971 275 q 848 95 904 146 q 715 16 792 45 q 541 -14 638 -14 q 299 47 405 -14 q 131 224 193 109 q 70 505 70 340 q 132 786 70 670 q 301 963 194 902 q 541 1024 407 1024 q 704 999 628 1024 q 837 927 779 975 q 932 812 895 880 q 979 656 969 744 z "},"Ç":{"ha":1045,"x_min":70,"x_max":979,"o":"m 979 656 l 763 656 q 739 731 757 698 q 692 787 721 764 q 626 823 663 810 q 545 835 589 835 q 409 796 467 835 q 319 684 351 758 q 287 505 287 610 q 319 324 287 397 q 409 213 351 250 q 544 175 468 175 q 624 186 587 175 q 689 220 660 198 q 737 273 718 242 q 763 345 756 305 l 979 344 q 937 210 971 275 q 848 95 904 146 q 715 16 792 45 q 541 -14 638 -14 q 299 47 405 -14 q 131 224 193 109 q 70 505 70 340 q 132 786 70 670 q 301 963 194 902 q 541 1024 407 1024 q 704 999 628 1024 q 837 927 779 975 q 932 812 895 880 q 979 656 969 744 m 488 3 l 584 3 l 577 -40 q 660 -78 627 -48 q 692 -160 692 -108 q 624 -277 693 -233 q 432 -321 556 -321 l 430 -227 q 527 -212 492 -227 q 564 -165 563 -197 q 541 -119 565 -135 q 466 -97 517 -104 l 488 3 z "},"Ć":{"ha":1045,"x_min":70,"x_max":979,"o":"m 979 656 l 763 656 q 739 731 757 698 q 692 787 721 764 q 626 823 663 810 q 545 835 589 835 q 409 796 467 835 q 319 684 351 758 q 287 505 287 610 q 319 324 287 397 q 409 213 351 250 q 544 175 468 175 q 624 186 587 175 q 689 220 660 198 q 737 273 718 242 q 763 345 756 305 l 979 344 q 937 210 971 275 q 848 95 904 146 q 715 16 792 45 q 541 -14 638 -14 q 299 47 405 -14 q 131 224 193 109 q 70 505 70 340 q 132 786 70 670 q 301 963 194 902 q 541 1024 407 1024 q 704 999 628 1024 q 837 927 779 975 q 932 812 895 880 q 979 656 969 744 m 465 1108 l 570 1332 l 764 1332 l 614 1108 l 465 1108 z "},"Ĉ":{"ha":1045,"x_min":70,"x_max":979,"o":"m 979 656 l 763 656 q 739 731 757 698 q 692 787 721 764 q 626 823 663 810 q 545 835 589 835 q 409 796 467 835 q 319 684 351 758 q 287 505 287 610 q 319 324 287 397 q 409 213 351 250 q 544 175 468 175 q 624 186 587 175 q 689 220 660 198 q 737 273 718 242 q 763 345 756 305 l 979 344 q 937 210 971 275 q 848 95 904 146 q 715 16 792 45 q 541 -14 638 -14 q 299 47 405 -14 q 131 224 193 109 q 70 505 70 340 q 132 786 70 670 q 301 963 194 902 q 541 1024 407 1024 q 704 999 628 1024 q 837 927 779 975 q 932 812 895 880 q 979 656 969 744 m 640 1101 l 541 1221 l 441 1101 l 262 1101 l 262 1108 l 462 1325 l 618 1325 l 819 1108 l 819 1101 l 640 1101 z "},"Ċ":{"ha":1045,"x_min":70,"x_max":979,"o":"m 979 656 l 763 656 q 739 731 757 698 q 692 787 721 764 q 626 823 663 810 q 545 835 589 835 q 409 796 467 835 q 319 684 351 758 q 287 505 287 610 q 319 324 287 397 q 409 213 351 250 q 544 175 468 175 q 624 186 587 175 q 689 220 660 198 q 737 273 718 242 q 763 345 756 305 l 979 344 q 937 210 971 275 q 848 95 904 146 q 715 16 792 45 q 541 -14 638 -14 q 299 47 405 -14 q 131 224 193 109 q 70 505 70 340 q 132 786 70 670 q 301 963 194 902 q 541 1024 407 1024 q 704 999 628 1024 q 837 927 779 975 q 932 812 895 880 q 979 656 969 744 m 541 1108 q 461 1139 494 1108 q 427 1214 427 1170 q 461 1289 427 1258 q 541 1320 494 1320 q 621 1289 588 1320 q 654 1214 654 1258 q 621 1139 654 1170 q 541 1108 588 1108 z "},"Č":{"ha":1045,"x_min":70,"x_max":979,"o":"m 979 656 l 763 656 q 739 731 757 698 q 692 787 721 764 q 626 823 663 810 q 545 835 589 835 q 409 796 467 835 q 319 684 351 758 q 287 505 287 610 q 319 324 287 397 q 409 213 351 250 q 544 175 468 175 q 624 186 587 175 q 689 220 660 198 q 737 273 718 242 q 763 345 756 305 l 979 344 q 937 210 971 275 q 848 95 904 146 q 715 16 792 45 q 541 -14 638 -14 q 299 47 405 -14 q 131 224 193 109 q 70 505 70 340 q 132 786 70 670 q 301 963 194 902 q 541 1024 407 1024 q 704 999 628 1024 q 837 927 779 975 q 932 812 895 880 q 979 656 969 744 m 441 1325 l 541 1204 l 640 1325 l 819 1325 l 819 1318 l 618 1101 l 462 1101 l 262 1318 l 262 1325 l 441 1325 z "},"Ḉ":{"ha":1045,"x_min":70,"x_max":979,"o":"m 979 656 l 763 656 q 739 731 757 698 q 692 787 721 764 q 626 823 663 810 q 545 835 589 835 q 409 796 467 835 q 319 684 351 758 q 287 505 287 610 q 319 324 287 397 q 409 213 351 250 q 544 175 468 175 q 624 186 587 175 q 689 220 660 198 q 737 273 718 242 q 763 345 756 305 l 979 344 q 937 210 971 275 q 848 95 904 146 q 715 16 792 45 q 541 -14 638 -14 q 299 47 405 -14 q 131 224 193 109 q 70 505 70 340 q 132 786 70 670 q 301 963 194 902 q 541 1024 407 1024 q 704 999 628 1024 q 837 927 779 975 q 932 812 895 880 q 979 656 969 744 m 488 3 l 584 3 l 577 -40 q 660 -78 627 -48 q 692 -160 692 -108 q 624 -277 693 -233 q 432 -321 556 -321 l 430 -227 q 527 -212 492 -227 q 564 -165 563 -197 q 541 -119 565 -135 q 466 -97 517 -104 l 488 3 m 465 1108 l 570 1332 l 764 1332 l 614 1108 l 465 1108 z "},"Ȼ":{"ha":1045,"x_min":70,"x_max":979,"o":"m 256 -128 l 666 1138 l 795 1138 l 385 -128 l 256 -128 m 979 656 l 763 656 q 739 731 757 698 q 692 787 721 764 q 626 823 663 810 q 545 835 589 835 q 409 796 467 835 q 319 684 351 758 q 287 505 287 610 q 319 324 287 397 q 409 213 351 250 q 544 175 468 175 q 624 186 587 175 q 689 220 660 198 q 737 273 718 242 q 763 345 756 305 l 979 344 q 937 210 971 275 q 848 95 904 146 q 715 16 792 45 q 541 -14 638 -14 q 299 47 405 -14 q 131 224 193 109 q 70 505 70 340 q 132 786 70 670 q 301 963 194 902 q 541 1024 407 1024 q 704 999 628 1024 q 837 927 779 975 q 932 812 895 880 q 979 656 969 744 z "},"Ɔ":{"ha":1045,"x_min":66,"x_max":975,"o":"m 66 354 l 281 354 q 306 279 288 312 q 352 223 324 246 q 418 187 381 200 q 499 175 455 175 q 636 214 577 175 q 726 326 694 253 q 758 505 758 400 q 726 687 758 613 q 635 798 693 760 q 500 835 577 835 q 421 824 458 835 q 356 790 384 812 q 308 737 327 768 q 281 665 289 705 l 66 666 q 108 800 74 736 q 196 915 141 864 q 329 995 252 965 q 504 1024 407 1024 q 745 963 639 1024 q 913 786 852 902 q 975 505 975 670 q 912 224 975 340 q 744 47 850 108 q 504 -14 637 -14 q 341 11 416 -14 q 207 83 265 36 q 113 198 149 130 q 66 354 76 266 z "},"Ϲ":{"ha":1045,"x_min":70,"x_max":979,"o":"m 979 656 l 763 656 q 739 731 757 698 q 692 787 721 764 q 626 823 663 810 q 545 835 589 835 q 409 796 467 835 q 319 684 351 758 q 287 505 287 610 q 319 324 287 397 q 409 213 351 250 q 544 175 468 175 q 624 186 587 175 q 689 220 660 198 q 737 273 718 242 q 763 345 756 305 l 979 344 q 937 210 971 275 q 848 95 904 146 q 715 16 792 45 q 541 -14 638 -14 q 299 47 405 -14 q 131 224 193 109 q 70 505 70 340 q 132 786 70 670 q 301 963 194 902 q 541 1024 407 1024 q 704 999 628 1024 q 837 927 779 975 q 932 812 895 880 q 979 656 969 744 z "},"D":{"ha":1010,"x_min":88,"x_max":940,"o":"m 446 0 l 88 0 l 88 1010 l 449 1010 q 711 950 601 1010 q 881 776 821 889 q 940 506 940 663 q 881 235 940 348 q 710 61 821 121 q 446 0 600 0 m 301 183 l 437 183 q 597 217 532 183 q 694 322 661 251 q 727 506 727 393 q 694 689 727 618 q 597 794 661 760 q 437 827 532 827 l 301 827 l 301 183 z "},"Ɗ":{"ha":1300,"x_min":49,"x_max":1230,"o":"m 49 651 l 49 750 q 84 888 49 829 q 184 978 119 946 q 338 1010 249 1010 l 485 1010 l 485 827 l 339 827 q 276 810 298 827 q 247 767 254 794 q 240 709 239 740 l 240 651 l 49 651 m 736 0 l 378 0 l 378 1010 l 739 1010 q 1001 950 891 1010 q 1171 776 1111 889 q 1230 506 1230 663 q 1171 235 1230 348 q 1000 61 1111 121 q 736 0 890 0 m 591 183 l 727 183 q 887 217 822 183 q 984 322 951 251 q 1017 506 1017 393 q 984 689 1017 618 q 887 794 951 760 q 727 827 822 827 l 591 827 l 591 183 z "},"Ď":{"ha":1010,"x_min":88,"x_max":940,"o":"m 446 0 l 88 0 l 88 1010 l 449 1010 q 711 950 601 1010 q 881 776 821 889 q 940 506 940 663 q 881 235 940 348 q 710 61 821 121 q 446 0 600 0 m 301 183 l 437 183 q 597 217 532 183 q 694 322 661 251 q 727 506 727 393 q 694 689 727 618 q 597 794 661 760 q 437 827 532 827 l 301 827 l 301 183 m 310 1325 l 409 1204 l 508 1325 l 687 1325 l 687 1318 l 487 1101 l 330 1101 l 131 1318 l 131 1325 l 310 1325 z "},"Ḋ":{"ha":1010,"x_min":88,"x_max":940,"o":"m 446 0 l 88 0 l 88 1010 l 449 1010 q 711 950 601 1010 q 881 776 821 889 q 940 506 940 663 q 881 235 940 348 q 710 61 821 121 q 446 0 600 0 m 301 183 l 437 183 q 597 217 532 183 q 694 322 661 251 q 727 506 727 393 q 694 689 727 618 q 597 794 661 760 q 437 827 532 827 l 301 827 l 301 183 m 409 1108 q 328 1139 362 1108 q 295 1214 295 1170 q 328 1289 295 1258 q 408 1320 362 1320 q 489 1289 456 1320 q 522 1214 522 1258 q 489 1139 522 1170 q 409 1108 456 1108 z "},"Ḍ":{"ha":1010,"x_min":88,"x_max":940,"o":"m 446 0 l 88 0 l 88 1010 l 449 1010 q 711 950 601 1010 q 881 776 821 889 q 940 506 940 663 q 881 235 940 348 q 710 61 821 121 q 446 0 600 0 m 301 183 l 437 183 q 597 217 532 183 q 694 322 661 251 q 727 506 727 393 q 694 689 727 618 q 597 794 661 760 q 437 827 532 827 l 301 827 l 301 183 m 444 -284 q 363 -253 397 -284 q 330 -178 330 -221 q 363 -103 330 -134 q 444 -72 397 -72 q 524 -103 491 -72 q 557 -178 557 -134 q 524 -253 557 -221 q 444 -284 491 -284 z "},"Ḏ":{"ha":1010,"x_min":88,"x_max":940,"o":"m 446 0 l 88 0 l 88 1010 l 449 1010 q 711 950 601 1010 q 881 776 821 889 q 940 506 940 663 q 881 235 940 348 q 710 61 821 121 q 446 0 600 0 m 301 183 l 437 183 q 597 217 532 183 q 694 322 661 251 q 727 506 727 393 q 694 689 727 618 q 597 794 661 760 q 437 827 532 827 l 301 827 l 301 183 m 684 -126 l 684 -240 l 203 -240 l 203 -126 l 684 -126 z "},"Ḑ":{"ha":1010,"x_min":88,"x_max":940,"o":"m 446 0 l 88 0 l 88 1010 l 449 1010 q 711 950 601 1010 q 881 776 821 889 q 940 506 940 663 q 881 235 940 348 q 710 61 821 121 q 446 0 600 0 m 301 183 l 437 183 q 597 217 532 183 q 694 322 661 251 q 727 506 727 393 q 694 689 727 618 q 597 794 661 760 q 437 827 532 827 l 301 827 l 301 183 m 287 -324 l 348 -80 l 542 -80 l 434 -324 l 287 -324 z "},"Ḓ":{"ha":1010,"x_min":88,"x_max":940,"o":"m 446 0 l 88 0 l 88 1010 l 449 1010 q 711 950 601 1010 q 881 776 821 889 q 940 506 940 663 q 881 235 940 348 q 710 61 821 121 q 446 0 600 0 m 301 183 l 437 183 q 597 217 532 183 q 694 322 661 251 q 727 506 727 393 q 694 689 727 618 q 597 794 661 760 q 437 827 532 827 l 301 827 l 301 183 m 543 -287 l 443 -167 l 344 -287 l 165 -287 l 165 -280 l 365 -63 l 522 -63 l 722 -280 l 722 -287 l 543 -287 z "},"Ɖ":{"ha":1010,"x_min":-52,"x_max":940,"o":"m 446 0 l 183 0 l 183 183 l 437 183 q 597 217 532 183 q 694 322 661 251 q 727 506 727 393 q 694 689 727 618 q 597 794 661 760 q 437 827 532 827 l 179 827 l 179 1010 l 449 1010 q 711 950 601 1010 q 881 776 821 889 q 940 506 940 663 q 881 235 940 348 q 710 61 821 121 q 446 0 600 0 m 301 1010 l 301 0 l 88 0 l 88 1010 l 301 1010 m -52 471 l -52 595 l 439 595 l 439 471 l -52 471 z "},"ǲ":{"ha":1804,"x_min":88,"x_max":1727,"o":"m 446 0 l 88 0 l 88 1010 l 449 1010 q 711 950 601 1010 q 881 776 821 889 q 940 506 940 663 q 881 235 940 348 q 710 61 821 121 q 446 0 600 0 m 301 183 l 437 183 q 597 217 532 183 q 694 322 661 251 q 727 506 727 393 q 694 689 727 618 q 597 794 661 760 q 437 827 532 827 l 301 827 l 301 183 m 1090 0 l 1090 125 l 1461 584 l 1461 590 l 1103 590 l 1103 758 l 1714 758 l 1714 621 l 1366 173 l 1366 168 l 1727 168 l 1727 0 l 1090 0 z "},"ǅ":{"ha":1804,"x_min":88,"x_max":1727,"o":"m 446 0 l 88 0 l 88 1010 l 449 1010 q 711 950 601 1010 q 881 776 821 889 q 940 506 940 663 q 881 235 940 348 q 710 61 821 121 q 446 0 600 0 m 301 183 l 437 183 q 597 217 532 183 q 694 322 661 251 q 727 506 727 393 q 694 689 727 618 q 597 794 661 760 q 437 827 532 827 l 301 827 l 301 183 m 1090 0 l 1090 125 l 1461 584 l 1461 590 l 1103 590 l 1103 758 l 1714 758 l 1714 621 l 1366 173 l 1366 168 l 1727 168 l 1727 0 l 1090 0 m 1307 1072 l 1406 952 l 1505 1072 l 1684 1072 l 1684 1065 l 1485 848 l 1328 848 l 1128 1065 l 1128 1072 l 1307 1072 z "},"E":{"ha":851,"x_min":88,"x_max":770,"o":"m 88 0 l 88 1010 l 768 1010 l 768 834 l 301 834 l 301 593 l 733 593 l 733 417 l 301 417 l 301 176 l 770 176 l 770 0 l 88 0 z "},"È":{"ha":851,"x_min":88,"x_max":770,"o":"m 88 0 l 88 1010 l 768 1010 l 768 834 l 301 834 l 301 593 l 733 593 l 733 417 l 301 417 l 301 176 l 770 176 l 770 0 l 88 0 m 357 1108 l 207 1332 l 400 1332 l 506 1108 l 357 1108 z "},"É":{"ha":851,"x_min":88,"x_max":770,"o":"m 88 0 l 88 1010 l 768 1010 l 768 834 l 301 834 l 301 593 l 733 593 l 733 417 l 301 417 l 301 176 l 770 176 l 770 0 l 88 0 m 354 1108 l 459 1332 l 653 1332 l 503 1108 l 354 1108 z "},"Ê":{"ha":851,"x_min":88,"x_max":770,"o":"m 88 0 l 88 1010 l 768 1010 l 768 834 l 301 834 l 301 593 l 733 593 l 733 417 l 301 417 l 301 176 l 770 176 l 770 0 l 88 0 m 529 1101 l 430 1221 l 330 1101 l 151 1101 l 151 1108 l 351 1325 l 508 1325 l 708 1108 l 708 1101 l 529 1101 z "},"Ë":{"ha":851,"x_min":88,"x_max":770,"o":"m 88 0 l 88 1010 l 768 1010 l 768 834 l 301 834 l 301 593 l 733 593 l 733 417 l 301 417 l 301 176 l 770 176 l 770 0 l 88 0 m 279 1114 q 206 1144 237 1114 q 176 1214 176 1173 q 206 1285 176 1256 q 279 1314 237 1314 q 352 1285 322 1314 q 382 1214 382 1256 q 352 1144 382 1173 q 279 1114 322 1114 m 581 1114 q 508 1144 539 1114 q 477 1214 477 1173 q 508 1285 477 1256 q 581 1314 539 1314 q 654 1285 624 1314 q 684 1214 684 1256 q 654 1144 684 1173 q 581 1114 624 1114 z "},"Ē":{"ha":851,"x_min":88,"x_max":770,"o":"m 88 0 l 88 1010 l 768 1010 l 768 834 l 301 834 l 301 593 l 733 593 l 733 417 l 301 417 l 301 176 l 770 176 l 770 0 l 88 0 m 670 1263 l 670 1149 l 189 1149 l 189 1263 l 670 1263 z "},"Ĕ":{"ha":851,"x_min":88,"x_max":770,"o":"m 88 0 l 88 1010 l 768 1010 l 768 834 l 301 834 l 301 593 l 733 593 l 733 417 l 301 417 l 301 176 l 770 176 l 770 0 l 88 0 m 527 1274 l 674 1274 q 607 1130 673 1185 q 430 1075 542 1075 q 252 1130 317 1075 q 186 1274 186 1185 l 331 1274 q 353 1213 331 1240 q 430 1186 376 1186 q 505 1213 482 1186 q 527 1274 527 1239 z "},"Ė":{"ha":851,"x_min":88,"x_max":770,"o":"m 88 0 l 88 1010 l 768 1010 l 768 834 l 301 834 l 301 593 l 733 593 l 733 417 l 301 417 l 301 176 l 770 176 l 770 0 l 88 0 m 430 1108 q 350 1139 383 1108 q 316 1214 316 1170 q 350 1289 316 1258 q 430 1320 383 1320 q 510 1289 477 1320 q 544 1214 544 1258 q 510 1139 544 1170 q 430 1108 477 1108 z "},"Ę":{"ha":851,"x_min":88,"x_max":787,"o":"m 88 0 l 88 1010 l 768 1010 l 768 834 l 301 834 l 301 593 l 733 593 l 733 417 l 301 417 l 301 176 l 770 176 l 770 0 l 88 0 m 675 -283 q 565 -249 609 -283 q 509 -153 521 -216 q 511 -72 502 -112 q 545 3 519 -31 q 615 57 571 37 l 771 0 q 695 -47 725 -22 q 666 -108 665 -72 q 678 -144 665 -131 q 714 -157 690 -157 q 743 -153 730 -157 q 765 -145 756 -148 l 787 -254 q 741 -273 769 -264 q 675 -283 712 -283 z "},"Ě":{"ha":851,"x_min":88,"x_max":770,"o":"m 88 0 l 88 1010 l 768 1010 l 768 834 l 301 834 l 301 593 l 733 593 l 733 417 l 301 417 l 301 176 l 770 176 l 770 0 l 88 0 m 330 1325 l 430 1204 l 529 1325 l 708 1325 l 708 1318 l 508 1101 l 351 1101 l 151 1318 l 151 1325 l 330 1325 z "},"Ȅ":{"ha":851,"x_min":86,"x_max":770,"o":"m 88 0 l 88 1010 l 768 1010 l 768 834 l 301 834 l 301 593 l 733 593 l 733 417 l 301 417 l 301 176 l 770 176 l 770 0 l 88 0 m 240 1108 l 86 1332 l 284 1332 l 389 1108 l 240 1108 m 484 1108 l 378 1332 l 570 1332 l 629 1108 l 484 1108 z "},"Ȇ":{"ha":851,"x_min":88,"x_max":770,"o":"m 88 0 l 88 1010 l 768 1010 l 768 834 l 301 834 l 301 593 l 733 593 l 733 417 l 301 417 l 301 176 l 770 176 l 770 0 l 88 0 m 184 1132 q 250 1279 184 1222 q 429 1337 316 1337 q 607 1279 541 1337 q 673 1132 673 1222 l 527 1132 q 504 1193 527 1166 q 429 1220 481 1220 q 353 1193 375 1220 q 331 1132 330 1166 l 184 1132 z "},"Ȩ":{"ha":851,"x_min":88,"x_max":770,"o":"m 88 0 l 88 1010 l 768 1010 l 768 834 l 301 834 l 301 593 l 733 593 l 733 417 l 301 417 l 301 176 l 770 176 l 770 0 l 88 0 m 379 4 l 475 4 l 468 -39 q 551 -77 518 -47 q 583 -159 583 -107 q 515 -276 584 -232 q 323 -320 447 -320 l 321 -226 q 418 -211 383 -226 q 455 -164 454 -196 q 432 -118 456 -134 q 357 -96 408 -103 l 379 4 z "},"Ḕ":{"ha":851,"x_min":88,"x_max":770,"o":"m 88 0 l 88 1010 l 768 1010 l 768 834 l 301 834 l 301 593 l 733 593 l 733 417 l 301 417 l 301 176 l 770 176 l 770 0 l 88 0 m 360 1323 l 190 1497 l 380 1497 l 518 1323 l 360 1323 m 670 1240 l 670 1126 l 189 1126 l 189 1240 l 670 1240 z "},"Ḗ":{"ha":851,"x_min":88,"x_max":770,"o":"m 88 0 l 88 1010 l 768 1010 l 768 834 l 301 834 l 301 593 l 733 593 l 733 417 l 301 417 l 301 176 l 770 176 l 770 0 l 88 0 m 342 1323 l 479 1497 l 669 1497 l 500 1323 l 342 1323 m 670 1240 l 670 1126 l 189 1126 l 189 1240 l 670 1240 z "},"Ḙ":{"ha":851,"x_min":88,"x_max":770,"o":"m 88 0 l 88 1010 l 768 1010 l 768 834 l 301 834 l 301 593 l 733 593 l 733 417 l 301 417 l 301 176 l 770 176 l 770 0 l 88 0 m 525 -287 l 426 -167 l 327 -287 l 147 -287 l 147 -280 l 348 -63 l 504 -63 l 704 -280 l 704 -287 l 525 -287 z "},"Ḛ":{"ha":851,"x_min":88,"x_max":770,"o":"m 88 0 l 88 1010 l 768 1010 l 768 834 l 301 834 l 301 593 l 733 593 l 733 417 l 301 417 l 301 176 l 770 176 l 770 0 l 88 0 m 311 -271 l 194 -269 q 241 -125 194 -175 q 355 -74 288 -74 q 414 -85 389 -74 q 459 -111 439 -96 q 497 -136 479 -125 q 537 -147 515 -147 q 580 -127 565 -147 q 595 -72 595 -106 l 710 -74 q 663 -218 709 -168 q 550 -269 617 -269 q 488 -258 513 -270 q 444 -233 463 -247 q 408 -207 426 -218 q 368 -196 390 -196 q 327 -216 342 -196 q 311 -271 311 -236 z "},"Ḝ":{"ha":851,"x_min":88,"x_max":770,"o":"m 88 0 l 88 1010 l 768 1010 l 768 834 l 301 834 l 301 593 l 733 593 l 733 417 l 301 417 l 301 176 l 770 176 l 770 0 l 88 0 m 379 4 l 475 4 l 468 -39 q 551 -77 518 -47 q 583 -159 583 -107 q 515 -276 584 -232 q 323 -320 447 -320 l 321 -226 q 418 -211 383 -226 q 455 -164 454 -196 q 432 -118 456 -134 q 357 -96 408 -103 l 379 4 m 527 1274 l 674 1274 q 607 1130 673 1185 q 430 1075 542 1075 q 252 1130 317 1075 q 186 1274 186 1185 l 331 1274 q 353 1213 331 1240 q 430 1186 376 1186 q 505 1213 482 1186 q 527 1274 527 1239 z "},"Ẹ":{"ha":851,"x_min":88,"x_max":770,"o":"m 88 0 l 88 1010 l 768 1010 l 768 834 l 301 834 l 301 593 l 733 593 l 733 417 l 301 417 l 301 176 l 770 176 l 770 0 l 88 0 m 426 -284 q 346 -253 379 -284 q 312 -178 312 -221 q 346 -103 312 -134 q 426 -72 379 -72 q 506 -103 473 -72 q 540 -178 540 -134 q 506 -253 540 -221 q 426 -284 473 -284 z "},"Ẻ":{"ha":851,"x_min":88,"x_max":770,"o":"m 88 0 l 88 1010 l 768 1010 l 768 834 l 301 834 l 301 593 l 733 593 l 733 417 l 301 417 l 301 176 l 770 176 l 770 0 l 88 0 m 507 1119 l 351 1119 l 340 1207 q 415 1221 393 1210 q 436 1252 437 1233 q 409 1288 437 1279 q 338 1298 380 1298 l 343 1393 q 544 1357 475 1393 q 612 1259 613 1322 q 580 1191 613 1214 q 507 1162 547 1168 l 507 1119 z "},"Ẽ":{"ha":851,"x_min":88,"x_max":770,"o":"m 88 0 l 88 1010 l 768 1010 l 768 834 l 301 834 l 301 593 l 733 593 l 733 417 l 301 417 l 301 176 l 770 176 l 770 0 l 88 0 m 289 1103 l 172 1105 q 218 1249 172 1199 q 332 1300 265 1300 q 391 1289 366 1300 q 436 1263 416 1278 q 474 1237 456 1248 q 514 1226 493 1226 q 558 1248 543 1227 q 573 1303 573 1269 l 688 1299 q 640 1155 687 1206 q 527 1104 594 1105 q 465 1115 490 1104 q 422 1141 440 1126 q 385 1167 403 1156 q 345 1178 367 1178 q 304 1158 320 1178 q 289 1103 289 1138 z "},"Ế":{"ha":851,"x_min":88,"x_max":911,"o":"m 88 0 l 88 1010 l 768 1010 l 768 834 l 301 834 l 301 593 l 733 593 l 733 417 l 301 417 l 301 176 l 770 176 l 770 0 l 88 0 m 173 1093 l 372 1246 l 485 1246 l 685 1093 l 534 1093 l 430 1176 l 324 1093 l 173 1093 m 633 1180 l 749 1365 l 911 1365 l 752 1180 l 633 1180 z "},"Ề":{"ha":851,"x_min":-52,"x_max":770,"o":"m 88 0 l 88 1010 l 768 1010 l 768 834 l 301 834 l 301 593 l 733 593 l 733 417 l 301 417 l 301 176 l 770 176 l 770 0 l 88 0 m 485 1243 l 686 1090 l 534 1090 l 430 1173 l 325 1090 l 174 1090 l 372 1243 l 485 1243 m 109 1361 l 225 1177 l 108 1177 l -52 1361 l 109 1361 z "},"Ể":{"ha":851,"x_min":88,"x_max":816,"o":"m 88 0 l 88 1010 l 768 1010 l 768 834 l 301 834 l 301 593 l 733 593 l 733 417 l 301 417 l 301 176 l 770 176 l 770 0 l 88 0 m 488 1241 l 683 1088 l 538 1088 l 429 1174 l 318 1088 l 173 1088 l 367 1241 l 488 1241 m 727 1174 l 618 1174 l 609 1248 q 671 1259 652 1250 q 690 1285 690 1268 q 666 1315 690 1308 q 606 1323 642 1323 l 611 1403 q 763 1373 711 1403 q 816 1291 816 1344 q 788 1234 816 1254 q 727 1209 761 1215 l 727 1174 z "},"Ễ":{"ha":851,"x_min":88,"x_max":770,"o":"m 88 0 l 88 1010 l 768 1010 l 768 834 l 301 834 l 301 593 l 733 593 l 733 417 l 301 417 l 301 176 l 770 176 l 770 0 l 88 0 m 486 1237 l 685 1086 l 540 1086 l 429 1168 l 320 1086 l 173 1086 l 373 1237 l 486 1237 m 537 1405 l 610 1380 q 584 1306 610 1340 q 516 1273 559 1273 q 474 1279 493 1273 q 437 1295 454 1286 q 404 1310 420 1304 q 368 1316 387 1316 q 342 1302 352 1316 q 332 1270 332 1288 l 261 1289 q 286 1361 261 1328 q 354 1394 311 1394 q 392 1388 373 1394 q 429 1373 410 1381 q 466 1359 448 1365 q 502 1352 484 1352 q 527 1369 517 1352 q 537 1405 537 1386 z "},"Ệ":{"ha":851,"x_min":88,"x_max":770,"o":"m 88 0 l 88 1010 l 768 1010 l 768 834 l 301 834 l 301 593 l 733 593 l 733 417 l 301 417 l 301 176 l 770 176 l 770 0 l 88 0 m 529 1101 l 430 1221 l 330 1101 l 151 1101 l 151 1108 l 351 1325 l 508 1325 l 708 1108 l 708 1101 l 529 1101 m 426 -284 q 346 -253 379 -284 q 312 -178 312 -221 q 346 -103 312 -134 q 426 -72 379 -72 q 506 -103 473 -72 q 540 -178 540 -134 q 506 -253 540 -221 q 426 -284 473 -284 z "},"Ɇ":{"ha":851,"x_min":88,"x_max":770,"o":"m 696 1138 l 331 -128 l 219 -128 l 584 1138 l 696 1138 m 88 0 l 88 1010 l 768 1010 l 768 834 l 301 834 l 301 593 l 733 593 l 733 417 l 301 417 l 301 176 l 770 176 l 770 0 l 88 0 z "},"Ǝ":{"ha":851,"x_min":80,"x_max":763,"o":"m 763 1010 l 763 0 l 82 0 l 82 176 l 549 176 l 549 417 l 117 417 l 117 593 l 549 593 l 549 834 l 80 834 l 80 1010 l 763 1010 z "},"Ε":{"ha":851,"x_min":88,"x_max":770,"o":"m 88 0 l 88 1010 l 768 1010 l 768 834 l 301 834 l 301 593 l 733 593 l 733 417 l 301 417 l 301 176 l 770 176 l 770 0 l 88 0 z "},"Έ":{"ha":1090,"x_min":66,"x_max":1010,"o":"m 327 0 l 327 1010 l 1008 1010 l 1008 834 l 541 834 l 541 593 l 973 593 l 973 417 l 541 417 l 541 176 l 1010 176 l 1010 0 l 327 0 m 66 848 l 118 1083 l 306 1083 l 189 848 l 66 848 z "},"Ἐ":{"ha":1053,"x_min":38,"x_max":972,"o":"m 290 0 l 290 1010 l 970 1010 l 970 834 l 503 834 l 503 593 l 935 593 l 935 417 l 503 417 l 503 176 l 972 176 l 972 0 l 290 0 m 212 1010 l 212 945 q 197 868 212 903 q 156 807 182 833 q 97 765 130 781 l 38 827 q 71 860 59 841 q 88 900 83 878 q 93 949 93 923 l 93 1010 l 212 1010 z "},"Ἑ":{"ha":1054,"x_min":64,"x_max":974,"o":"m 291 0 l 291 1010 l 972 1010 l 972 834 l 505 834 l 505 593 l 937 593 l 937 417 l 505 417 l 505 176 l 974 176 l 974 0 l 291 0 m 64 945 l 64 1010 l 183 1010 l 183 949 q 188 903 184 926 q 204 861 193 881 q 237 827 216 842 l 179 765 q 97 836 130 789 q 64 945 64 882 z "},"Ἒ":{"ha":1320,"x_min":62,"x_max":1240,"o":"m 557 0 l 557 1010 l 1237 1010 l 1237 834 l 770 834 l 770 593 l 1202 593 l 1202 417 l 770 417 l 770 176 l 1239 176 l 1239 0 l 557 0 m 504 793 l 504 783 l 438 783 l 278 998 l 278 1012 l 424 1012 l 504 793 m 246 1012 l 246 956 q 231 882 246 917 q 187 818 216 847 q 117 767 158 789 l 63 808 q 105 876 90 839 q 119 960 119 912 l 119 1012 l 246 1012 z "},"Ἓ":{"ha":1279,"x_min":60,"x_max":1199,"o":"m 516 0 l 516 1010 l 1197 1010 l 1197 834 l 730 834 l 730 593 l 1162 593 l 1162 417 l 730 417 l 730 176 l 1199 176 l 1199 0 l 516 0 m 462 796 l 462 780 l 397 780 l 236 996 l 236 1010 l 385 1010 l 462 796 m 60 945 l 60 1010 l 181 1010 l 181 949 q 191 882 181 914 q 235 827 202 849 l 177 765 q 93 836 126 789 q 60 945 60 882 z "},"Ἔ":{"ha":1293,"x_min":65,"x_max":1213,"o":"m 530 0 l 530 1010 l 1211 1010 l 1211 834 l 744 834 l 744 593 l 1176 593 l 1176 417 l 744 417 l 744 176 l 1213 176 l 1213 0 l 530 0 m 260 780 l 260 796 l 340 1010 l 487 1010 l 487 996 l 326 780 l 260 780 m 240 1010 l 240 945 q 225 869 240 904 q 183 808 210 834 q 123 765 157 781 l 65 827 q 108 882 98 849 q 119 949 119 914 l 119 1010 l 240 1010 z "},"Ἕ":{"ha":1312,"x_min":64,"x_max":1232,"o":"m 549 0 l 549 1010 l 1230 1010 l 1230 834 l 763 834 l 763 593 l 1195 593 l 1195 417 l 763 417 l 763 176 l 1232 176 l 1232 0 l 549 0 m 275 780 l 275 796 l 351 1010 l 500 1010 l 500 996 l 338 780 l 275 780 m 178 765 q 97 834 131 788 q 64 945 64 880 l 64 1010 l 183 1010 l 183 949 q 195 879 183 909 q 236 827 206 848 l 178 765 z "},"Ὲ":{"ha":1109,"x_min":62,"x_max":1029,"o":"m 346 0 l 346 1010 l 1026 1010 l 1026 834 l 559 834 l 559 593 l 991 593 l 991 417 l 559 417 l 559 176 l 1028 176 l 1028 0 l 346 0 m 223 779 l 62 996 l 62 1010 l 209 1010 l 286 798 l 286 779 l 223 779 z "},"Έ":{"ha":1093,"x_min":73,"x_max":1013,"o":"m 330 0 l 330 1010 l 1011 1010 l 1011 834 l 544 834 l 544 593 l 976 593 l 976 417 l 544 417 l 544 176 l 1013 176 l 1013 0 l 330 0 m 73 852 l 73 871 l 150 1083 l 338 1083 l 338 1069 l 178 852 l 73 852 z "},"Е":{"ha":851,"x_min":88,"x_max":770,"o":"m 88 0 l 88 1010 l 768 1010 l 768 834 l 301 834 l 301 593 l 733 593 l 733 417 l 301 417 l 301 176 l 770 176 l 770 0 l 88 0 z "},"Ѐ":{"ha":851,"x_min":88,"x_max":770,"o":"m 88 0 l 88 1010 l 768 1010 l 768 834 l 301 834 l 301 593 l 733 593 l 733 417 l 301 417 l 301 176 l 770 176 l 770 0 l 88 0 m 357 1108 l 207 1332 l 400 1332 l 506 1108 l 357 1108 z "},"Ё":{"ha":851,"x_min":88,"x_max":770,"o":"m 88 0 l 88 1010 l 768 1010 l 768 834 l 301 834 l 301 593 l 733 593 l 733 417 l 301 417 l 301 176 l 770 176 l 770 0 l 88 0 m 279 1114 q 206 1144 237 1114 q 176 1214 176 1173 q 206 1285 176 1256 q 279 1314 237 1314 q 352 1285 322 1314 q 382 1214 382 1256 q 352 1144 382 1173 q 279 1114 322 1114 m 581 1114 q 508 1144 539 1114 q 477 1214 477 1173 q 508 1285 477 1256 q 581 1314 539 1314 q 654 1285 624 1314 q 684 1214 684 1256 q 654 1144 684 1173 q 581 1114 624 1114 z "},"Ӗ":{"ha":851,"x_min":88,"x_max":770,"o":"m 88 0 l 88 1010 l 768 1010 l 768 834 l 301 834 l 301 593 l 733 593 l 733 417 l 301 417 l 301 176 l 770 176 l 770 0 l 88 0 m 527 1274 l 674 1274 q 607 1130 673 1185 q 430 1075 542 1075 q 252 1130 317 1075 q 186 1274 186 1185 l 331 1274 q 353 1213 331 1240 q 430 1186 376 1186 q 505 1213 482 1186 q 527 1274 527 1239 z "},"F":{"ha":812,"x_min":88,"x_max":757,"o":"m 88 0 l 88 1010 l 757 1010 l 757 834 l 301 834 l 301 593 l 712 593 l 712 417 l 301 417 l 301 0 l 88 0 z "},"Ƒ":{"ha":843,"x_min":-29,"x_max":787,"o":"m 119 0 l 332 0 l 332 -46 q 310 -166 332 -120 q 250 -239 288 -213 q 162 -274 212 -264 q 58 -284 113 -284 q 18 -284 43 -284 q -29 -279 -6 -283 l -29 -118 q -7 -120 -19 -120 q 14 -120 5 -120 q 87 -105 56 -120 q 119 -46 119 -90 l 119 0 m 119 0 l 119 1010 l 787 1010 l 787 834 l 332 834 l 332 593 l 743 593 l 743 417 l 332 417 l 332 0 l 119 0 z "},"Ḟ":{"ha":812,"x_min":88,"x_max":757,"o":"m 88 0 l 88 1010 l 757 1010 l 757 834 l 301 834 l 301 593 l 712 593 l 712 417 l 301 417 l 301 0 l 88 0 m 429 1108 q 348 1139 382 1108 q 315 1214 315 1170 q 348 1289 315 1258 q 428 1320 382 1320 q 509 1289 475 1320 q 542 1214 542 1258 q 509 1139 542 1170 q 429 1108 475 1108 z "},"Ⅎ":{"ha":812,"x_min":56,"x_max":725,"o":"m 725 1010 l 725 0 l 56 0 l 56 176 l 511 176 l 511 417 l 100 417 l 100 593 l 511 593 l 511 1010 l 725 1010 z "},"G":{"ha":1056,"x_min":70,"x_max":984,"o":"m 758 684 q 728 747 747 720 q 683 795 710 775 q 622 825 656 814 q 546 835 587 835 q 410 797 469 835 q 319 685 352 758 q 287 506 287 612 q 319 327 287 400 q 409 214 351 253 q 548 175 468 175 q 672 201 620 175 q 751 274 724 227 q 778 386 778 322 l 822 380 l 561 380 l 561 541 l 984 541 l 984 413 q 928 185 984 280 q 773 38 872 89 q 547 -14 674 -14 q 297 49 405 -14 q 130 228 190 112 q 70 504 70 344 q 106 723 70 627 q 206 887 142 820 q 357 989 271 954 q 543 1024 442 1024 q 702 999 628 1024 q 834 929 776 974 q 928 821 891 883 q 975 684 964 759 l 758 684 z "},"Ǥ":{"ha":1056,"x_min":70,"x_max":1031,"o":"m 1031 327 l 1031 251 l 561 251 l 561 327 l 1031 327 m 758 684 q 728 747 747 720 q 683 795 710 775 q 622 825 656 814 q 546 835 587 835 q 410 797 469 835 q 319 685 352 758 q 287 506 287 612 q 319 327 287 400 q 409 214 351 253 q 548 175 468 175 q 672 201 620 175 q 751 274 724 227 q 778 386 778 322 l 822 380 l 561 380 l 561 541 l 984 541 l 984 413 q 928 185 984 280 q 773 38 872 89 q 547 -14 674 -14 q 297 49 405 -14 q 130 228 190 112 q 70 504 70 344 q 106 723 70 627 q 206 887 142 820 q 357 989 271 954 q 543 1024 442 1024 q 702 999 628 1024 q 834 929 776 974 q 928 821 891 883 q 975 684 964 759 l 758 684 z "},"Ɠ":{"ha":1159,"x_min":70,"x_max":1163,"o":"m 974 684 l 756 684 l 757 837 q 782 955 758 904 q 849 1040 807 1006 q 947 1093 892 1075 q 1064 1111 1002 1111 q 1113 1108 1089 1111 q 1163 1099 1137 1105 l 1163 932 q 1134 935 1149 933 q 1104 937 1119 937 q 1040 929 1070 937 q 992 900 1010 922 q 974 837 974 879 l 974 684 m 758 684 q 728 747 747 720 q 683 795 710 775 q 622 825 656 814 q 546 835 587 835 q 410 797 469 835 q 319 685 352 758 q 287 506 287 612 q 319 327 287 400 q 409 214 351 253 q 548 175 468 175 q 672 201 620 175 q 751 274 724 227 q 778 386 778 322 l 822 380 l 561 380 l 561 541 l 984 541 l 984 413 q 928 185 984 280 q 773 38 872 89 q 547 -14 674 -14 q 297 49 405 -14 q 130 228 190 112 q 70 504 70 344 q 106 723 70 627 q 206 887 142 820 q 357 989 271 954 q 543 1024 442 1024 q 702 999 628 1024 q 834 929 776 974 q 928 821 891 883 q 975 684 964 759 l 758 684 z "},"Ĝ":{"ha":1056,"x_min":70,"x_max":984,"o":"m 758 684 q 728 747 747 720 q 683 795 710 775 q 622 825 656 814 q 546 835 587 835 q 410 797 469 835 q 319 685 352 758 q 287 506 287 612 q 319 327 287 400 q 409 214 351 253 q 548 175 468 175 q 672 201 620 175 q 751 274 724 227 q 778 386 778 322 l 822 380 l 561 380 l 561 541 l 984 541 l 984 413 q 928 185 984 280 q 773 38 872 89 q 547 -14 674 -14 q 297 49 405 -14 q 130 228 190 112 q 70 504 70 344 q 106 723 70 627 q 206 887 142 820 q 357 989 271 954 q 543 1024 442 1024 q 702 999 628 1024 q 834 929 776 974 q 928 821 891 883 q 975 684 964 759 l 758 684 m 637 1101 l 538 1221 l 439 1101 l 260 1101 l 260 1108 l 460 1325 l 616 1325 l 816 1108 l 816 1101 l 637 1101 z "},"Ğ":{"ha":1056,"x_min":70,"x_max":984,"o":"m 758 684 q 728 747 747 720 q 683 795 710 775 q 622 825 656 814 q 546 835 587 835 q 410 797 469 835 q 319 685 352 758 q 287 506 287 612 q 319 327 287 400 q 409 214 351 253 q 548 175 468 175 q 672 201 620 175 q 751 274 724 227 q 778 386 778 322 l 822 380 l 561 380 l 561 541 l 984 541 l 984 413 q 928 185 984 280 q 773 38 872 89 q 547 -14 674 -14 q 297 49 405 -14 q 130 228 190 112 q 70 504 70 344 q 106 723 70 627 q 206 887 142 820 q 357 989 271 954 q 543 1024 442 1024 q 702 999 628 1024 q 834 929 776 974 q 928 821 891 883 q 975 684 964 759 l 758 684 m 636 1274 l 782 1274 q 716 1130 782 1185 q 538 1075 650 1075 q 360 1130 426 1075 q 294 1274 294 1185 l 440 1274 q 462 1213 439 1240 q 538 1186 484 1186 q 613 1213 590 1186 q 636 1274 636 1239 z "},"Ġ":{"ha":1056,"x_min":70,"x_max":984,"o":"m 758 684 q 728 747 747 720 q 683 795 710 775 q 622 825 656 814 q 546 835 587 835 q 410 797 469 835 q 319 685 352 758 q 287 506 287 612 q 319 327 287 400 q 409 214 351 253 q 548 175 468 175 q 672 201 620 175 q 751 274 724 227 q 778 386 778 322 l 822 380 l 561 380 l 561 541 l 984 541 l 984 413 q 928 185 984 280 q 773 38 872 89 q 547 -14 674 -14 q 297 49 405 -14 q 130 228 190 112 q 70 504 70 344 q 106 723 70 627 q 206 887 142 820 q 357 989 271 954 q 543 1024 442 1024 q 702 999 628 1024 q 834 929 776 974 q 928 821 891 883 q 975 684 964 759 l 758 684 m 538 1108 q 458 1139 491 1108 q 424 1214 424 1170 q 458 1289 424 1258 q 538 1320 491 1320 q 618 1289 585 1320 q 652 1214 652 1258 q 618 1139 652 1170 q 538 1108 585 1108 z "},"Ģ":{"ha":1056,"x_min":70,"x_max":984,"o":"m 758 684 q 728 747 747 720 q 683 795 710 775 q 622 825 656 814 q 546 835 587 835 q 410 797 469 835 q 319 685 352 758 q 287 506 287 612 q 319 327 287 400 q 409 214 351 253 q 548 175 468 175 q 672 201 620 175 q 751 274 724 227 q 778 386 778 322 l 822 380 l 561 380 l 561 541 l 984 541 l 984 413 q 928 185 984 280 q 773 38 872 89 q 547 -14 674 -14 q 297 49 405 -14 q 130 228 190 112 q 70 504 70 344 q 106 723 70 627 q 206 887 142 820 q 357 989 271 954 q 543 1024 442 1024 q 702 999 628 1024 q 834 929 776 974 q 928 821 891 883 q 975 684 964 759 l 758 684 m 379 -321 l 440 -77 l 634 -77 l 526 -321 l 379 -321 z "},"Ǧ":{"ha":1056,"x_min":70,"x_max":984,"o":"m 758 684 q 728 747 747 720 q 683 795 710 775 q 622 825 656 814 q 546 835 587 835 q 410 797 469 835 q 319 685 352 758 q 287 506 287 612 q 319 327 287 400 q 409 214 351 253 q 548 175 468 175 q 672 201 620 175 q 751 274 724 227 q 778 386 778 322 l 822 380 l 561 380 l 561 541 l 984 541 l 984 413 q 928 185 984 280 q 773 38 872 89 q 547 -14 674 -14 q 297 49 405 -14 q 130 228 190 112 q 70 504 70 344 q 106 723 70 627 q 206 887 142 820 q 357 989 271 954 q 543 1024 442 1024 q 702 999 628 1024 q 834 929 776 974 q 928 821 891 883 q 975 684 964 759 l 758 684 m 439 1325 l 538 1204 l 637 1325 l 816 1325 l 816 1318 l 616 1101 l 460 1101 l 260 1318 l 260 1325 l 439 1325 z "},"Ǵ":{"ha":1056,"x_min":70,"x_max":984,"o":"m 758 684 q 728 747 747 720 q 683 795 710 775 q 622 825 656 814 q 546 835 587 835 q 410 797 469 835 q 319 685 352 758 q 287 506 287 612 q 319 327 287 400 q 409 214 351 253 q 548 175 468 175 q 672 201 620 175 q 751 274 724 227 q 778 386 778 322 l 822 380 l 561 380 l 561 541 l 984 541 l 984 413 q 928 185 984 280 q 773 38 872 89 q 547 -14 674 -14 q 297 49 405 -14 q 130 228 190 112 q 70 504 70 344 q 106 723 70 627 q 206 887 142 820 q 357 989 271 954 q 543 1024 442 1024 q 702 999 628 1024 q 834 929 776 974 q 928 821 891 883 q 975 684 964 759 l 758 684 m 462 1108 l 567 1332 l 761 1332 l 611 1108 l 462 1108 z "},"Ḡ":{"ha":1056,"x_min":70,"x_max":984,"o":"m 758 684 q 728 747 747 720 q 683 795 710 775 q 622 825 656 814 q 546 835 587 835 q 410 797 469 835 q 319 685 352 758 q 287 506 287 612 q 319 327 287 400 q 409 214 351 253 q 548 175 468 175 q 672 201 620 175 q 751 274 724 227 q 778 386 778 322 l 822 380 l 561 380 l 561 541 l 984 541 l 984 413 q 928 185 984 280 q 773 38 872 89 q 547 -14 674 -14 q 297 49 405 -14 q 130 228 190 112 q 70 504 70 344 q 106 723 70 627 q 206 887 142 820 q 357 989 271 954 q 543 1024 442 1024 q 702 999 628 1024 q 834 929 776 974 q 928 821 891 883 q 975 684 964 759 l 758 684 m 778 1263 l 778 1149 l 297 1149 l 297 1263 l 778 1263 z "},"":{"ha":1065,"x_min":70,"x_max":993,"o":"m 547 -14 q 298 49 405 -14 q 130 228 190 112 q 70 504 70 344 q 107 723 70 627 q 208 887 143 820 q 361 989 274 954 q 547 1024 447 1024 q 708 999 633 1024 q 841 929 782 974 q 937 821 900 884 q 984 684 974 759 l 768 684 q 739 747 758 720 q 691 795 719 775 q 627 825 662 814 q 550 835 592 835 q 414 797 473 835 q 320 685 354 758 q 287 506 287 612 q 319 327 287 400 q 410 214 351 253 q 548 175 469 175 q 674 202 622 175 q 754 277 727 229 q 782 388 782 325 l 823 380 l 561 380 l 561 541 l 993 541 l 993 0 l 847 0 l 835 115 l 829 115 q 709 20 778 54 q 547 -14 640 -14 z "},"":{"ha":1066,"x_min":70,"x_max":1041,"o":"m 1041 327 l 1041 251 l 561 251 l 561 327 l 1041 327 m 547 -14 q 298 49 405 -14 q 130 228 190 112 q 70 504 70 344 q 107 723 70 627 q 208 887 143 820 q 361 989 274 954 q 547 1024 447 1024 q 708 999 633 1024 q 841 929 782 974 q 937 821 900 884 q 984 684 974 759 l 768 684 q 739 747 758 720 q 691 795 719 775 q 627 825 662 814 q 550 835 592 835 q 414 797 473 835 q 320 685 354 758 q 287 506 287 612 q 319 327 287 400 q 410 214 351 253 q 548 175 469 175 q 674 202 622 175 q 754 277 727 229 q 782 388 782 325 l 823 380 l 561 380 l 561 541 l 993 541 l 993 0 l 847 0 l 835 115 l 829 115 q 709 20 778 54 q 547 -14 640 -14 z "},"":{"ha":1159,"x_min":70,"x_max":1174,"o":"m 984 684 l 766 684 l 768 837 q 793 955 769 904 q 860 1040 817 1006 q 958 1093 903 1075 q 1075 1111 1013 1111 q 1124 1108 1100 1111 q 1174 1099 1148 1105 l 1174 932 q 1145 935 1160 933 q 1115 937 1130 937 q 1051 929 1081 937 q 1003 900 1021 922 q 984 837 984 879 l 984 684 m 547 -14 q 298 49 405 -14 q 130 228 190 112 q 70 504 70 344 q 107 723 70 627 q 208 887 143 820 q 361 989 274 954 q 547 1024 447 1024 q 708 999 633 1024 q 841 929 782 974 q 937 821 900 884 q 984 684 974 759 l 768 684 q 739 747 758 720 q 691 795 719 775 q 627 825 662 814 q 550 835 592 835 q 414 797 473 835 q 320 685 354 758 q 287 506 287 612 q 319 327 287 400 q 410 214 351 253 q 548 175 469 175 q 674 202 622 175 q 754 277 727 229 q 782 388 782 325 l 823 380 l 561 380 l 561 541 l 993 541 l 993 0 l 847 0 l 835 115 l 829 115 q 709 20 778 54 q 547 -14 640 -14 z "},"":{"ha":1065,"x_min":70,"x_max":993,"o":"m 547 -14 q 298 49 405 -14 q 130 228 190 112 q 70 504 70 344 q 107 723 70 627 q 208 887 143 820 q 361 989 274 954 q 547 1024 447 1024 q 708 999 633 1024 q 841 929 782 974 q 937 821 900 884 q 984 684 974 759 l 768 684 q 739 747 758 720 q 691 795 719 775 q 627 825 662 814 q 550 835 592 835 q 414 797 473 835 q 320 685 354 758 q 287 506 287 612 q 319 327 287 400 q 410 214 351 253 q 548 175 469 175 q 674 202 622 175 q 754 277 727 229 q 782 388 782 325 l 823 380 l 561 380 l 561 541 l 993 541 l 993 0 l 847 0 l 835 115 l 829 115 q 709 20 778 54 q 547 -14 640 -14 m 637 1101 l 538 1221 l 439 1101 l 260 1101 l 260 1108 l 460 1325 l 616 1325 l 816 1108 l 816 1101 l 637 1101 z "},"":{"ha":1065,"x_min":70,"x_max":993,"o":"m 547 -14 q 298 49 405 -14 q 130 228 190 112 q 70 504 70 344 q 107 723 70 627 q 208 887 143 820 q 361 989 274 954 q 547 1024 447 1024 q 708 999 633 1024 q 841 929 782 974 q 937 821 900 884 q 984 684 974 759 l 768 684 q 739 747 758 720 q 691 795 719 775 q 627 825 662 814 q 550 835 592 835 q 414 797 473 835 q 320 685 354 758 q 287 506 287 612 q 319 327 287 400 q 410 214 351 253 q 548 175 469 175 q 674 202 622 175 q 754 277 727 229 q 782 388 782 325 l 823 380 l 561 380 l 561 541 l 993 541 l 993 0 l 847 0 l 835 115 l 829 115 q 709 20 778 54 q 547 -14 640 -14 m 636 1274 l 782 1274 q 716 1130 782 1185 q 538 1075 650 1075 q 360 1130 426 1075 q 294 1274 294 1185 l 440 1274 q 462 1213 439 1240 q 538 1186 484 1186 q 613 1213 590 1186 q 636 1274 636 1239 z "},"":{"ha":1065,"x_min":70,"x_max":993,"o":"m 547 -14 q 298 49 405 -14 q 130 228 190 112 q 70 504 70 344 q 107 723 70 627 q 208 887 143 820 q 361 989 274 954 q 547 1024 447 1024 q 708 999 633 1024 q 841 929 782 974 q 937 821 900 884 q 984 684 974 759 l 768 684 q 739 747 758 720 q 691 795 719 775 q 627 825 662 814 q 550 835 592 835 q 414 797 473 835 q 320 685 354 758 q 287 506 287 612 q 319 327 287 400 q 410 214 351 253 q 548 175 469 175 q 674 202 622 175 q 754 277 727 229 q 782 388 782 325 l 823 380 l 561 380 l 561 541 l 993 541 l 993 0 l 847 0 l 835 115 l 829 115 q 709 20 778 54 q 547 -14 640 -14 m 538 1108 q 458 1139 491 1108 q 424 1214 424 1170 q 458 1289 424 1258 q 538 1320 491 1320 q 618 1289 585 1320 q 652 1214 652 1258 q 618 1139 652 1170 q 538 1108 585 1108 z "},"":{"ha":1065,"x_min":70,"x_max":993,"o":"m 547 -14 q 298 49 405 -14 q 130 228 190 112 q 70 504 70 344 q 107 723 70 627 q 208 887 143 820 q 361 989 274 954 q 547 1024 447 1024 q 708 999 633 1024 q 841 929 782 974 q 937 821 900 884 q 984 684 974 759 l 768 684 q 739 747 758 720 q 691 795 719 775 q 627 825 662 814 q 550 835 592 835 q 414 797 473 835 q 320 685 354 758 q 287 506 287 612 q 319 327 287 400 q 410 214 351 253 q 548 175 469 175 q 674 202 622 175 q 754 277 727 229 q 782 388 782 325 l 823 380 l 561 380 l 561 541 l 993 541 l 993 0 l 847 0 l 835 115 l 829 115 q 709 20 778 54 q 547 -14 640 -14 m 379 -321 l 440 -77 l 634 -77 l 526 -321 l 379 -321 z "},"":{"ha":1065,"x_min":70,"x_max":993,"o":"m 547 -14 q 298 49 405 -14 q 130 228 190 112 q 70 504 70 344 q 107 723 70 627 q 208 887 143 820 q 361 989 274 954 q 547 1024 447 1024 q 708 999 633 1024 q 841 929 782 974 q 937 821 900 884 q 984 684 974 759 l 768 684 q 739 747 758 720 q 691 795 719 775 q 627 825 662 814 q 550 835 592 835 q 414 797 473 835 q 320 685 354 758 q 287 506 287 612 q 319 327 287 400 q 410 214 351 253 q 548 175 469 175 q 674 202 622 175 q 754 277 727 229 q 782 388 782 325 l 823 380 l 561 380 l 561 541 l 993 541 l 993 0 l 847 0 l 835 115 l 829 115 q 709 20 778 54 q 547 -14 640 -14 m 439 1325 l 538 1204 l 637 1325 l 816 1325 l 816 1318 l 616 1101 l 460 1101 l 260 1318 l 260 1325 l 439 1325 z "},"":{"ha":1065,"x_min":70,"x_max":993,"o":"m 547 -14 q 298 49 405 -14 q 130 228 190 112 q 70 504 70 344 q 107 723 70 627 q 208 887 143 820 q 361 989 274 954 q 547 1024 447 1024 q 708 999 633 1024 q 841 929 782 974 q 937 821 900 884 q 984 684 974 759 l 768 684 q 739 747 758 720 q 691 795 719 775 q 627 825 662 814 q 550 835 592 835 q 414 797 473 835 q 320 685 354 758 q 287 506 287 612 q 319 327 287 400 q 410 214 351 253 q 548 175 469 175 q 674 202 622 175 q 754 277 727 229 q 782 388 782 325 l 823 380 l 561 380 l 561 541 l 993 541 l 993 0 l 847 0 l 835 115 l 829 115 q 709 20 778 54 q 547 -14 640 -14 m 462 1108 l 567 1332 l 761 1332 l 611 1108 l 462 1108 z "},"":{"ha":1065,"x_min":70,"x_max":993,"o":"m 547 -14 q 298 49 405 -14 q 130 228 190 112 q 70 504 70 344 q 107 723 70 627 q 208 887 143 820 q 361 989 274 954 q 547 1024 447 1024 q 708 999 633 1024 q 841 929 782 974 q 937 821 900 884 q 984 684 974 759 l 768 684 q 739 747 758 720 q 691 795 719 775 q 627 825 662 814 q 550 835 592 835 q 414 797 473 835 q 320 685 354 758 q 287 506 287 612 q 319 327 287 400 q 410 214 351 253 q 548 175 469 175 q 674 202 622 175 q 754 277 727 229 q 782 388 782 325 l 823 380 l 561 380 l 561 541 l 993 541 l 993 0 l 847 0 l 835 115 l 829 115 q 709 20 778 54 q 547 -14 640 -14 m 778 1263 l 778 1149 l 297 1149 l 297 1263 l 778 1263 z "},"H":{"ha":1036,"x_min":88,"x_max":948,"o":"m 88 0 l 88 1010 l 301 1010 l 301 593 l 735 593 l 735 1010 l 948 1010 l 948 0 l 735 0 l 735 417 l 301 417 l 301 0 l 88 0 z "},"Ḩ":{"ha":1036,"x_min":88,"x_max":948,"o":"m 88 0 l 88 1010 l 301 1010 l 301 593 l 735 593 l 735 1010 l 948 1010 l 948 0 l 735 0 l 735 417 l 301 417 l 301 0 l 88 0 m 148 3 l 245 3 l 237 -40 q 320 -78 288 -48 q 353 -160 352 -108 q 285 -277 353 -233 q 92 -321 216 -321 l 90 -227 q 188 -212 152 -227 q 224 -165 223 -197 q 201 -119 225 -135 q 126 -97 177 -104 l 148 3 z "},"Ĥ":{"ha":1036,"x_min":88,"x_max":948,"o":"m 88 0 l 88 1010 l 301 1010 l 301 593 l 735 593 l 735 1010 l 948 1010 l 948 0 l 735 0 l 735 417 l 301 417 l 301 0 l 88 0 m 619 1102 l 520 1222 l 421 1102 l 242 1102 l 242 1109 l 442 1326 l 598 1326 l 799 1109 l 799 1102 l 619 1102 z "},"Ȟ":{"ha":1036,"x_min":88,"x_max":948,"o":"m 88 0 l 88 1010 l 301 1010 l 301 593 l 735 593 l 735 1010 l 948 1010 l 948 0 l 735 0 l 735 417 l 301 417 l 301 0 l 88 0 m 421 1326 l 520 1205 l 619 1326 l 799 1326 l 799 1319 l 598 1102 l 442 1102 l 242 1319 l 242 1326 l 421 1326 z "},"Ḣ":{"ha":1036,"x_min":88,"x_max":948,"o":"m 88 0 l 88 1010 l 301 1010 l 301 593 l 735 593 l 735 1010 l 948 1010 l 948 0 l 735 0 l 735 417 l 301 417 l 301 0 l 88 0 m 520 1109 q 440 1140 473 1109 q 406 1215 406 1171 q 440 1290 406 1259 q 520 1321 473 1321 q 600 1290 567 1321 q 634 1215 634 1259 q 600 1140 634 1171 q 520 1109 567 1109 z "},"Ḥ":{"ha":1036,"x_min":88,"x_max":948,"o":"m 88 0 l 88 1010 l 301 1010 l 301 593 l 735 593 l 735 1010 l 948 1010 l 948 0 l 735 0 l 735 417 l 301 417 l 301 0 l 88 0 m 518 -284 q 437 -253 471 -284 q 404 -178 404 -221 q 437 -103 404 -134 q 518 -72 471 -72 q 598 -103 565 -72 q 631 -178 631 -134 q 598 -253 631 -221 q 518 -284 565 -284 z "},"Ḧ":{"ha":1036,"x_min":88,"x_max":948,"o":"m 88 0 l 88 1010 l 301 1010 l 301 593 l 735 593 l 735 1010 l 948 1010 l 948 0 l 735 0 l 735 417 l 301 417 l 301 0 l 88 0 m 370 1115 q 297 1145 327 1115 q 266 1215 266 1174 q 297 1286 266 1257 q 370 1315 327 1315 q 443 1286 413 1315 q 472 1215 472 1257 q 443 1145 472 1174 q 370 1115 413 1115 m 672 1115 q 599 1145 629 1115 q 568 1215 568 1174 q 599 1286 568 1257 q 672 1315 629 1315 q 745 1286 715 1315 q 774 1215 774 1257 q 745 1145 774 1174 q 672 1115 715 1115 z "},"Ḫ":{"ha":1036,"x_min":88,"x_max":948,"o":"m 88 0 l 88 1010 l 301 1010 l 301 593 l 735 593 l 735 1010 l 948 1010 l 948 0 l 735 0 l 735 417 l 301 417 l 301 0 l 88 0 m 618 -56 l 763 -56 q 732 -161 762 -115 q 648 -234 703 -208 q 518 -260 593 -260 q 341 -203 408 -260 q 275 -56 275 -146 l 420 -56 q 442 -118 420 -90 q 518 -145 465 -145 q 594 -117 571 -145 q 618 -56 617 -89 z "},"Ħ":{"ha":1126,"x_min":49,"x_max":1076,"o":"m 1076 835 l 1076 716 l 49 716 l 49 835 l 1076 835 m 133 0 l 133 1010 l 346 1010 l 346 593 l 779 593 l 779 1010 l 993 1010 l 993 0 l 779 0 l 779 417 l 346 417 l 346 0 l 133 0 z "},"Ӈ":{"ha":1036,"x_min":88,"x_max":948,"o":"m 735 0 l 948 0 l 948 -49 q 942 -111 948 -77 q 917 -178 936 -145 q 864 -239 899 -211 q 771 -283 828 -266 q 628 -299 714 -299 q 581 -297 605 -299 q 551 -293 558 -295 l 551 -123 q 580 -126 562 -124 q 611 -127 598 -127 q 670 -120 642 -127 q 717 -93 698 -112 q 735 -36 735 -73 l 735 0 m 88 0 l 88 1010 l 301 1010 l 301 593 l 735 593 l 735 1010 l 948 1010 l 948 0 l 735 0 l 735 417 l 301 417 l 301 0 l 88 0 z "},"Ң":{"ha":1186,"x_min":88,"x_max":1147,"o":"m 88 0 l 88 1010 l 301 1010 l 301 593 l 735 593 l 735 1010 l 948 1010 l 948 0 l 735 0 l 735 417 l 301 417 l 301 0 l 88 0 m 1148 145 l 1148 -244 l 944 -244 l 944 145 l 1148 145 z "},"Ӊ":{"ha":1154,"x_min":88,"x_max":1116,"o":"m 88 0 l 88 1010 l 301 1010 l 301 593 l 735 593 l 735 1010 l 948 1010 l 948 0 l 735 0 l 735 417 l 301 417 l 301 0 l 88 0 m 1116 115 l 1116 -3 q 1100 -109 1116 -57 q 1055 -208 1084 -162 q 989 -289 1026 -254 l 877 -240 q 909 -175 893 -208 q 937 -105 926 -143 q 948 -15 948 -66 l 948 115 l 1116 115 z "},"Ҥ":{"ha":1398,"x_min":88,"x_max":1348,"o":"m 1348 1010 l 1348 834 l 948 834 l 948 0 l 735 0 l 735 417 l 301 417 l 301 0 l 88 0 l 88 1010 l 301 1010 l 301 593 l 735 593 l 735 1010 l 1348 1010 z "},"Ƕ":{"ha":1560,"x_min":88,"x_max":1476,"o":"m 1106 -14 q 909 28 993 -14 q 781 149 826 70 q 735 340 735 228 l 735 417 l 301 417 l 301 0 l 88 0 l 88 1010 l 301 1010 l 301 593 l 735 593 l 735 1010 l 948 1010 l 948 340 q 990 210 948 254 q 1106 166 1032 166 q 1221 210 1181 166 q 1262 340 1262 254 l 1262 737 l 1476 737 l 1476 340 q 1430 148 1476 227 q 1302 28 1385 69 q 1106 -14 1219 -14 z "},"Η":{"ha":1036,"x_min":88,"x_max":948,"o":"m 88 0 l 88 1010 l 301 1010 l 301 593 l 735 593 l 735 1010 l 948 1010 l 948 0 l 735 0 l 735 417 l 301 417 l 301 0 l 88 0 z "},"Ή":{"ha":1290,"x_min":86,"x_max":1202,"o":"m 341 0 l 341 1010 l 555 1010 l 555 593 l 988 593 l 988 1010 l 1201 1010 l 1201 0 l 988 0 l 988 417 l 555 417 l 555 0 l 341 0 m 85 848 l 138 1083 l 326 1083 l 209 848 l 85 848 z "},"Ἠ":{"ha":1272,"x_min":78,"x_max":1184,"o":"m 324 0 l 324 1010 l 537 1010 l 537 593 l 971 593 l 971 1010 l 1184 1010 l 1184 0 l 971 0 l 971 417 l 537 417 l 537 0 l 324 0 m 252 1010 l 252 945 q 236 868 252 903 q 196 807 221 833 q 137 765 170 781 l 78 827 q 111 860 99 841 q 128 900 123 878 q 133 949 133 923 l 133 1010 l 252 1010 z "},"Ἡ":{"ha":1254,"x_min":83,"x_max":1166,"o":"m 306 0 l 306 1010 l 519 1010 l 519 593 l 953 593 l 953 1010 l 1166 1010 l 1166 0 l 953 0 l 953 417 l 519 417 l 519 0 l 306 0 m 83 945 l 83 1010 l 203 1010 l 203 949 q 208 903 204 926 q 224 861 213 881 q 256 827 235 842 l 198 765 q 117 836 149 789 q 83 945 84 882 z "},"Ἢ":{"ha":1520,"x_min":82,"x_max":1431,"o":"m 571 0 l 571 1010 l 785 1010 l 785 593 l 1218 593 l 1218 1010 l 1431 1010 l 1431 0 l 1218 0 l 1218 417 l 785 417 l 785 0 l 571 0 m 523 793 l 523 783 l 458 783 l 297 998 l 297 1012 l 444 1012 l 523 793 m 266 1012 l 266 956 q 251 882 266 917 q 206 818 235 847 q 137 767 178 789 l 82 808 q 125 876 110 839 q 139 960 139 912 l 139 1012 l 266 1012 z "},"Ἣ":{"ha":1479,"x_min":79,"x_max":1391,"o":"m 531 0 l 531 1010 l 744 1010 l 744 593 l 1178 593 l 1178 1010 l 1391 1010 l 1391 0 l 1178 0 l 1178 417 l 744 417 l 744 0 l 531 0 m 482 796 l 482 780 l 416 780 l 256 996 l 256 1010 l 404 1010 l 482 796 m 80 945 l 80 1010 l 201 1010 l 201 949 q 211 882 201 914 q 255 827 221 849 l 197 765 q 112 836 145 789 q 80 945 79 882 z "},"Ἤ":{"ha":1492,"x_min":84,"x_max":1405,"o":"m 545 0 l 545 1010 l 758 1010 l 758 593 l 1192 593 l 1192 1010 l 1405 1010 l 1405 0 l 1192 0 l 1192 417 l 758 417 l 758 0 l 545 0 m 280 780 l 280 796 l 360 1010 l 507 1010 l 507 996 l 346 780 l 280 780 m 260 1010 l 260 945 q 244 869 259 904 q 203 808 229 834 q 143 765 177 781 l 85 827 q 128 882 117 849 q 139 949 139 914 l 139 1010 l 260 1010 z "},"Ἥ":{"ha":1512,"x_min":83,"x_max":1423,"o":"m 563 0 l 563 1010 l 777 1010 l 777 593 l 1210 593 l 1210 1010 l 1423 1010 l 1423 0 l 1210 0 l 1210 417 l 777 417 l 777 0 l 563 0 m 294 780 l 294 796 l 371 1010 l 519 1010 l 519 996 l 358 780 l 294 780 m 198 765 q 117 834 150 788 q 83 945 83 880 l 83 1010 l 203 1010 l 203 949 q 215 879 203 909 q 256 827 226 848 l 198 765 z "},"Ἦ":{"ha":1397,"x_min":80,"x_max":1309,"o":"m 449 0 l 449 1010 l 662 1010 l 662 593 l 1096 593 l 1096 1010 l 1309 1010 l 1309 0 l 1096 0 l 1096 417 l 662 417 l 662 0 l 449 0 m 403 1178 l 488 1152 q 456 1067 488 1103 q 374 1030 424 1030 q 326 1037 347 1030 q 288 1053 305 1044 q 252 1069 270 1062 q 211 1076 234 1076 q 178 1058 190 1076 q 165 1017 165 1041 l 79 1041 q 111 1127 79 1090 q 193 1165 143 1165 q 236 1159 216 1165 q 276 1143 256 1152 q 315 1127 295 1134 q 356 1120 335 1120 q 389 1137 376 1120 q 403 1178 403 1154 m 351 995 l 351 941 q 322 851 351 890 q 249 793 293 813 l 194 843 q 232 888 223 861 q 240 944 240 915 l 240 995 l 351 995 z "},"Ἧ":{"ha":1416,"x_min":80,"x_max":1328,"o":"m 468 0 l 468 1010 l 681 1010 l 681 593 l 1115 593 l 1115 1010 l 1328 1010 l 1328 0 l 1115 0 l 1115 417 l 681 417 l 681 0 l 468 0 m 239 941 l 239 995 l 350 995 l 350 944 q 358 888 350 915 q 397 843 367 861 l 339 793 q 269 850 298 812 q 239 941 239 888 m 403 1178 l 488 1152 q 456 1067 488 1103 q 374 1030 424 1030 q 326 1037 347 1030 q 288 1053 305 1044 q 252 1069 270 1062 q 211 1076 234 1076 q 178 1058 190 1076 q 165 1017 165 1041 l 79 1041 q 111 1127 79 1090 q 193 1165 143 1165 q 236 1159 216 1165 q 276 1143 256 1152 q 315 1127 295 1134 q 356 1120 335 1120 q 389 1137 376 1120 q 403 1178 403 1154 z "},"Ὴ":{"ha":1308,"x_min":82,"x_max":1220,"o":"m 360 0 l 360 1010 l 574 1010 l 574 593 l 1007 593 l 1007 1010 l 1220 1010 l 1220 0 l 1007 0 l 1007 417 l 574 417 l 574 0 l 360 0 m 243 779 l 82 996 l 82 1010 l 229 1010 l 306 798 l 306 779 l 243 779 z "},"Ή":{"ha":1293,"x_min":93,"x_max":1204,"o":"m 344 0 l 344 1010 l 558 1010 l 558 593 l 991 593 l 991 1010 l 1204 1010 l 1204 0 l 991 0 l 991 417 l 558 417 l 558 0 l 344 0 m 93 852 l 93 871 l 170 1083 l 358 1083 l 358 1069 l 197 852 l 93 852 z "},"Н":{"ha":1036,"x_min":88,"x_max":948,"o":"m 88 0 l 88 1010 l 301 1010 l 301 593 l 735 593 l 735 1010 l 948 1010 l 948 0 l 735 0 l 735 417 l 301 417 l 301 0 l 88 0 z "},"ᾘ":{"ha":1240,"x_min":47,"x_max":1153,"o":"m 292 0 l 292 1010 l 506 1010 l 506 593 l 939 593 l 939 1010 l 1152 1010 l 1152 0 l 939 0 l 939 417 l 506 417 l 506 0 l 292 0 m 790 -335 q 699 -305 736 -335 q 661 -208 661 -275 l 661 -65 l 786 -65 l 786 -207 q 794 -238 786 -228 q 823 -248 802 -248 q 841 -247 834 -248 q 854 -246 849 -246 l 854 -327 q 826 -333 841 -330 q 790 -335 810 -335 m 220 1010 l 220 945 q 205 868 220 903 q 164 807 190 833 q 105 765 138 781 l 47 827 q 79 860 68 841 q 96 900 91 878 q 101 949 101 923 l 101 1010 l 220 1010 z "},"ᾙ":{"ha":1254,"x_min":83,"x_max":1166,"o":"m 306 0 l 306 1010 l 519 1010 l 519 593 l 953 593 l 953 1010 l 1166 1010 l 1166 0 l 953 0 l 953 417 l 519 417 l 519 0 l 306 0 m 803 -335 q 712 -305 750 -335 q 675 -208 675 -275 l 675 -65 l 800 -65 l 800 -207 q 808 -238 800 -228 q 837 -248 816 -248 q 855 -247 847 -248 q 868 -246 863 -246 l 868 -327 q 839 -333 855 -330 q 803 -335 824 -335 m 83 945 l 83 1010 l 203 1010 l 203 949 q 208 903 204 926 q 224 861 213 881 q 256 827 235 842 l 198 765 q 117 836 149 789 q 83 945 84 882 z "},"ᾚ":{"ha":1520,"x_min":82,"x_max":1431,"o":"m 571 0 l 571 1010 l 785 1010 l 785 593 l 1218 593 l 1218 1010 l 1431 1010 l 1431 0 l 1218 0 l 1218 417 l 785 417 l 785 0 l 571 0 m 1069 -335 q 978 -305 1016 -335 q 940 -208 940 -275 l 940 -65 l 1065 -65 l 1065 -207 q 1073 -238 1065 -228 q 1102 -248 1082 -248 q 1120 -247 1113 -248 q 1133 -246 1128 -246 l 1133 -327 q 1105 -333 1120 -330 q 1069 -335 1090 -335 m 523 793 l 523 783 l 458 783 l 297 998 l 297 1012 l 444 1012 l 523 793 m 266 1012 l 266 956 q 251 882 266 917 q 206 818 235 847 q 137 767 178 789 l 82 808 q 125 876 110 839 q 139 960 139 912 l 139 1012 l 266 1012 z "},"ᾛ":{"ha":1479,"x_min":79,"x_max":1391,"o":"m 531 0 l 531 1010 l 744 1010 l 744 593 l 1178 593 l 1178 1010 l 1391 1010 l 1391 0 l 1178 0 l 1178 417 l 744 417 l 744 0 l 531 0 m 1028 -335 q 937 -305 975 -335 q 900 -208 900 -275 l 900 -65 l 1025 -65 l 1025 -207 q 1033 -238 1025 -228 q 1062 -248 1041 -248 q 1080 -247 1072 -248 q 1093 -246 1088 -246 l 1093 -327 q 1064 -333 1080 -330 q 1028 -335 1049 -335 m 482 796 l 482 780 l 416 780 l 256 996 l 256 1010 l 404 1010 l 482 796 m 80 945 l 80 1010 l 201 1010 l 201 949 q 211 882 201 914 q 255 827 221 849 l 197 765 q 112 836 145 789 q 80 945 79 882 z "},"ᾜ":{"ha":1492,"x_min":84,"x_max":1405,"o":"m 545 0 l 545 1010 l 758 1010 l 758 593 l 1192 593 l 1192 1010 l 1405 1010 l 1405 0 l 1192 0 l 1192 417 l 758 417 l 758 0 l 545 0 m 1042 -335 q 951 -305 989 -335 q 913 -208 913 -275 l 913 -65 l 1039 -65 l 1039 -207 q 1047 -238 1039 -228 q 1076 -248 1055 -248 q 1094 -247 1086 -248 q 1107 -246 1101 -246 l 1107 -327 q 1078 -333 1093 -330 q 1042 -335 1063 -335 m 280 780 l 280 796 l 360 1010 l 507 1010 l 507 996 l 346 780 l 280 780 m 260 1010 l 260 945 q 244 869 259 904 q 203 808 229 834 q 143 765 177 781 l 85 827 q 128 882 117 849 q 139 949 139 914 l 139 1010 l 260 1010 z "},"ᾝ":{"ha":1512,"x_min":83,"x_max":1423,"o":"m 563 0 l 563 1010 l 777 1010 l 777 593 l 1210 593 l 1210 1010 l 1423 1010 l 1423 0 l 1210 0 l 1210 417 l 777 417 l 777 0 l 563 0 m 1061 -335 q 970 -305 1008 -335 q 932 -208 932 -275 l 932 -65 l 1057 -65 l 1057 -207 q 1066 -238 1057 -228 q 1094 -248 1074 -248 q 1112 -247 1105 -248 q 1126 -246 1120 -246 l 1126 -327 q 1097 -333 1112 -330 q 1061 -335 1082 -335 m 294 780 l 294 796 l 371 1010 l 519 1010 l 519 996 l 358 780 l 294 780 m 198 765 q 117 834 150 788 q 83 945 83 880 l 83 1010 l 203 1010 l 203 949 q 215 879 203 909 q 256 827 226 848 l 198 765 z "},"ᾞ":{"ha":1397,"x_min":80,"x_max":1309,"o":"m 449 0 l 449 1010 l 662 1010 l 662 593 l 1096 593 l 1096 1010 l 1309 1010 l 1309 0 l 1096 0 l 1096 417 l 662 417 l 662 0 l 449 0 m 946 -335 q 855 -305 893 -335 q 818 -208 818 -275 l 818 -65 l 943 -65 l 943 -207 q 951 -238 943 -228 q 980 -248 959 -248 q 998 -247 990 -248 q 1011 -246 1006 -246 l 1011 -327 q 982 -333 998 -330 q 946 -335 967 -335 m 403 1178 l 488 1152 q 456 1067 488 1103 q 374 1030 424 1030 q 326 1037 347 1030 q 288 1053 305 1044 q 252 1069 270 1062 q 211 1076 234 1076 q 178 1058 190 1076 q 165 1017 165 1041 l 79 1041 q 111 1127 79 1090 q 193 1165 143 1165 q 236 1159 216 1165 q 276 1143 256 1152 q 315 1127 295 1134 q 356 1120 335 1120 q 389 1137 376 1120 q 403 1178 403 1154 m 351 995 l 351 941 q 322 851 351 890 q 249 793 293 813 l 194 843 q 232 888 223 861 q 240 944 240 915 l 240 995 l 351 995 z "},"ᾟ":{"ha":1416,"x_min":80,"x_max":1328,"o":"m 468 0 l 468 1010 l 681 1010 l 681 593 l 1115 593 l 1115 1010 l 1328 1010 l 1328 0 l 1115 0 l 1115 417 l 681 417 l 681 0 l 468 0 m 965 -335 q 874 -305 912 -335 q 836 -208 836 -275 l 836 -65 l 962 -65 l 962 -207 q 970 -238 962 -228 q 999 -248 978 -248 q 1017 -247 1009 -248 q 1030 -246 1024 -246 l 1030 -327 q 1001 -333 1017 -330 q 965 -335 986 -335 m 239 941 l 239 995 l 350 995 l 350 944 q 358 888 350 915 q 397 843 367 861 l 339 793 q 269 850 298 812 q 239 941 239 888 m 403 1178 l 488 1152 q 456 1067 488 1103 q 374 1030 424 1030 q 326 1037 347 1030 q 288 1053 305 1044 q 252 1069 270 1062 q 211 1076 234 1076 q 178 1058 190 1076 q 165 1017 165 1041 l 79 1041 q 111 1127 79 1090 q 193 1165 143 1165 q 236 1159 216 1165 q 276 1143 256 1152 q 315 1127 295 1134 q 356 1120 335 1120 q 389 1137 376 1120 q 403 1178 403 1154 z "},"ῌ":{"ha":1036,"x_min":88,"x_max":948,"o":"m 88 0 l 88 1010 l 301 1010 l 301 593 l 735 593 l 735 1010 l 948 1010 l 948 0 l 735 0 l 735 417 l 301 417 l 301 0 l 88 0 m 585 -335 q 494 -305 532 -335 q 457 -208 457 -275 l 457 -65 l 582 -65 l 582 -207 q 590 -238 582 -228 q 619 -248 598 -248 q 637 -247 629 -248 q 650 -246 645 -246 l 650 -327 q 621 -333 637 -330 q 585 -335 606 -335 z "},"I":{"ha":390,"x_min":88,"x_max":301,"o":"m 301 1010 l 301 0 l 88 0 l 88 1010 l 301 1010 z "},"Ï":{"ha":390,"x_min":-59,"x_max":449,"o":"m 301 1010 l 301 0 l 88 0 l 88 1010 l 301 1010 m 45 1114 q -28 1144 2 1114 q -59 1214 -59 1173 q -28 1285 -59 1256 q 45 1314 2 1314 q 118 1285 88 1314 q 147 1214 147 1256 q 118 1144 147 1173 q 45 1114 88 1114 m 347 1114 q 274 1144 304 1114 q 243 1214 243 1173 q 274 1285 243 1256 q 347 1314 304 1314 q 419 1285 390 1314 q 449 1214 449 1256 q 419 1144 449 1173 q 347 1114 390 1114 z "},"Ḯ":{"ha":390,"x_min":-48,"x_max":439,"o":"m 301 1010 l 301 0 l 88 0 l 88 1010 l 301 1010 m 114 1330 l 251 1504 l 439 1504 l 265 1330 l 114 1330 m 51 1080 q -18 1107 11 1080 q -48 1173 -48 1135 q -18 1239 -48 1212 q 51 1267 11 1267 q 121 1239 92 1267 q 149 1173 149 1212 q 121 1107 149 1135 q 51 1080 92 1080 m 341 1080 q 271 1107 300 1080 q 242 1173 242 1135 q 271 1239 242 1212 q 341 1267 300 1267 q 410 1239 382 1267 q 439 1173 439 1212 q 410 1107 439 1135 q 341 1080 382 1080 z "},"Ɨ":{"ha":390,"x_min":-52,"x_max":439,"o":"m 301 1010 l 301 0 l 88 0 l 88 1010 l 301 1010 m -53 471 l -53 594 l 439 594 l 439 471 l -53 471 z "},"Ḭ":{"ha":390,"x_min":-37,"x_max":478,"o":"m 301 1010 l 301 0 l 88 0 l 88 1010 l 301 1010 m 79 -271 l -37 -269 q 9 -125 -37 -175 q 123 -74 56 -74 q 182 -85 157 -74 q 227 -111 207 -96 q 265 -136 247 -125 q 305 -147 284 -147 q 348 -127 333 -147 q 363 -72 363 -106 l 478 -74 q 431 -218 477 -168 q 318 -269 385 -269 q 256 -258 281 -270 q 213 -233 231 -247 q 176 -207 194 -218 q 136 -196 158 -196 q 95 -216 110 -196 q 79 -271 79 -236 z "},"Ì":{"ha":390,"x_min":-28,"x_max":301,"o":"m 301 1010 l 301 0 l 88 0 l 88 1010 l 301 1010 m 122 1108 l -28 1332 l 166 1332 l 271 1108 l 122 1108 z "},"Í":{"ha":390,"x_min":88,"x_max":419,"o":"m 301 1010 l 301 0 l 88 0 l 88 1010 l 301 1010 m 120 1108 l 224 1332 l 419 1332 l 268 1108 l 120 1108 z "},"Î":{"ha":390,"x_min":-83,"x_max":473,"o":"m 301 1010 l 301 0 l 88 0 l 88 1010 l 301 1010 m 294 1101 l 195 1221 l 96 1101 l -83 1101 l -83 1108 l 117 1325 l 273 1325 l 473 1108 l 473 1101 l 294 1101 z "},"Ĩ":{"ha":626,"x_min":54,"x_max":571,"o":"m 419 1010 l 419 0 l 205 0 l 205 1010 l 419 1010 m 172 1103 l 55 1105 q 101 1249 55 1199 q 215 1300 148 1300 q 274 1289 250 1300 q 319 1263 299 1278 q 358 1237 339 1248 q 397 1226 376 1226 q 441 1248 426 1227 q 456 1303 456 1269 l 571 1299 q 523 1155 570 1206 q 410 1104 477 1105 q 348 1115 373 1104 q 305 1141 324 1126 q 268 1167 286 1156 q 228 1178 251 1178 q 187 1158 203 1178 q 172 1103 172 1138 z "},"Ī":{"ha":390,"x_min":-45,"x_max":436,"o":"m 301 1010 l 301 0 l 88 0 l 88 1010 l 301 1010 m 436 1263 l 436 1149 l -45 1149 l -45 1263 l 436 1263 z "},"Ĭ":{"ha":390,"x_min":-48,"x_max":439,"o":"m 301 1010 l 301 0 l 88 0 l 88 1010 l 301 1010 m 293 1274 l 439 1274 q 373 1130 439 1185 q 195 1075 307 1075 q 17 1130 83 1075 q -48 1274 -48 1185 l 97 1274 q 119 1213 97 1240 q 195 1186 142 1186 q 270 1213 248 1186 q 293 1274 293 1239 z "},"Į":{"ha":390,"x_min":33,"x_max":318,"o":"m 301 1010 l 301 0 l 88 0 l 88 1010 l 301 1010 m 205 -283 q 95 -249 140 -283 q 40 -153 51 -216 q 41 -72 33 -112 q 76 3 50 -31 q 145 57 102 37 l 301 0 q 225 -47 255 -22 q 196 -108 196 -72 q 208 -144 196 -131 q 244 -157 220 -157 q 273 -153 260 -157 q 296 -145 286 -148 l 318 -254 q 271 -273 299 -264 q 205 -283 243 -283 z "},"İ":{"ha":390,"x_min":82,"x_max":309,"o":"m 301 1010 l 301 0 l 88 0 l 88 1010 l 301 1010 m 196 1108 q 115 1139 149 1108 q 82 1214 82 1170 q 115 1289 82 1258 q 195 1320 149 1320 q 276 1289 243 1320 q 309 1214 309 1258 q 276 1139 309 1170 q 196 1108 243 1108 z "},"Ǐ":{"ha":390,"x_min":-83,"x_max":473,"o":"m 301 1010 l 301 0 l 88 0 l 88 1010 l 301 1010 m 96 1325 l 195 1204 l 294 1325 l 473 1325 l 473 1318 l 273 1101 l 117 1101 l -83 1318 l -83 1325 l 96 1325 z "},"Ȉ":{"ha":390,"x_min":-148,"x_max":395,"o":"m 301 1010 l 301 0 l 88 0 l 88 1010 l 301 1010 m 6 1108 l -148 1332 l 49 1332 l 154 1108 l 6 1108 m 250 1108 l 144 1332 l 335 1332 l 395 1108 l 250 1108 z "},"Ȋ":{"ha":390,"x_min":-50,"x_max":439,"o":"m 301 1010 l 301 0 l 88 0 l 88 1010 l 301 1010 m -50 1132 q 15 1279 -51 1222 q 194 1337 81 1337 q 372 1279 306 1337 q 438 1132 438 1222 l 292 1132 q 269 1193 292 1166 q 194 1220 247 1220 q 118 1193 141 1220 q 96 1132 96 1166 l -50 1132 z "},"Ỉ":{"ha":390,"x_min":88,"x_max":378,"o":"m 301 1010 l 301 0 l 88 0 l 88 1010 l 301 1010 m 273 1119 l 117 1119 l 106 1207 q 181 1221 158 1210 q 202 1252 203 1233 q 174 1288 203 1279 q 104 1298 146 1298 l 109 1393 q 309 1357 241 1393 q 378 1259 378 1322 q 345 1191 378 1214 q 273 1162 313 1168 l 273 1119 z "},"Ị":{"ha":390,"x_min":80,"x_max":308,"o":"m 301 1010 l 301 0 l 88 0 l 88 1010 l 301 1010 m 194 -284 q 114 -253 147 -284 q 80 -178 80 -221 q 114 -103 80 -134 q 194 -72 147 -72 q 274 -103 241 -72 q 308 -178 308 -134 q 274 -253 308 -221 q 194 -284 241 -284 z "},"Ɩ":{"ha":418,"x_min":84,"x_max":423,"o":"m 84 1010 l 294 1010 l 294 227 q 307 175 294 191 q 350 159 320 159 q 375 161 366 159 q 390 165 384 162 l 423 12 q 383 2 407 7 q 321 -5 360 -3 q 142 41 200 -9 q 84 199 84 91 l 84 1010 z "},"Ι":{"ha":390,"x_min":88,"x_max":301,"o":"m 301 1010 l 301 0 l 88 0 l 88 1010 l 301 1010 z "},"Ί":{"ha":537,"x_min":3,"x_max":449,"o":"m 449 1010 l 449 0 l 235 0 l 235 1010 l 449 1010 m 3 848 l 56 1083 l 244 1083 l 127 848 l 3 848 z "},"Ϊ":{"ha":390,"x_min":-59,"x_max":449,"o":"m 301 1010 l 301 0 l 88 0 l 88 1010 l 301 1010 m 45 1114 q -28 1144 2 1114 q -59 1214 -59 1173 q -28 1285 -59 1256 q 45 1314 2 1314 q 118 1285 88 1314 q 147 1214 147 1256 q 118 1144 147 1173 q 45 1114 88 1114 m 347 1114 q 274 1144 304 1114 q 243 1214 243 1173 q 274 1285 243 1256 q 347 1314 304 1314 q 419 1285 390 1314 q 449 1214 449 1256 q 419 1144 449 1173 q 347 1114 390 1114 z "},"Ἰ":{"ha":598,"x_min":78,"x_max":514,"o":"m 513 1010 l 513 0 l 300 0 l 300 1010 l 513 1010 m 252 1010 l 252 945 q 236 868 252 903 q 196 807 221 833 q 137 765 170 781 l 78 827 q 111 860 99 841 q 128 900 123 878 q 133 949 133 923 l 133 1010 l 252 1010 z "},"Ἱ":{"ha":580,"x_min":83,"x_max":496,"o":"m 496 1010 l 496 0 l 282 0 l 282 1010 l 496 1010 m 83 945 l 83 1010 l 203 1010 l 203 949 q 208 903 204 926 q 224 861 213 881 q 256 827 235 842 l 198 765 q 117 836 149 789 q 83 945 84 882 z "},"Ἲ":{"ha":845,"x_min":82,"x_max":761,"o":"m 761 1010 l 761 0 l 547 0 l 547 1010 l 761 1010 m 523 793 l 523 783 l 458 783 l 297 998 l 297 1012 l 444 1012 l 523 793 m 266 1012 l 266 956 q 251 882 266 917 q 206 818 235 847 q 137 767 178 789 l 82 808 q 125 876 110 839 q 139 960 139 912 l 139 1012 l 266 1012 z "},"Ἳ":{"ha":805,"x_min":79,"x_max":721,"o":"m 721 1010 l 721 0 l 507 0 l 507 1010 l 721 1010 m 482 796 l 482 780 l 416 780 l 256 996 l 256 1010 l 404 1010 l 482 796 m 80 945 l 80 1010 l 201 1010 l 201 949 q 211 882 201 914 q 255 827 221 849 l 197 765 q 112 836 145 789 q 80 945 79 882 z "},"Ἴ":{"ha":819,"x_min":84,"x_max":734,"o":"m 734 1010 l 734 0 l 521 0 l 521 1010 l 734 1010 m 280 780 l 280 796 l 360 1010 l 507 1010 l 507 996 l 346 780 l 280 780 m 260 1010 l 260 945 q 244 869 259 904 q 203 808 229 834 q 143 765 177 781 l 85 827 q 128 882 117 849 q 139 949 139 914 l 139 1010 l 260 1010 z "},"Ἵ":{"ha":837,"x_min":83,"x_max":753,"o":"m 753 1010 l 753 0 l 540 0 l 540 1010 l 753 1010 m 294 780 l 294 796 l 371 1010 l 519 1010 l 519 996 l 358 780 l 294 780 m 198 765 q 117 834 150 788 q 83 945 83 880 l 83 1010 l 203 1010 l 203 949 q 215 879 203 909 q 256 827 226 848 l 198 765 z "},"Ἶ":{"ha":723,"x_min":80,"x_max":639,"o":"m 639 1010 l 639 0 l 425 0 l 425 1010 l 639 1010 m 403 1178 l 488 1152 q 456 1067 488 1103 q 374 1030 424 1030 q 326 1037 347 1030 q 288 1053 305 1044 q 252 1069 270 1062 q 211 1076 234 1076 q 178 1058 190 1076 q 165 1017 165 1041 l 79 1041 q 111 1127 79 1090 q 193 1165 143 1165 q 236 1159 216 1165 q 276 1143 256 1152 q 315 1127 295 1134 q 356 1120 335 1120 q 389 1137 376 1120 q 403 1178 403 1154 m 351 995 l 351 941 q 322 851 351 890 q 249 793 293 813 l 194 843 q 232 888 223 861 q 240 944 240 915 l 240 995 l 351 995 z "},"Ἷ":{"ha":742,"x_min":80,"x_max":658,"o":"m 657 1010 l 657 0 l 444 0 l 444 1010 l 657 1010 m 239 941 l 239 995 l 350 995 l 350 944 q 358 888 350 915 q 397 843 367 861 l 339 793 q 269 850 298 812 q 239 941 239 888 m 403 1178 l 488 1152 q 456 1067 488 1103 q 374 1030 424 1030 q 326 1037 347 1030 q 288 1053 305 1044 q 252 1069 270 1062 q 211 1076 234 1076 q 178 1058 190 1076 q 165 1017 165 1041 l 79 1041 q 111 1127 79 1090 q 193 1165 143 1165 q 236 1159 216 1165 q 276 1143 256 1152 q 315 1127 295 1134 q 356 1120 335 1120 q 389 1137 376 1120 q 403 1178 403 1154 z "},"Ῐ":{"ha":390,"x_min":-48,"x_max":439,"o":"m 301 1010 l 301 0 l 88 0 l 88 1010 l 301 1010 m 293 1274 l 439 1274 q 373 1130 439 1185 q 195 1075 307 1075 q 17 1130 83 1075 q -48 1274 -48 1185 l 97 1274 q 119 1213 97 1240 q 195 1186 142 1186 q 270 1213 248 1186 q 293 1274 293 1239 z "},"Ῑ":{"ha":390,"x_min":-45,"x_max":436,"o":"m 301 1010 l 301 0 l 88 0 l 88 1010 l 301 1010 m 436 1263 l 436 1149 l -45 1149 l -45 1263 l 436 1263 z "},"Ὶ":{"ha":634,"x_min":82,"x_max":550,"o":"m 550 1010 l 550 0 l 336 0 l 336 1010 l 550 1010 m 243 779 l 82 996 l 82 1010 l 229 1010 l 306 798 l 306 779 l 243 779 z "},"Ί":{"ha":618,"x_min":93,"x_max":534,"o":"m 534 1010 l 534 0 l 321 0 l 321 1010 l 534 1010 m 93 852 l 93 871 l 170 1083 l 358 1083 l 358 1069 l 197 852 l 93 852 z "},"І":{"ha":390,"x_min":88,"x_max":301,"o":"m 301 1010 l 301 0 l 88 0 l 88 1010 l 301 1010 z "},"Ї":{"ha":390,"x_min":-59,"x_max":449,"o":"m 301 1010 l 301 0 l 88 0 l 88 1010 l 301 1010 m 45 1114 q -28 1144 2 1114 q -59 1214 -59 1173 q -28 1285 -59 1256 q 45 1314 2 1314 q 118 1285 88 1314 q 147 1214 147 1256 q 118 1144 147 1173 q 45 1114 88 1114 m 347 1114 q 274 1144 304 1114 q 243 1214 243 1173 q 274 1285 243 1256 q 347 1314 304 1314 q 419 1285 390 1314 q 449 1214 449 1256 q 419 1144 449 1173 q 347 1114 390 1114 z "},"":{"ha":666,"x_min":49,"x_max":617,"o":"m 49 834 l 49 1010 l 617 1010 l 617 834 l 49 834 m 49 0 l 49 176 l 617 176 l 617 0 l 49 0 m 440 1010 l 440 0 l 226 0 l 226 1010 l 440 1010 z "},"":{"ha":666,"x_min":49,"x_max":617,"o":"m 49 834 l 49 1010 l 617 1010 l 617 834 l 49 834 m 49 0 l 49 176 l 617 176 l 617 0 l 49 0 m 440 1010 l 440 0 l 226 0 l 226 1010 l 440 1010 m 183 1114 q 110 1144 141 1114 q 80 1214 80 1173 q 110 1285 80 1256 q 183 1314 141 1314 q 256 1285 226 1314 q 286 1214 286 1256 q 256 1144 286 1173 q 183 1114 226 1114 m 485 1114 q 412 1144 443 1114 q 382 1214 382 1173 q 412 1285 382 1256 q 485 1314 443 1314 q 558 1285 528 1314 q 588 1214 588 1256 q 558 1144 588 1173 q 485 1114 528 1114 z "},"":{"ha":666,"x_min":49,"x_max":617,"o":"m 49 834 l 49 1010 l 617 1010 l 617 834 l 49 834 m 49 0 l 49 176 l 617 176 l 617 0 l 49 0 m 440 1010 l 440 0 l 226 0 l 226 1010 l 440 1010 m 253 1330 l 389 1504 l 578 1504 l 404 1330 l 253 1330 m 190 1080 q 120 1107 149 1080 q 91 1173 91 1135 q 120 1239 91 1212 q 190 1267 149 1267 q 259 1239 231 1267 q 288 1173 288 1212 q 259 1107 288 1135 q 190 1080 231 1080 m 479 1080 q 409 1107 438 1080 q 380 1173 380 1135 q 409 1239 380 1212 q 479 1267 438 1267 q 549 1239 520 1267 q 578 1173 578 1212 q 549 1107 578 1135 q 479 1080 520 1080 z "},"":{"ha":666,"x_min":49,"x_max":617,"o":"m 49 834 l 49 1010 l 617 1010 l 617 834 l 49 834 m 49 0 l 49 176 l 617 176 l 617 0 l 49 0 m 440 1010 l 440 0 l 226 0 l 226 1010 l 440 1010 m 86 471 l 86 594 l 578 594 l 578 471 l 86 471 z "},"":{"ha":666,"x_min":49,"x_max":617,"o":"m 49 834 l 49 1010 l 617 1010 l 617 834 l 49 834 m 49 0 l 49 176 l 617 176 l 617 0 l 49 0 m 440 1010 l 440 0 l 226 0 l 226 1010 l 440 1010 m 218 -271 l 101 -269 q 148 -125 101 -175 q 261 -74 194 -74 q 321 -85 296 -74 q 366 -111 346 -96 q 404 -136 386 -125 q 443 -147 422 -147 q 487 -127 472 -147 q 502 -72 502 -106 l 617 -74 q 570 -218 616 -168 q 457 -269 523 -269 q 395 -258 420 -270 q 351 -233 370 -247 q 315 -207 332 -218 q 275 -196 297 -196 q 234 -216 249 -196 q 218 -271 218 -236 z "},"":{"ha":666,"x_min":49,"x_max":617,"o":"m 49 834 l 49 1010 l 617 1010 l 617 834 l 49 834 m 49 0 l 49 176 l 617 176 l 617 0 l 49 0 m 440 1010 l 440 0 l 226 0 l 226 1010 l 440 1010 m 261 1108 l 110 1332 l 304 1332 l 409 1108 l 261 1108 z "},"":{"ha":666,"x_min":49,"x_max":617,"o":"m 49 834 l 49 1010 l 617 1010 l 617 834 l 49 834 m 49 0 l 49 176 l 617 176 l 617 0 l 49 0 m 440 1010 l 440 0 l 226 0 l 226 1010 l 440 1010 m 258 1108 l 363 1332 l 557 1332 l 407 1108 l 258 1108 z "},"":{"ha":666,"x_min":49,"x_max":617,"o":"m 49 834 l 49 1010 l 617 1010 l 617 834 l 49 834 m 49 0 l 49 176 l 617 176 l 617 0 l 49 0 m 440 1010 l 440 0 l 226 0 l 226 1010 l 440 1010 m 433 1101 l 334 1221 l 235 1101 l 56 1101 l 56 1108 l 255 1325 l 412 1325 l 612 1108 l 612 1101 l 433 1101 z "},"":{"ha":666,"x_min":49,"x_max":617,"o":"m 49 834 l 49 1010 l 617 1010 l 617 834 l 49 834 m 49 0 l 49 176 l 617 176 l 617 0 l 49 0 m 440 1010 l 440 0 l 226 0 l 226 1010 l 440 1010 m 193 1103 l 76 1105 q 123 1249 76 1199 q 236 1300 169 1300 q 296 1289 271 1300 q 341 1263 321 1278 q 379 1237 361 1248 q 418 1226 397 1226 q 462 1248 447 1227 q 477 1303 477 1269 l 592 1299 q 545 1155 591 1206 q 432 1104 498 1105 q 370 1115 395 1104 q 326 1141 345 1126 q 290 1167 307 1156 q 250 1178 272 1178 q 208 1158 224 1178 q 193 1103 193 1138 z "},"":{"ha":666,"x_min":49,"x_max":617,"o":"m 49 834 l 49 1010 l 617 1010 l 617 834 l 49 834 m 49 0 l 49 176 l 617 176 l 617 0 l 49 0 m 440 1010 l 440 0 l 226 0 l 226 1010 l 440 1010 m 574 1263 l 574 1149 l 94 1149 l 94 1263 l 574 1263 z "},"":{"ha":666,"x_min":49,"x_max":617,"o":"m 49 834 l 49 1010 l 617 1010 l 617 834 l 49 834 m 49 0 l 49 176 l 617 176 l 617 0 l 49 0 m 440 1010 l 440 0 l 226 0 l 226 1010 l 440 1010 m 432 1274 l 578 1274 q 512 1130 578 1185 q 334 1075 446 1075 q 156 1130 221 1075 q 90 1274 90 1185 l 236 1274 q 258 1213 235 1240 q 334 1186 280 1186 q 409 1213 386 1186 q 432 1274 432 1239 z "},"":{"ha":666,"x_min":49,"x_max":634,"o":"m 49 834 l 49 1010 l 617 1010 l 617 834 l 49 834 m 49 0 l 49 176 l 617 176 l 617 0 l 49 0 m 440 1010 l 440 0 l 226 0 l 226 1010 l 440 1010 m 521 -283 q 411 -249 455 -283 q 356 -153 367 -216 q 357 -72 348 -112 q 391 3 365 -31 q 461 57 417 37 l 617 0 q 541 -47 571 -22 q 512 -108 511 -72 q 524 -144 511 -131 q 560 -157 536 -157 q 589 -153 576 -157 q 612 -145 602 -148 l 633 -254 q 587 -273 615 -264 q 521 -283 558 -283 z "},"":{"ha":666,"x_min":49,"x_max":617,"o":"m 49 834 l 49 1010 l 617 1010 l 617 834 l 49 834 m 49 0 l 49 176 l 617 176 l 617 0 l 49 0 m 440 1010 l 440 0 l 226 0 l 226 1010 l 440 1010 m 334 1108 q 254 1139 287 1108 q 220 1214 220 1170 q 254 1289 220 1258 q 333 1320 287 1320 q 414 1289 381 1320 q 447 1214 447 1258 q 414 1139 447 1170 q 334 1108 381 1108 z "},"":{"ha":666,"x_min":49,"x_max":617,"o":"m 49 834 l 49 1010 l 617 1010 l 617 834 l 49 834 m 49 0 l 49 176 l 617 176 l 617 0 l 49 0 m 440 1010 l 440 0 l 226 0 l 226 1010 l 440 1010 m 235 1325 l 334 1204 l 433 1325 l 612 1325 l 612 1318 l 412 1101 l 255 1101 l 56 1318 l 56 1325 l 235 1325 z "},"":{"ha":666,"x_min":-10,"x_max":617,"o":"m 49 834 l 49 1010 l 617 1010 l 617 834 l 49 834 m 49 0 l 49 176 l 617 176 l 617 0 l 49 0 m 440 1010 l 440 0 l 226 0 l 226 1010 l 440 1010 m 145 1108 l -9 1332 l 188 1332 l 293 1108 l 145 1108 m 388 1108 l 283 1332 l 474 1332 l 534 1108 l 388 1108 z "},"":{"ha":666,"x_min":49,"x_max":617,"o":"m 49 834 l 49 1010 l 617 1010 l 617 834 l 49 834 m 49 0 l 49 176 l 617 176 l 617 0 l 49 0 m 440 1010 l 440 0 l 226 0 l 226 1010 l 440 1010 m 88 1132 q 154 1279 88 1222 q 332 1337 220 1337 q 511 1279 445 1337 q 577 1132 577 1222 l 431 1132 q 408 1193 431 1166 q 332 1220 385 1220 q 257 1193 279 1220 q 235 1132 234 1166 l 88 1132 z "},"":{"ha":666,"x_min":49,"x_max":617,"o":"m 49 834 l 49 1010 l 617 1010 l 617 834 l 49 834 m 49 0 l 49 176 l 617 176 l 617 0 l 49 0 m 440 1010 l 440 0 l 226 0 l 226 1010 l 440 1010 m 411 1119 l 255 1119 l 245 1207 q 319 1221 297 1210 q 341 1252 341 1233 q 313 1288 341 1279 q 242 1298 285 1298 l 248 1393 q 448 1357 379 1393 q 516 1259 517 1322 q 484 1191 517 1214 q 411 1162 451 1168 l 411 1119 z "},"":{"ha":666,"x_min":49,"x_max":617,"o":"m 49 834 l 49 1010 l 617 1010 l 617 834 l 49 834 m 49 0 l 49 176 l 617 176 l 617 0 l 49 0 m 440 1010 l 440 0 l 226 0 l 226 1010 l 440 1010 m 333 -284 q 253 -253 286 -284 q 219 -178 219 -221 q 253 -103 219 -134 q 333 -72 286 -72 q 413 -103 380 -72 q 446 -178 446 -134 q 413 -253 446 -221 q 333 -284 380 -284 z "},"":{"ha":888,"x_min":49,"x_max":839,"o":"m 271 834 l 271 1010 l 839 1010 l 839 834 l 271 834 m 271 0 l 271 176 l 839 176 l 839 0 l 271 0 m 662 1010 l 662 0 l 448 0 l 448 1010 l 662 1010 m 222 1010 l 222 945 q 207 868 222 903 q 166 807 192 833 q 108 765 141 781 l 49 827 q 82 860 70 841 q 99 900 94 878 q 104 949 104 923 l 104 1010 l 222 1010 z "},"":{"ha":865,"x_min":49,"x_max":816,"o":"m 248 834 l 248 1010 l 816 1010 l 816 834 l 248 834 m 248 0 l 248 176 l 816 176 l 816 0 l 248 0 m 639 1010 l 639 0 l 425 0 l 425 1010 l 639 1010 m 49 945 l 49 1010 l 169 1010 l 169 949 q 174 903 170 926 q 190 861 179 881 q 222 827 201 842 l 164 765 q 83 836 115 789 q 49 945 50 882 z "},"":{"ha":1132,"x_min":49,"x_max":1083,"o":"m 515 834 l 515 1010 l 1083 1010 l 1083 834 l 515 834 m 515 0 l 515 176 l 1083 176 l 1083 0 l 515 0 m 906 1010 l 906 0 l 692 0 l 692 1010 l 906 1010 m 490 793 l 490 783 l 425 783 l 264 998 l 264 1012 l 411 1012 l 490 793 m 233 1012 l 233 956 q 218 882 233 917 q 173 818 202 847 q 104 767 145 789 l 49 808 q 91 876 77 839 q 106 960 106 912 l 106 1012 l 233 1012 z "},"":{"ha":1094,"x_min":49,"x_max":1045,"o":"m 476 834 l 476 1010 l 1044 1010 l 1044 834 l 476 834 m 476 0 l 476 176 l 1044 176 l 1044 0 l 476 0 m 867 1010 l 867 0 l 654 0 l 654 1010 l 867 1010 m 451 796 l 451 780 l 386 780 l 225 996 l 225 1010 l 374 1010 l 451 796 m 49 945 l 49 1010 l 170 1010 l 170 949 q 181 882 170 914 q 224 827 191 849 l 166 765 q 82 836 115 789 q 49 945 49 882 z "},"":{"ha":1103,"x_min":49,"x_max":1054,"o":"m 486 834 l 486 1010 l 1054 1010 l 1054 834 l 486 834 m 486 0 l 486 176 l 1054 176 l 1054 0 l 486 0 m 876 1010 l 876 0 l 663 0 l 663 1010 l 876 1010 m 245 780 l 245 796 l 324 1010 l 471 1010 l 471 996 l 310 780 l 245 780 m 224 1010 l 224 945 q 209 869 224 904 q 167 808 194 834 q 107 765 141 781 l 49 827 q 92 882 82 849 q 103 949 103 914 l 103 1010 l 224 1010 z "},"":{"ha":1123,"x_min":49,"x_max":1074,"o":"m 506 834 l 506 1010 l 1074 1010 l 1074 834 l 506 834 m 506 0 l 506 176 l 1074 176 l 1074 0 l 506 0 m 897 1010 l 897 0 l 683 0 l 683 1010 l 897 1010 m 260 780 l 260 796 l 337 1010 l 485 1010 l 485 996 l 324 780 l 260 780 m 164 765 q 83 834 116 788 q 49 945 49 880 l 49 1010 l 169 1010 l 169 949 q 181 879 169 909 q 222 827 192 848 l 164 765 z "},"":{"ha":1012,"x_min":49,"x_max":963,"o":"m 395 834 l 395 1010 l 963 1010 l 963 834 l 395 834 m 395 0 l 395 176 l 963 176 l 963 0 l 395 0 m 786 1010 l 786 0 l 572 0 l 572 1010 l 786 1010 m 373 1178 l 458 1152 q 426 1067 458 1103 q 344 1030 394 1030 q 296 1037 317 1030 q 258 1053 275 1044 q 222 1069 240 1062 q 181 1076 204 1076 q 147 1058 160 1076 q 135 1017 135 1041 l 49 1041 q 81 1127 49 1090 q 163 1165 113 1165 q 206 1159 186 1165 q 246 1143 226 1152 q 285 1127 265 1134 q 326 1120 305 1120 q 359 1137 346 1120 q 373 1178 373 1154 m 321 995 l 321 941 q 292 851 321 890 q 219 793 263 813 l 164 843 q 202 888 193 861 q 210 944 210 915 l 210 995 l 321 995 z "},"":{"ha":1031,"x_min":49,"x_max":981,"o":"m 414 834 l 414 1010 l 981 1010 l 981 834 l 414 834 m 414 0 l 414 176 l 981 176 l 981 0 l 414 0 m 804 1010 l 804 0 l 591 0 l 591 1010 l 804 1010 m 209 941 l 209 995 l 320 995 l 320 944 q 328 888 320 915 q 366 843 337 861 l 309 793 q 239 850 268 812 q 209 941 209 888 m 373 1178 l 458 1152 q 426 1067 458 1103 q 344 1030 394 1030 q 296 1037 317 1030 q 258 1053 275 1044 q 222 1069 240 1062 q 181 1076 204 1076 q 147 1058 160 1076 q 135 1017 135 1041 l 49 1041 q 81 1127 49 1090 q 163 1165 113 1165 q 206 1159 186 1165 q 246 1143 226 1152 q 285 1127 265 1134 q 326 1120 305 1120 q 359 1137 346 1120 q 373 1178 373 1154 z "},"":{"ha":666,"x_min":49,"x_max":617,"o":"m 49 834 l 49 1010 l 617 1010 l 617 834 l 49 834 m 49 0 l 49 176 l 617 176 l 617 0 l 49 0 m 440 1010 l 440 0 l 226 0 l 226 1010 l 440 1010 m 432 1274 l 578 1274 q 512 1130 578 1185 q 334 1075 446 1075 q 156 1130 221 1075 q 90 1274 90 1185 l 236 1274 q 258 1213 235 1240 q 334 1186 280 1186 q 409 1213 386 1186 q 432 1274 432 1239 z "},"":{"ha":666,"x_min":49,"x_max":617,"o":"m 49 834 l 49 1010 l 617 1010 l 617 834 l 49 834 m 49 0 l 49 176 l 617 176 l 617 0 l 49 0 m 440 1010 l 440 0 l 226 0 l 226 1010 l 440 1010 m 574 1263 l 574 1149 l 94 1149 l 94 1263 l 574 1263 z "},"":{"ha":921,"x_min":49,"x_max":872,"o":"m 304 834 l 304 1010 l 872 1010 l 872 834 l 304 834 m 304 0 l 304 176 l 872 176 l 872 0 l 304 0 m 694 1010 l 694 0 l 481 0 l 481 1010 l 694 1010 m 210 779 l 49 996 l 49 1010 l 196 1010 l 273 798 l 273 779 l 210 779 z "},"":{"ha":905,"x_min":60,"x_max":856,"o":"m 288 834 l 288 1010 l 856 1010 l 856 834 l 288 834 m 288 0 l 288 176 l 856 176 l 856 0 l 288 0 m 679 1010 l 679 0 l 465 0 l 465 1010 l 679 1010 m 60 852 l 60 871 l 137 1083 l 325 1083 l 325 1069 l 165 852 l 60 852 z "},"":{"ha":666,"x_min":49,"x_max":617,"o":"m 49 834 l 49 1010 l 617 1010 l 617 834 l 49 834 m 49 0 l 49 176 l 617 176 l 617 0 l 49 0 m 440 1010 l 440 0 l 226 0 l 226 1010 l 440 1010 z "},"":{"ha":666,"x_min":49,"x_max":617,"o":"m 49 834 l 49 1010 l 617 1010 l 617 834 l 49 834 m 49 0 l 49 176 l 617 176 l 617 0 l 49 0 m 440 1010 l 440 0 l 226 0 l 226 1010 l 440 1010 m 183 1114 q 110 1144 141 1114 q 80 1214 80 1173 q 110 1285 80 1256 q 183 1314 141 1314 q 256 1285 226 1314 q 286 1214 286 1256 q 256 1144 286 1173 q 183 1114 226 1114 m 485 1114 q 412 1144 443 1114 q 382 1214 382 1173 q 412 1285 382 1256 q 485 1314 443 1314 q 558 1285 528 1314 q 588 1214 588 1256 q 558 1144 588 1173 q 485 1114 528 1114 z "},"J":{"ha":792,"x_min":32,"x_max":703,"o":"m 492 1010 l 703 1010 l 703 306 q 660 136 703 208 q 539 25 616 64 q 359 -14 461 -14 q 193 18 267 -14 q 75 117 119 51 q 33 284 32 183 l 245 284 q 262 216 246 244 q 305 172 277 187 q 369 157 332 157 q 436 174 409 157 q 478 224 464 191 q 492 306 492 257 l 492 1010 z "},"Ĵ":{"ha":792,"x_min":32,"x_max":875,"o":"m 492 1010 l 703 1010 l 703 306 q 660 136 703 208 q 539 25 616 64 q 359 -14 461 -14 q 193 18 267 -14 q 75 117 119 51 q 33 284 32 183 l 245 284 q 262 216 246 244 q 305 172 277 187 q 369 157 332 157 q 436 174 409 157 q 478 224 464 191 q 492 306 492 257 l 492 1010 m 696 1101 l 597 1221 l 498 1101 l 319 1101 l 319 1108 l 519 1325 l 675 1325 l 875 1108 l 875 1101 l 696 1101 z "},"Ɉ":{"ha":792,"x_min":32,"x_max":841,"o":"m 492 1010 l 703 1010 l 703 306 q 660 136 703 208 q 539 25 616 64 q 359 -14 461 -14 q 193 18 267 -14 q 75 117 119 51 q 33 284 32 183 l 245 284 q 262 216 246 244 q 305 172 277 187 q 369 157 332 157 q 436 174 409 157 q 478 224 464 191 q 492 306 492 257 l 492 1010 m 349 541 l 349 665 l 841 665 l 841 541 l 349 541 z "},"Ϳ":{"ha":792,"x_min":32,"x_max":703,"o":"m 492 1010 l 703 1010 l 703 306 q 660 136 703 208 q 539 25 616 64 q 359 -14 461 -14 q 193 18 267 -14 q 75 117 119 51 q 33 284 32 183 l 245 284 q 262 216 246 244 q 305 172 277 187 q 369 157 332 157 q 436 174 409 157 q 478 224 464 191 q 492 306 492 257 l 492 1010 z "},"Ј":{"ha":792,"x_min":32,"x_max":703,"o":"m 492 1010 l 703 1010 l 703 306 q 660 136 703 208 q 539 25 616 64 q 359 -14 461 -14 q 193 18 267 -14 q 75 117 119 51 q 33 284 32 183 l 245 284 q 262 216 246 244 q 305 172 277 187 q 369 157 332 157 q 436 174 409 157 q 478 224 464 191 q 492 306 492 257 l 492 1010 z "},"K":{"ha":958,"x_min":88,"x_max":939,"o":"m 88 0 l 88 1010 l 301 1010 l 301 565 l 315 565 l 678 1010 l 934 1010 l 559 558 l 939 0 l 683 0 l 406 415 l 301 287 l 301 0 l 88 0 z "},"Ķ":{"ha":958,"x_min":88,"x_max":939,"o":"m 88 0 l 88 1010 l 301 1010 l 301 565 l 315 565 l 678 1010 l 934 1010 l 559 558 l 939 0 l 683 0 l 406 415 l 301 287 l 301 0 l 88 0 m 318 -323 l 379 -79 l 574 -79 l 466 -323 l 318 -323 z "},"Ǩ":{"ha":958,"x_min":88,"x_max":939,"o":"m 88 0 l 88 1010 l 301 1010 l 301 565 l 315 565 l 678 1010 l 934 1010 l 559 558 l 939 0 l 683 0 l 406 415 l 301 287 l 301 0 l 88 0 m 379 1325 l 478 1204 l 577 1325 l 756 1325 l 756 1318 l 556 1101 l 400 1101 l 200 1318 l 200 1325 l 379 1325 z "},"Ḱ":{"ha":958,"x_min":88,"x_max":939,"o":"m 88 0 l 88 1010 l 301 1010 l 301 565 l 315 565 l 678 1010 l 934 1010 l 559 558 l 939 0 l 683 0 l 406 415 l 301 287 l 301 0 l 88 0 m 402 1108 l 507 1332 l 701 1332 l 551 1108 l 402 1108 z "},"Ḳ":{"ha":958,"x_min":88,"x_max":939,"o":"m 88 0 l 88 1010 l 301 1010 l 301 565 l 315 565 l 678 1010 l 934 1010 l 559 558 l 939 0 l 683 0 l 406 415 l 301 287 l 301 0 l 88 0 m 475 -283 q 395 -252 429 -283 q 362 -177 362 -220 q 395 -102 362 -133 q 475 -71 429 -71 q 556 -102 522 -71 q 589 -177 589 -133 q 556 -252 589 -220 q 475 -283 522 -283 z "},"Ḵ":{"ha":958,"x_min":88,"x_max":939,"o":"m 88 0 l 88 1010 l 301 1010 l 301 565 l 315 565 l 678 1010 l 934 1010 l 559 558 l 939 0 l 683 0 l 406 415 l 301 287 l 301 0 l 88 0 m 715 -125 l 715 -239 l 235 -239 l 235 -125 l 715 -125 z "},"Ҡ":{"ha":1179,"x_min":23,"x_max":1127,"o":"m 862 0 l 537 431 l 465 431 l 465 0 l 251 0 l 251 843 l 23 843 l 23 1010 l 465 1010 l 465 607 l 507 607 l 843 1010 l 1108 1010 l 714 542 l 1127 0 l 862 0 z "},"Қ":{"ha":1028,"x_min":88,"x_max":984,"o":"m 699 0 l 374 431 l 301 431 l 301 0 l 88 0 l 88 1010 l 301 1010 l 301 607 l 344 607 l 680 1010 l 945 1010 l 551 542 l 964 0 l 699 0 m 984 152 l 984 -237 l 780 -237 l 780 152 l 984 152 z "},"Ƙ":{"ha":1013,"x_min":88,"x_max":1003,"o":"m 88 0 l 88 1010 l 301 1010 l 301 575 l 315 575 l 646 926 q 757 1004 698 980 q 877 1022 815 1028 q 1003 978 940 1015 l 935 826 q 863 838 893 848 q 799 792 834 828 l 561 544 l 978 0 l 722 0 l 425 393 l 301 260 l 301 0 l 88 0 z "},"Κ":{"ha":958,"x_min":88,"x_max":939,"o":"m 88 0 l 88 1010 l 301 1010 l 301 565 l 315 565 l 678 1010 l 934 1010 l 559 558 l 939 0 l 683 0 l 406 415 l 301 287 l 301 0 l 88 0 z "},"L":{"ha":788,"x_min":88,"x_max":734,"o":"m 88 0 l 88 1010 l 301 1010 l 301 176 l 734 176 l 734 0 l 88 0 z "},"Ĺ":{"ha":788,"x_min":88,"x_max":734,"o":"m 88 0 l 88 1010 l 301 1010 l 301 176 l 734 176 l 734 0 l 88 0 m 117 1108 l 222 1332 l 416 1332 l 266 1108 l 117 1108 z "},"Ļ":{"ha":788,"x_min":88,"x_max":734,"o":"m 88 0 l 88 1010 l 301 1010 l 301 176 l 734 176 l 734 0 l 88 0 m 254 -324 l 316 -80 l 510 -80 l 402 -324 l 254 -324 z "},"Ľ":{"ha":788,"x_min":88,"x_max":734,"o":"m 88 0 l 88 1010 l 301 1010 l 301 176 l 734 176 l 734 0 l 88 0 m 453 802 l 453 1062 l 611 1062 l 575 802 l 453 802 z "},"Ḷ":{"ha":788,"x_min":88,"x_max":734,"o":"m 88 0 l 88 1010 l 301 1010 l 301 176 l 734 176 l 734 0 l 88 0 m 411 -284 q 331 -253 364 -284 q 297 -178 297 -221 q 331 -103 297 -134 q 411 -72 364 -72 q 491 -103 458 -72 q 525 -178 525 -134 q 491 -253 525 -221 q 411 -284 458 -284 z "},"Ḹ":{"ha":788,"x_min":-47,"x_max":734,"o":"m 88 0 l 88 1010 l 301 1010 l 301 176 l 734 176 l 734 0 l 88 0 m 411 -284 q 331 -253 364 -284 q 297 -178 297 -221 q 331 -103 297 -134 q 411 -72 364 -72 q 491 -103 458 -72 q 525 -178 525 -134 q 491 -253 525 -221 q 411 -284 458 -284 m 433 1263 l 433 1149 l -47 1149 l -47 1263 l 433 1263 z "},"Ḻ":{"ha":788,"x_min":88,"x_max":734,"o":"m 88 0 l 88 1010 l 301 1010 l 301 176 l 734 176 l 734 0 l 88 0 m 652 -126 l 652 -240 l 171 -240 l 171 -126 l 652 -126 z "},"Ḽ":{"ha":788,"x_min":88,"x_max":734,"o":"m 88 0 l 88 1010 l 301 1010 l 301 176 l 734 176 l 734 0 l 88 0 m 510 -287 l 411 -167 l 312 -287 l 133 -287 l 133 -280 l 333 -63 l 489 -63 l 689 -280 l 689 -287 l 510 -287 z "},"Ł":{"ha":813,"x_min":20,"x_max":777,"o":"m 477 653 l 477 536 l 20 409 l 20 525 l 477 653 m 131 0 l 131 1010 l 344 1010 l 344 176 l 777 176 l 777 0 l 131 0 z "},"Ƚ":{"ha":788,"x_min":-52,"x_max":734,"o":"m 88 0 l 88 1010 l 301 1010 l 301 176 l 734 176 l 734 0 l 88 0 m -53 471 l -53 594 l 439 594 l 439 471 l -53 471 z "},"ǈ":{"ha":1166,"x_min":88,"x_max":1090,"o":"m 88 0 l 88 1010 l 301 1010 l 301 176 l 734 176 l 734 0 l 88 0 m 872 758 l 1082 758 l 1082 -37 q 1048 -180 1082 -125 q 949 -259 1013 -234 q 795 -284 884 -284 q 774 -284 784 -284 q 753 -283 764 -284 l 753 -119 q 767 -120 761 -119 q 780 -120 773 -120 q 852 -98 831 -120 q 872 -34 872 -77 l 872 758 m 977 855 q 897 887 930 855 q 863 962 863 918 q 897 1036 863 1005 q 977 1068 930 1068 q 1057 1036 1024 1068 q 1090 962 1090 1005 q 1057 887 1090 918 q 977 855 1024 855 z "},"M":{"ha":1271,"x_min":88,"x_max":1183,"o":"m 88 1010 l 351 1010 l 629 331 l 641 331 l 919 1010 l 1183 1010 l 1183 0 l 976 0 l 976 657 l 967 657 l 706 5 l 565 5 l 303 660 l 295 660 l 295 0 l 88 0 l 88 1010 z "},"Ḿ":{"ha":1271,"x_min":88,"x_max":1183,"o":"m 88 1010 l 351 1010 l 629 331 l 641 331 l 919 1010 l 1183 1010 l 1183 0 l 976 0 l 976 657 l 967 657 l 706 5 l 565 5 l 303 660 l 295 660 l 295 0 l 88 0 l 88 1010 m 560 1108 l 664 1332 l 859 1332 l 708 1108 l 560 1108 z "},"Ṁ":{"ha":1271,"x_min":88,"x_max":1183,"o":"m 88 1010 l 351 1010 l 629 331 l 641 331 l 919 1010 l 1183 1010 l 1183 0 l 976 0 l 976 657 l 967 657 l 706 5 l 565 5 l 303 660 l 295 660 l 295 0 l 88 0 l 88 1010 m 636 1108 q 555 1139 589 1108 q 522 1214 522 1170 q 555 1289 522 1258 q 635 1320 589 1320 q 716 1289 683 1320 q 749 1214 749 1258 q 716 1139 749 1170 q 636 1108 683 1108 z "},"Ṃ":{"ha":1271,"x_min":88,"x_max":1183,"o":"m 88 1010 l 351 1010 l 629 331 l 641 331 l 919 1010 l 1183 1010 l 1183 0 l 976 0 l 976 657 l 967 657 l 706 5 l 565 5 l 303 660 l 295 660 l 295 0 l 88 0 l 88 1010 m 635 -284 q 555 -253 588 -284 q 521 -178 521 -221 q 555 -103 521 -134 q 635 -72 588 -72 q 715 -103 682 -72 q 749 -178 749 -134 q 715 -253 749 -221 q 635 -284 682 -284 z "},"Ӎ":{"ha":1362,"x_min":88,"x_max":1350,"o":"m 88 1010 l 351 1010 l 629 331 l 641 331 l 919 1010 l 1183 1010 l 1183 0 l 976 0 l 976 657 l 967 657 l 706 5 l 565 5 l 303 660 l 295 660 l 295 0 l 88 0 l 88 1010 m 1350 115 l 1350 -3 q 1334 -109 1350 -57 q 1289 -208 1318 -162 q 1223 -289 1261 -254 l 1111 -240 q 1144 -175 1127 -208 q 1171 -105 1160 -143 q 1182 -15 1183 -66 l 1182 115 l 1350 115 z "},"Μ":{"ha":1271,"x_min":88,"x_max":1183,"o":"m 88 1010 l 351 1010 l 629 331 l 641 331 l 919 1010 l 1183 1010 l 1183 0 l 976 0 l 976 657 l 967 657 l 706 5 l 565 5 l 303 660 l 295 660 l 295 0 l 88 0 l 88 1010 z "},"Ϻ":{"ha":1271,"x_min":88,"x_max":1183,"o":"m 88 1010 l 351 1010 l 629 331 l 641 331 l 919 1010 l 1183 1010 l 1183 0 l 976 0 l 976 657 l 967 657 l 706 5 l 565 5 l 303 660 l 295 660 l 295 0 l 88 0 l 88 1010 z "},"М":{"ha":1271,"x_min":88,"x_max":1183,"o":"m 88 1010 l 351 1010 l 629 331 l 641 331 l 919 1010 l 1183 1010 l 1183 0 l 976 0 l 976 657 l 967 657 l 706 5 l 565 5 l 303 660 l 295 660 l 295 0 l 88 0 l 88 1010 z "},"N":{"ha":1021,"x_min":88,"x_max":933,"o":"m 933 1010 l 933 0 l 748 0 l 309 636 l 301 636 l 301 0 l 88 0 l 88 1010 l 275 1010 l 711 375 l 720 375 l 720 1010 l 933 1010 z "},"Ñ":{"ha":1021,"x_min":88,"x_max":933,"o":"m 933 1010 l 933 0 l 748 0 l 309 636 l 301 636 l 301 0 l 88 0 l 88 1010 l 275 1010 l 711 375 l 720 375 l 720 1010 l 933 1010 m 370 1103 l 253 1105 q 300 1249 253 1199 q 413 1300 346 1300 q 473 1289 448 1300 q 518 1263 498 1278 q 556 1237 538 1248 q 595 1226 574 1226 q 639 1248 624 1227 q 654 1303 654 1269 l 769 1299 q 722 1155 768 1206 q 609 1104 675 1105 q 547 1115 572 1104 q 503 1141 522 1126 q 467 1167 484 1156 q 427 1178 449 1178 q 385 1158 401 1178 q 370 1103 370 1138 z "},"Ń":{"ha":1021,"x_min":88,"x_max":933,"o":"m 933 1010 l 933 0 l 748 0 l 309 636 l 301 636 l 301 0 l 88 0 l 88 1010 l 275 1010 l 711 375 l 720 375 l 720 1010 l 933 1010 m 436 1108 l 540 1332 l 734 1332 l 584 1108 l 436 1108 z "},"Ņ":{"ha":1021,"x_min":88,"x_max":933,"o":"m 933 1010 l 933 0 l 748 0 l 309 636 l 301 636 l 301 0 l 88 0 l 88 1010 l 275 1010 l 711 375 l 720 375 l 720 1010 l 933 1010 m 354 -324 l 415 -80 l 610 -80 l 502 -324 l 354 -324 z "},"Ň":{"ha":1021,"x_min":88,"x_max":933,"o":"m 933 1010 l 933 0 l 748 0 l 309 636 l 301 636 l 301 0 l 88 0 l 88 1010 l 275 1010 l 711 375 l 720 375 l 720 1010 l 933 1010 m 412 1325 l 511 1204 l 610 1325 l 789 1325 l 789 1318 l 589 1101 l 433 1101 l 233 1318 l 233 1325 l 412 1325 z "},"Ǹ":{"ha":1021,"x_min":88,"x_max":933,"o":"m 933 1010 l 933 0 l 748 0 l 309 636 l 301 636 l 301 0 l 88 0 l 88 1010 l 275 1010 l 711 375 l 720 375 l 720 1010 l 933 1010 m 438 1108 l 288 1332 l 481 1332 l 586 1108 l 438 1108 z "},"Ṅ":{"ha":1021,"x_min":88,"x_max":933,"o":"m 933 1010 l 933 0 l 748 0 l 309 636 l 301 636 l 301 0 l 88 0 l 88 1010 l 275 1010 l 711 375 l 720 375 l 720 1010 l 933 1010 m 511 1108 q 431 1139 465 1108 q 398 1214 398 1170 q 431 1289 398 1258 q 511 1320 465 1320 q 592 1289 558 1320 q 625 1214 625 1258 q 592 1139 625 1170 q 511 1108 558 1108 z "},"Ṇ":{"ha":1021,"x_min":88,"x_max":933,"o":"m 933 1010 l 933 0 l 748 0 l 309 636 l 301 636 l 301 0 l 88 0 l 88 1010 l 275 1010 l 711 375 l 720 375 l 720 1010 l 933 1010 m 511 -284 q 431 -253 464 -284 q 397 -178 397 -221 q 431 -103 397 -134 q 511 -72 464 -72 q 591 -103 558 -72 q 624 -178 624 -134 q 591 -253 624 -221 q 511 -284 558 -284 z "},"Ṉ":{"ha":1021,"x_min":88,"x_max":933,"o":"m 933 1010 l 933 0 l 748 0 l 309 636 l 301 636 l 301 0 l 88 0 l 88 1010 l 275 1010 l 711 375 l 720 375 l 720 1010 l 933 1010 m 751 -126 l 751 -240 l 271 -240 l 271 -126 l 751 -126 z "},"Ṋ":{"ha":1021,"x_min":88,"x_max":933,"o":"m 933 1010 l 933 0 l 748 0 l 309 636 l 301 636 l 301 0 l 88 0 l 88 1010 l 275 1010 l 711 375 l 720 375 l 720 1010 l 933 1010 m 610 -287 l 511 -167 l 412 -287 l 233 -287 l 233 -280 l 433 -63 l 589 -63 l 789 -280 l 789 -287 l 610 -287 z "},"Ɲ":{"ha":1045,"x_min":-36,"x_max":956,"o":"m 111 0 l 325 0 l 325 -46 q 303 -166 325 -120 q 242 -239 280 -213 q 158 -274 205 -264 q 62 -284 111 -284 q 13 -284 43 -284 q -36 -279 -17 -283 l -36 -118 q -14 -120 -26 -120 q 7 -120 -2 -120 q 80 -105 48 -120 q 111 -46 111 -90 l 111 0 m 956 1010 l 956 0 l 772 0 l 332 636 l 325 636 l 325 0 l 111 0 l 111 1010 l 299 1010 l 735 375 l 744 375 l 744 1010 l 956 1010 z "},"Ŋ":{"ha":1021,"x_min":88,"x_max":933,"o":"m 748 0 l 933 0 l 933 -40 q 896 -193 933 -137 q 792 -275 859 -250 q 636 -299 725 -299 q 597 -297 618 -299 q 559 -289 577 -294 l 559 -130 q 593 -136 574 -134 q 632 -138 613 -138 q 716 -115 684 -138 q 748 -43 748 -92 l 748 0 m 933 1010 l 933 0 l 748 0 l 309 636 l 301 636 l 301 0 l 88 0 l 88 1010 l 275 1010 l 711 375 l 720 375 l 720 1010 l 933 1010 z "},"И":{"ha":1021,"x_min":88,"x_max":933,"o":"m 88 1010 l 301 1010 l 301 375 l 309 375 l 746 1010 l 933 1010 l 933 0 l 719 0 l 719 636 l 712 636 l 273 0 l 88 0 l 88 1010 z "},"Ѝ":{"ha":1021,"x_min":88,"x_max":933,"o":"m 88 1010 l 301 1010 l 301 375 l 309 375 l 746 1010 l 933 1010 l 933 0 l 719 0 l 719 636 l 712 636 l 273 0 l 88 0 l 88 1010 m 438 1108 l 288 1332 l 481 1332 l 586 1108 l 438 1108 z "},"Й":{"ha":1021,"x_min":88,"x_max":933,"o":"m 88 1010 l 301 1010 l 301 375 l 309 375 l 746 1010 l 933 1010 l 933 0 l 719 0 l 719 636 l 712 636 l 273 0 l 88 0 l 88 1010 m 609 1274 l 755 1274 q 689 1130 755 1185 q 511 1075 623 1075 q 333 1130 399 1075 q 267 1274 267 1185 l 413 1274 q 435 1213 412 1240 q 511 1186 457 1186 q 586 1213 563 1186 q 609 1274 609 1239 z "},"Ӣ":{"ha":1021,"x_min":88,"x_max":933,"o":"m 88 1010 l 301 1010 l 301 375 l 309 375 l 746 1010 l 933 1010 l 933 0 l 719 0 l 719 636 l 712 636 l 273 0 l 88 0 l 88 1010 m 751 1263 l 751 1149 l 271 1149 l 271 1263 l 751 1263 z "},"Ӥ":{"ha":1021,"x_min":88,"x_max":933,"o":"m 88 1010 l 301 1010 l 301 375 l 309 375 l 746 1010 l 933 1010 l 933 0 l 719 0 l 719 636 l 712 636 l 273 0 l 88 0 l 88 1010 m 361 1114 q 288 1144 318 1114 q 257 1214 257 1173 q 288 1285 257 1256 q 361 1314 318 1314 q 433 1285 403 1314 q 463 1214 463 1256 q 433 1144 463 1173 q 361 1114 403 1114 m 662 1114 q 589 1144 620 1114 q 559 1214 559 1173 q 589 1285 559 1256 q 662 1314 620 1314 q 735 1285 705 1314 q 765 1214 765 1256 q 735 1144 765 1173 q 662 1114 705 1114 z "},"Ҋ":{"ha":1021,"x_min":88,"x_max":1100,"o":"m 88 1010 l 301 1010 l 301 375 l 309 375 l 746 1010 l 933 1010 l 933 0 l 719 0 l 719 636 l 712 636 l 273 0 l 88 0 l 88 1010 m 609 1274 l 755 1274 q 689 1130 755 1185 q 511 1075 623 1075 q 333 1130 399 1075 q 267 1274 267 1185 l 413 1274 q 435 1213 412 1240 q 511 1186 457 1186 q 586 1213 563 1186 q 609 1274 609 1239 m 1100 115 l 1100 -3 q 1085 -109 1101 -57 q 1040 -208 1068 -162 q 974 -289 1011 -254 l 862 -240 q 894 -175 878 -208 q 922 -105 910 -143 q 933 -15 933 -66 l 933 115 l 1100 115 z "},"Ͷ":{"ha":1076,"x_min":115,"x_max":960,"o":"m 115 1010 l 328 1010 l 328 375 l 336 375 l 773 1010 l 960 1010 l 960 0 l 746 0 l 746 636 l 739 636 l 300 0 l 115 0 l 115 1010 z "},"Ν":{"ha":1021,"x_min":88,"x_max":933,"o":"m 933 1010 l 933 0 l 748 0 l 309 636 l 301 636 l 301 0 l 88 0 l 88 1010 l 275 1010 l 711 375 l 720 375 l 720 1010 l 933 1010 z "},"ǋ":{"ha":1362,"x_min":88,"x_max":1287,"o":"m 933 1010 l 933 0 l 748 0 l 309 636 l 301 636 l 301 0 l 88 0 l 88 1010 l 275 1010 l 711 375 l 720 375 l 720 1010 l 933 1010 m 1068 758 l 1278 758 l 1278 -37 q 1244 -180 1278 -125 q 1145 -259 1209 -234 q 991 -284 1081 -284 q 970 -284 981 -284 q 949 -283 960 -284 l 949 -119 q 963 -120 957 -119 q 977 -120 970 -120 q 1048 -98 1027 -120 q 1068 -34 1068 -77 l 1068 758 m 1173 855 q 1093 887 1126 855 q 1059 962 1059 918 q 1093 1036 1059 1005 q 1173 1068 1126 1068 q 1254 1036 1220 1068 q 1287 962 1287 1005 q 1254 887 1287 918 q 1173 855 1220 855 z "},"O":{"ha":1086,"x_min":70,"x_max":1016,"o":"m 1016 505 q 954 224 1016 340 q 784 47 891 108 q 543 -14 677 -14 q 301 47 408 -14 q 132 224 194 109 q 70 505 70 340 q 132 786 70 670 q 301 963 194 902 q 543 1024 408 1024 q 784 963 677 1024 q 954 786 891 902 q 1016 505 1016 670 m 799 505 q 768 686 799 612 q 678 797 736 759 q 543 835 620 835 q 408 797 466 835 q 318 686 350 759 q 287 505 287 612 q 318 325 287 398 q 408 213 350 251 q 543 175 466 175 q 678 213 620 175 q 768 325 736 251 q 799 505 799 398 z "},"Ö":{"ha":1086,"x_min":70,"x_max":1016,"o":"m 1016 505 q 954 224 1016 340 q 784 47 891 108 q 543 -14 677 -14 q 301 47 408 -14 q 132 224 194 109 q 70 505 70 340 q 132 786 70 670 q 301 963 194 902 q 543 1024 408 1024 q 784 963 677 1024 q 954 786 891 902 q 1016 505 1016 670 m 799 505 q 768 686 799 612 q 678 797 736 759 q 543 835 620 835 q 408 797 466 835 q 318 686 350 759 q 287 505 287 612 q 318 325 287 398 q 408 213 350 251 q 543 175 466 175 q 678 213 620 175 q 768 325 736 251 q 799 505 799 398 m 393 1114 q 320 1144 350 1114 q 289 1214 289 1173 q 320 1285 289 1256 q 393 1314 350 1314 q 465 1285 436 1314 q 495 1214 495 1256 q 465 1144 495 1173 q 393 1114 436 1114 m 694 1114 q 621 1144 652 1114 q 591 1214 591 1173 q 621 1285 591 1256 q 694 1314 652 1314 q 767 1285 737 1314 q 797 1214 797 1256 q 767 1144 797 1173 q 694 1114 737 1114 z "},"Õ":{"ha":1086,"x_min":70,"x_max":1016,"o":"m 1016 505 q 954 224 1016 340 q 784 47 891 108 q 543 -14 677 -14 q 301 47 408 -14 q 132 224 194 109 q 70 505 70 340 q 132 786 70 670 q 301 963 194 902 q 543 1024 408 1024 q 784 963 677 1024 q 954 786 891 902 q 1016 505 1016 670 m 799 505 q 768 686 799 612 q 678 797 736 759 q 543 835 620 835 q 408 797 466 835 q 318 686 350 759 q 287 505 287 612 q 318 325 287 398 q 408 213 350 251 q 543 175 466 175 q 678 213 620 175 q 768 325 736 251 q 799 505 799 398 m 401 1110 l 285 1111 q 331 1256 285 1205 q 445 1307 378 1306 q 505 1295 480 1307 q 549 1270 529 1284 q 588 1244 570 1255 q 627 1233 606 1233 q 671 1254 656 1233 q 686 1309 686 1275 l 801 1306 q 754 1162 800 1212 q 640 1111 707 1111 q 579 1122 604 1110 q 535 1147 554 1133 q 499 1173 516 1162 q 459 1185 481 1185 q 417 1164 433 1185 q 401 1110 401 1144 z "},"Ø":{"ha":1086,"x_min":70,"x_max":1016,"o":"m 228 -48 l 132 17 l 856 1056 l 952 991 l 228 -48 m 1016 505 q 954 224 1016 340 q 784 47 891 108 q 543 -14 677 -14 q 301 47 408 -14 q 132 224 194 109 q 70 505 70 340 q 132 786 70 670 q 301 963 194 902 q 543 1024 408 1024 q 784 963 677 1024 q 954 786 891 902 q 1016 505 1016 670 m 799 505 q 768 686 799 612 q 678 797 736 759 q 543 835 620 835 q 408 797 466 835 q 318 686 350 759 q 287 505 287 612 q 318 325 287 398 q 408 213 350 251 q 543 175 466 175 q 678 213 620 175 q 768 325 736 251 q 799 505 799 398 z "},"Ơ":{"ha":1129,"x_min":70,"x_max":1112,"o":"m 977 1059 l 1112 1059 q 1050 836 1112 915 q 851 757 987 757 l 851 865 q 950 916 923 865 q 977 1059 977 968 m 1016 505 q 954 224 1016 340 q 784 47 891 108 q 543 -14 677 -14 q 301 47 408 -14 q 132 224 194 109 q 70 505 70 340 q 132 786 70 670 q 301 963 194 902 q 543 1024 408 1024 q 784 963 677 1024 q 954 786 891 902 q 1016 505 1016 670 m 799 505 q 768 686 799 612 q 678 797 736 759 q 543 835 620 835 q 408 797 466 835 q 318 686 350 759 q 287 505 287 612 q 318 325 287 398 q 408 213 350 251 q 543 175 466 175 q 678 213 620 175 q 768 325 736 251 q 799 505 799 398 z "},"Ò":{"ha":1086,"x_min":70,"x_max":1016,"o":"m 1016 505 q 954 224 1016 340 q 784 47 891 108 q 543 -14 677 -14 q 301 47 408 -14 q 132 224 194 109 q 70 505 70 340 q 132 786 70 670 q 301 963 194 902 q 543 1024 408 1024 q 784 963 677 1024 q 954 786 891 902 q 1016 505 1016 670 m 799 505 q 768 686 799 612 q 678 797 736 759 q 543 835 620 835 q 408 797 466 835 q 318 686 350 759 q 287 505 287 612 q 318 325 287 398 q 408 213 350 251 q 543 175 466 175 q 678 213 620 175 q 768 325 736 251 q 799 505 799 398 m 470 1108 l 320 1332 l 513 1332 l 618 1108 l 470 1108 z "},"Ó":{"ha":1086,"x_min":70,"x_max":1016,"o":"m 1016 505 q 954 224 1016 340 q 784 47 891 108 q 543 -14 677 -14 q 301 47 408 -14 q 132 224 194 109 q 70 505 70 340 q 132 786 70 670 q 301 963 194 902 q 543 1024 408 1024 q 784 963 677 1024 q 954 786 891 902 q 1016 505 1016 670 m 799 505 q 768 686 799 612 q 678 797 736 759 q 543 835 620 835 q 408 797 466 835 q 318 686 350 759 q 287 505 287 612 q 318 325 287 398 q 408 213 350 251 q 543 175 466 175 q 678 213 620 175 q 768 325 736 251 q 799 505 799 398 m 468 1108 l 572 1332 l 766 1332 l 616 1108 l 468 1108 z "},"Ô":{"ha":1086,"x_min":70,"x_max":1016,"o":"m 1016 505 q 954 224 1016 340 q 784 47 891 108 q 543 -14 677 -14 q 301 47 408 -14 q 132 224 194 109 q 70 505 70 340 q 132 786 70 670 q 301 963 194 902 q 543 1024 408 1024 q 784 963 677 1024 q 954 786 891 902 q 1016 505 1016 670 m 799 505 q 768 686 799 612 q 678 797 736 759 q 543 835 620 835 q 408 797 466 835 q 318 686 350 759 q 287 505 287 612 q 318 325 287 398 q 408 213 350 251 q 543 175 466 175 q 678 213 620 175 q 768 325 736 251 q 799 505 799 398 m 642 1101 l 543 1221 l 444 1101 l 265 1101 l 265 1108 l 465 1325 l 621 1325 l 821 1108 l 821 1101 l 642 1101 z "},"Ō":{"ha":1086,"x_min":70,"x_max":1016,"o":"m 1016 505 q 954 224 1016 340 q 784 47 891 108 q 543 -14 677 -14 q 301 47 408 -14 q 132 224 194 109 q 70 505 70 340 q 132 786 70 670 q 301 963 194 902 q 543 1024 408 1024 q 784 963 677 1024 q 954 786 891 902 q 1016 505 1016 670 m 799 505 q 768 686 799 612 q 678 797 736 759 q 543 835 620 835 q 408 797 466 835 q 318 686 350 759 q 287 505 287 612 q 318 325 287 398 q 408 213 350 251 q 543 175 466 175 q 678 213 620 175 q 768 325 736 251 q 799 505 799 398 m 783 1263 l 783 1149 l 303 1149 l 303 1263 l 783 1263 z "},"Ŏ":{"ha":1086,"x_min":70,"x_max":1016,"o":"m 1016 505 q 954 224 1016 340 q 784 47 891 108 q 543 -14 677 -14 q 301 47 408 -14 q 132 224 194 109 q 70 505 70 340 q 132 786 70 670 q 301 963 194 902 q 543 1024 408 1024 q 784 963 677 1024 q 954 786 891 902 q 1016 505 1016 670 m 799 505 q 768 686 799 612 q 678 797 736 759 q 543 835 620 835 q 408 797 466 835 q 318 686 350 759 q 287 505 287 612 q 318 325 287 398 q 408 213 350 251 q 543 175 466 175 q 678 213 620 175 q 768 325 736 251 q 799 505 799 398 m 641 1274 l 787 1274 q 721 1130 787 1185 q 543 1075 655 1075 q 365 1130 431 1075 q 299 1274 299 1185 l 445 1274 q 467 1213 444 1240 q 543 1186 489 1186 q 618 1213 595 1186 q 641 1274 641 1239 z "},"Ő":{"ha":1086,"x_min":70,"x_max":1016,"o":"m 1016 505 q 954 224 1016 340 q 784 47 891 108 q 543 -14 677 -14 q 301 47 408 -14 q 132 224 194 109 q 70 505 70 340 q 132 786 70 670 q 301 963 194 902 q 543 1024 408 1024 q 784 963 677 1024 q 954 786 891 902 q 1016 505 1016 670 m 799 505 q 768 686 799 612 q 678 797 736 759 q 543 835 620 835 q 408 797 466 835 q 318 686 350 759 q 287 505 287 612 q 318 325 287 398 q 408 213 350 251 q 543 175 466 175 q 678 213 620 175 q 768 325 736 251 q 799 505 799 398 m 580 1098 l 736 1302 l 914 1302 l 728 1098 l 580 1098 m 327 1098 l 459 1302 l 635 1302 l 474 1098 l 327 1098 z "},"Ǒ":{"ha":1086,"x_min":70,"x_max":1016,"o":"m 1016 505 q 954 224 1016 340 q 784 47 891 108 q 543 -14 677 -14 q 301 47 408 -14 q 132 224 194 109 q 70 505 70 340 q 132 786 70 670 q 301 963 194 902 q 543 1024 408 1024 q 784 963 677 1024 q 954 786 891 902 q 1016 505 1016 670 m 799 505 q 768 686 799 612 q 678 797 736 759 q 543 835 620 835 q 408 797 466 835 q 318 686 350 759 q 287 505 287 612 q 318 325 287 398 q 408 213 350 251 q 543 175 466 175 q 678 213 620 175 q 768 325 736 251 q 799 505 799 398 m 444 1325 l 543 1204 l 642 1325 l 821 1325 l 821 1318 l 621 1101 l 465 1101 l 265 1318 l 265 1325 l 444 1325 z "},"Ǫ":{"ha":1086,"x_min":70,"x_max":1016,"o":"m 1016 505 q 954 224 1016 340 q 784 47 891 108 q 543 -14 677 -14 q 301 47 408 -14 q 132 224 194 109 q 70 505 70 340 q 132 786 70 670 q 301 963 194 902 q 543 1024 408 1024 q 784 963 677 1024 q 954 786 891 902 q 1016 505 1016 670 m 799 505 q 768 686 799 612 q 678 797 736 759 q 543 835 620 835 q 408 797 466 835 q 318 686 350 759 q 287 505 287 612 q 318 325 287 398 q 408 213 350 251 q 543 175 466 175 q 678 213 620 175 q 768 325 736 251 q 799 505 799 398 m 569 -282 q 460 -248 504 -282 q 404 -152 416 -215 q 405 -71 397 -112 q 440 4 414 -30 q 509 58 466 38 l 666 1 q 590 -46 619 -21 q 561 -107 560 -71 q 573 -144 560 -131 q 609 -156 585 -156 q 638 -152 625 -156 q 660 -145 651 -147 l 682 -253 q 636 -273 664 -263 q 569 -282 607 -282 z "},"Ǭ":{"ha":1086,"x_min":70,"x_max":1016,"o":"m 1016 505 q 954 224 1016 340 q 784 47 891 108 q 543 -14 677 -14 q 301 47 408 -14 q 132 224 194 109 q 70 505 70 340 q 132 786 70 670 q 301 963 194 902 q 543 1024 408 1024 q 784 963 677 1024 q 954 786 891 902 q 1016 505 1016 670 m 799 505 q 768 686 799 612 q 678 797 736 759 q 543 835 620 835 q 408 797 466 835 q 318 686 350 759 q 287 505 287 612 q 318 325 287 398 q 408 213 350 251 q 543 175 466 175 q 678 213 620 175 q 768 325 736 251 q 799 505 799 398 m 569 -282 q 460 -248 504 -282 q 404 -152 416 -215 q 405 -71 397 -112 q 440 4 414 -30 q 509 58 466 38 l 666 1 q 590 -46 619 -21 q 561 -107 560 -71 q 573 -144 560 -131 q 609 -156 585 -156 q 638 -152 625 -156 q 660 -145 651 -147 l 682 -253 q 636 -273 664 -263 q 569 -282 607 -282 m 783 1263 l 783 1149 l 303 1149 l 303 1263 l 783 1263 z "},"Ȍ":{"ha":1086,"x_min":70,"x_max":1016,"o":"m 1016 505 q 954 224 1016 340 q 784 47 891 108 q 543 -14 677 -14 q 301 47 408 -14 q 132 224 194 109 q 70 505 70 340 q 132 786 70 670 q 301 963 194 902 q 543 1024 408 1024 q 784 963 677 1024 q 954 786 891 902 q 1016 505 1016 670 m 799 505 q 768 686 799 612 q 678 797 736 759 q 543 835 620 835 q 408 797 466 835 q 318 686 350 759 q 287 505 287 612 q 318 325 287 398 q 408 213 350 251 q 543 175 466 175 q 678 213 620 175 q 768 325 736 251 q 799 505 799 398 m 354 1108 l 200 1332 l 397 1332 l 502 1108 l 354 1108 m 597 1108 l 492 1332 l 683 1332 l 743 1108 l 597 1108 z "},"Ȏ":{"ha":1086,"x_min":70,"x_max":1016,"o":"m 1016 505 q 954 224 1016 340 q 784 47 891 108 q 543 -14 677 -14 q 301 47 408 -14 q 132 224 194 109 q 70 505 70 340 q 132 786 70 670 q 301 963 194 902 q 543 1024 408 1024 q 784 963 677 1024 q 954 786 891 902 q 1016 505 1016 670 m 799 505 q 768 686 799 612 q 678 797 736 759 q 543 835 620 835 q 408 797 466 835 q 318 686 350 759 q 287 505 287 612 q 318 325 287 398 q 408 213 350 251 q 543 175 466 175 q 678 213 620 175 q 768 325 736 251 q 799 505 799 398 m 297 1132 q 363 1279 297 1222 q 542 1337 429 1337 q 720 1279 654 1337 q 786 1132 786 1222 l 640 1132 q 617 1193 640 1166 q 542 1220 594 1220 q 466 1193 488 1220 q 444 1132 443 1166 l 297 1132 z "},"Ȫ":{"ha":1086,"x_min":70,"x_max":1016,"o":"m 1016 505 q 954 224 1016 340 q 784 47 891 108 q 543 -14 677 -14 q 301 47 408 -14 q 132 224 194 109 q 70 505 70 340 q 132 786 70 670 q 301 963 194 902 q 543 1024 408 1024 q 784 963 677 1024 q 954 786 891 902 q 1016 505 1016 670 m 799 505 q 768 686 799 612 q 678 797 736 759 q 543 835 620 835 q 408 797 466 835 q 318 686 350 759 q 287 505 287 612 q 318 325 287 398 q 408 213 350 251 q 543 175 466 175 q 678 213 620 175 q 768 325 736 251 q 799 505 799 398 m 393 1114 q 320 1144 350 1114 q 289 1214 289 1173 q 320 1285 289 1256 q 393 1314 350 1314 q 465 1285 436 1314 q 495 1214 495 1256 q 465 1144 495 1173 q 393 1114 436 1114 m 694 1114 q 621 1144 652 1114 q 591 1214 591 1173 q 621 1285 591 1256 q 694 1314 652 1314 q 767 1285 737 1314 q 797 1214 797 1256 q 767 1144 797 1173 q 694 1114 737 1114 m 783 1515 l 783 1401 l 303 1401 l 303 1515 l 783 1515 z "},"Ȭ":{"ha":1086,"x_min":70,"x_max":1016,"o":"m 1016 505 q 954 224 1016 340 q 784 47 891 108 q 543 -14 677 -14 q 301 47 408 -14 q 132 224 194 109 q 70 505 70 340 q 132 786 70 670 q 301 963 194 902 q 543 1024 408 1024 q 784 963 677 1024 q 954 786 891 902 q 1016 505 1016 670 m 799 505 q 768 686 799 612 q 678 797 736 759 q 543 835 620 835 q 408 797 466 835 q 318 686 350 759 q 287 505 287 612 q 318 325 287 398 q 408 213 350 251 q 543 175 466 175 q 678 213 620 175 q 768 325 736 251 q 799 505 799 398 m 663 1268 l 749 1244 q 716 1158 749 1196 q 633 1121 684 1121 q 571 1132 596 1121 q 523 1155 545 1144 q 470 1166 500 1166 q 437 1149 450 1166 q 424 1108 424 1131 l 339 1131 q 370 1218 339 1180 q 452 1256 401 1256 q 509 1244 482 1256 q 561 1222 535 1233 q 616 1211 587 1211 q 648 1227 634 1211 q 663 1268 662 1244 m 784 1449 l 784 1334 l 302 1334 l 302 1449 l 784 1449 z "},"Ȯ":{"ha":1086,"x_min":70,"x_max":1016,"o":"m 1016 505 q 954 224 1016 340 q 784 47 891 108 q 543 -14 677 -14 q 301 47 408 -14 q 132 224 194 109 q 70 505 70 340 q 132 786 70 670 q 301 963 194 902 q 543 1024 408 1024 q 784 963 677 1024 q 954 786 891 902 q 1016 505 1016 670 m 799 505 q 768 686 799 612 q 678 797 736 759 q 543 835 620 835 q 408 797 466 835 q 318 686 350 759 q 287 505 287 612 q 318 325 287 398 q 408 213 350 251 q 543 175 466 175 q 678 213 620 175 q 768 325 736 251 q 799 505 799 398 m 543 1108 q 463 1139 496 1108 q 429 1214 429 1170 q 463 1289 429 1258 q 543 1320 496 1320 q 623 1289 590 1320 q 656 1214 656 1258 q 623 1139 656 1170 q 543 1108 590 1108 z "},"Ȱ":{"ha":1086,"x_min":70,"x_max":1016,"o":"m 1016 505 q 954 224 1016 340 q 784 47 891 108 q 543 -14 677 -14 q 301 47 408 -14 q 132 224 194 109 q 70 505 70 340 q 132 786 70 670 q 301 963 194 902 q 543 1024 408 1024 q 784 963 677 1024 q 954 786 891 902 q 1016 505 1016 670 m 799 505 q 768 686 799 612 q 678 797 736 759 q 543 835 620 835 q 408 797 466 835 q 318 686 350 759 q 287 505 287 612 q 318 325 287 398 q 408 213 350 251 q 543 175 466 175 q 678 213 620 175 q 768 325 736 251 q 799 505 799 398 m 544 1114 q 469 1143 500 1114 q 438 1214 438 1173 q 469 1285 438 1256 q 544 1314 500 1314 q 618 1285 587 1314 q 649 1214 649 1256 q 618 1143 649 1173 q 544 1114 587 1114 m 783 1515 l 783 1401 l 303 1401 l 303 1515 l 783 1515 z "},"Ṍ":{"ha":1086,"x_min":70,"x_max":1016,"o":"m 1016 505 q 954 224 1016 340 q 784 47 891 108 q 543 -14 677 -14 q 301 47 408 -14 q 132 224 194 109 q 70 505 70 340 q 132 786 70 670 q 301 963 194 902 q 543 1024 408 1024 q 784 963 677 1024 q 954 786 891 902 q 1016 505 1016 670 m 799 505 q 768 686 799 612 q 678 797 736 759 q 543 835 620 835 q 408 797 466 835 q 318 686 350 759 q 287 505 287 612 q 318 325 287 398 q 408 213 350 251 q 543 175 466 175 q 678 213 620 175 q 768 325 736 251 q 799 505 799 398 m 452 1330 l 588 1504 l 776 1504 l 603 1330 l 452 1330 m 407 1095 l 295 1097 q 340 1231 295 1184 q 449 1277 385 1277 q 506 1268 482 1278 q 549 1244 530 1257 q 586 1220 568 1230 q 624 1209 604 1209 q 666 1229 652 1209 q 681 1280 680 1249 l 790 1277 q 745 1144 790 1191 q 637 1097 701 1097 q 577 1107 601 1096 q 536 1131 553 1117 q 501 1155 518 1144 q 462 1165 484 1165 q 422 1146 437 1165 q 407 1095 407 1127 z "},"Ṏ":{"ha":1086,"x_min":70,"x_max":1016,"o":"m 1016 505 q 954 224 1016 340 q 784 47 891 108 q 543 -14 677 -14 q 301 47 408 -14 q 132 224 194 109 q 70 505 70 340 q 132 786 70 670 q 301 963 194 902 q 543 1024 408 1024 q 784 963 677 1024 q 954 786 891 902 q 1016 505 1016 670 m 799 505 q 768 686 799 612 q 678 797 736 759 q 543 835 620 835 q 408 797 466 835 q 318 686 350 759 q 287 505 287 612 q 318 325 287 398 q 408 213 350 251 q 543 175 466 175 q 678 213 620 175 q 768 325 736 251 q 799 505 799 398 m 661 1256 l 748 1232 q 715 1146 748 1183 q 633 1109 683 1109 q 571 1121 596 1109 q 522 1143 545 1132 q 470 1155 499 1155 q 437 1137 450 1155 q 424 1096 424 1120 l 339 1120 q 370 1206 339 1168 q 452 1244 401 1244 q 508 1233 482 1244 q 561 1210 535 1221 q 616 1199 587 1199 q 648 1216 634 1199 q 661 1256 661 1233 m 297 1378 q 322 1435 296 1411 q 391 1458 348 1458 q 460 1435 433 1458 q 487 1378 487 1412 q 460 1321 487 1344 q 391 1299 434 1299 q 323 1321 349 1299 q 297 1378 296 1344 m 598 1377 q 624 1435 598 1411 q 693 1458 650 1458 q 762 1435 735 1458 q 788 1378 788 1411 q 762 1321 788 1344 q 693 1298 736 1298 q 624 1320 650 1298 q 598 1377 598 1343 z "},"Ṑ":{"ha":1086,"x_min":70,"x_max":1016,"o":"m 1016 505 q 954 224 1016 340 q 784 47 891 108 q 543 -14 677 -14 q 301 47 408 -14 q 132 224 194 109 q 70 505 70 340 q 132 786 70 670 q 301 963 194 902 q 543 1024 408 1024 q 784 963 677 1024 q 954 786 891 902 q 1016 505 1016 670 m 799 505 q 768 686 799 612 q 678 797 736 759 q 543 835 620 835 q 408 797 466 835 q 318 686 350 759 q 287 505 287 612 q 318 325 287 398 q 408 213 350 251 q 543 175 466 175 q 678 213 620 175 q 768 325 736 251 q 799 505 799 398 m 473 1323 l 304 1497 l 494 1497 l 631 1323 l 473 1323 m 783 1240 l 783 1126 l 303 1126 l 303 1240 l 783 1240 z "},"Ṓ":{"ha":1086,"x_min":70,"x_max":1016,"o":"m 1016 505 q 954 224 1016 340 q 784 47 891 108 q 543 -14 677 -14 q 301 47 408 -14 q 132 224 194 109 q 70 505 70 340 q 132 786 70 670 q 301 963 194 902 q 543 1024 408 1024 q 784 963 677 1024 q 954 786 891 902 q 1016 505 1016 670 m 799 505 q 768 686 799 612 q 678 797 736 759 q 543 835 620 835 q 408 797 466 835 q 318 686 350 759 q 287 505 287 612 q 318 325 287 398 q 408 213 350 251 q 543 175 466 175 q 678 213 620 175 q 768 325 736 251 q 799 505 799 398 m 455 1323 l 593 1497 l 783 1497 l 613 1323 l 455 1323 m 783 1240 l 783 1126 l 303 1126 l 303 1240 l 783 1240 z "},"Ọ":{"ha":1086,"x_min":70,"x_max":1016,"o":"m 1016 505 q 954 224 1016 340 q 784 47 891 108 q 543 -14 677 -14 q 301 47 408 -14 q 132 224 194 109 q 70 505 70 340 q 132 786 70 670 q 301 963 194 902 q 543 1024 408 1024 q 784 963 677 1024 q 954 786 891 902 q 1016 505 1016 670 m 799 505 q 768 686 799 612 q 678 797 736 759 q 543 835 620 835 q 408 797 466 835 q 318 686 350 759 q 287 505 287 612 q 318 325 287 398 q 408 213 350 251 q 543 175 466 175 q 678 213 620 175 q 768 325 736 251 q 799 505 799 398 m 543 -284 q 463 -253 496 -284 q 429 -178 429 -221 q 463 -103 429 -134 q 543 -72 496 -72 q 623 -103 590 -72 q 656 -178 656 -134 q 623 -253 656 -221 q 543 -284 590 -284 z "},"Ỏ":{"ha":1086,"x_min":70,"x_max":1016,"o":"m 1016 505 q 954 224 1016 340 q 784 47 891 108 q 543 -14 677 -14 q 301 47 408 -14 q 132 224 194 109 q 70 505 70 340 q 132 786 70 670 q 301 963 194 902 q 543 1024 408 1024 q 784 963 677 1024 q 954 786 891 902 q 1016 505 1016 670 m 799 505 q 768 686 799 612 q 678 797 736 759 q 543 835 620 835 q 408 797 466 835 q 318 686 350 759 q 287 505 287 612 q 318 325 287 398 q 408 213 350 251 q 543 175 466 175 q 678 213 620 175 q 768 325 736 251 q 799 505 799 398 m 620 1119 l 465 1119 l 454 1207 q 528 1221 506 1210 q 550 1252 550 1233 q 522 1288 550 1279 q 451 1298 494 1298 l 457 1393 q 657 1357 588 1393 q 726 1259 726 1322 q 693 1191 726 1214 q 620 1162 660 1168 l 620 1119 z "},"Ố":{"ha":1086,"x_min":70,"x_max":1025,"o":"m 1016 505 q 954 224 1016 340 q 784 47 891 108 q 543 -14 677 -14 q 301 47 408 -14 q 132 224 194 109 q 70 505 70 340 q 132 786 70 670 q 301 963 194 902 q 543 1024 408 1024 q 784 963 677 1024 q 954 786 891 902 q 1016 505 1016 670 m 799 505 q 768 686 799 612 q 678 797 736 759 q 543 835 620 835 q 408 797 466 835 q 318 686 350 759 q 287 505 287 612 q 318 325 287 398 q 408 213 350 251 q 543 175 466 175 q 678 213 620 175 q 768 325 736 251 q 799 505 799 398 m 286 1093 l 485 1246 l 598 1246 l 798 1093 l 647 1093 l 543 1176 l 437 1093 l 286 1093 m 746 1180 l 862 1365 l 1024 1365 l 865 1180 l 746 1180 z "},"Ồ":{"ha":1086,"x_min":61,"x_max":1016,"o":"m 1016 505 q 954 224 1016 340 q 784 47 891 108 q 543 -14 677 -14 q 301 47 408 -14 q 132 224 194 109 q 70 505 70 340 q 132 786 70 670 q 301 963 194 902 q 543 1024 408 1024 q 784 963 677 1024 q 954 786 891 902 q 1016 505 1016 670 m 799 505 q 768 686 799 612 q 678 797 736 759 q 543 835 620 835 q 408 797 466 835 q 318 686 350 759 q 287 505 287 612 q 318 325 287 398 q 408 213 350 251 q 543 175 466 175 q 678 213 620 175 q 768 325 736 251 q 799 505 799 398 m 598 1243 l 799 1090 l 647 1090 l 543 1173 l 437 1090 l 287 1090 l 485 1243 l 598 1243 m 222 1361 l 338 1177 l 221 1177 l 61 1361 l 222 1361 z "},"Ổ":{"ha":1086,"x_min":70,"x_max":1016,"o":"m 1016 505 q 954 224 1016 340 q 784 47 891 108 q 543 -14 677 -14 q 301 47 408 -14 q 132 224 194 109 q 70 505 70 340 q 132 786 70 670 q 301 963 194 902 q 543 1024 408 1024 q 784 963 677 1024 q 954 786 891 902 q 1016 505 1016 670 m 799 505 q 768 686 799 612 q 678 797 736 759 q 543 835 620 835 q 408 797 466 835 q 318 686 350 759 q 287 505 287 612 q 318 325 287 398 q 408 213 350 251 q 543 175 466 175 q 678 213 620 175 q 768 325 736 251 q 799 505 799 398 m 602 1241 l 796 1088 l 652 1088 l 542 1174 l 431 1088 l 287 1088 l 481 1241 l 602 1241 m 841 1174 l 732 1174 l 723 1248 q 784 1259 765 1250 q 803 1285 803 1268 q 779 1315 803 1308 q 719 1323 755 1323 l 724 1403 q 877 1373 824 1403 q 930 1291 930 1344 q 902 1234 930 1254 q 841 1209 874 1215 l 841 1174 z "},"Ỗ":{"ha":1086,"x_min":70,"x_max":1016,"o":"m 1016 505 q 954 224 1016 340 q 784 47 891 108 q 543 -14 677 -14 q 301 47 408 -14 q 132 224 194 109 q 70 505 70 340 q 132 786 70 670 q 301 963 194 902 q 543 1024 408 1024 q 784 963 677 1024 q 954 786 891 902 q 1016 505 1016 670 m 799 505 q 768 686 799 612 q 678 797 736 759 q 543 835 620 835 q 408 797 466 835 q 318 686 350 759 q 287 505 287 612 q 318 325 287 398 q 408 213 350 251 q 543 175 466 175 q 678 213 620 175 q 768 325 736 251 q 799 505 799 398 m 599 1237 l 798 1086 l 653 1086 l 542 1168 l 434 1086 l 287 1086 l 487 1237 l 599 1237 m 651 1405 l 724 1380 q 698 1306 723 1340 q 630 1273 672 1273 q 587 1279 607 1273 q 551 1295 568 1286 q 517 1310 534 1304 q 482 1316 501 1316 q 455 1302 465 1316 q 446 1270 446 1288 l 375 1289 q 400 1361 375 1328 q 468 1394 425 1394 q 505 1388 487 1394 q 543 1373 524 1381 q 580 1359 561 1365 q 616 1352 598 1352 q 640 1369 631 1352 q 651 1405 650 1386 z "},"Ộ":{"ha":1086,"x_min":70,"x_max":1016,"o":"m 1016 505 q 954 224 1016 340 q 784 47 891 108 q 543 -14 677 -14 q 301 47 408 -14 q 132 224 194 109 q 70 505 70 340 q 132 786 70 670 q 301 963 194 902 q 543 1024 408 1024 q 784 963 677 1024 q 954 786 891 902 q 1016 505 1016 670 m 799 505 q 768 686 799 612 q 678 797 736 759 q 543 835 620 835 q 408 797 466 835 q 318 686 350 759 q 287 505 287 612 q 318 325 287 398 q 408 213 350 251 q 543 175 466 175 q 678 213 620 175 q 768 325 736 251 q 799 505 799 398 m 642 1101 l 543 1221 l 444 1101 l 265 1101 l 265 1108 l 465 1325 l 621 1325 l 821 1108 l 821 1101 l 642 1101 m 543 -284 q 463 -253 496 -284 q 429 -178 429 -221 q 463 -103 429 -134 q 543 -72 496 -72 q 623 -103 590 -72 q 656 -178 656 -134 q 623 -253 656 -221 q 543 -284 590 -284 z "},"Ớ":{"ha":1129,"x_min":70,"x_max":1112,"o":"m 977 1059 l 1112 1059 q 1050 836 1112 915 q 851 757 987 757 l 851 865 q 950 916 923 865 q 977 1059 977 968 m 1016 505 q 954 224 1016 340 q 784 47 891 108 q 543 -14 677 -14 q 301 47 408 -14 q 132 224 194 109 q 70 505 70 340 q 132 786 70 670 q 301 963 194 902 q 543 1024 408 1024 q 784 963 677 1024 q 954 786 891 902 q 1016 505 1016 670 m 799 505 q 768 686 799 612 q 678 797 736 759 q 543 835 620 835 q 408 797 466 835 q 318 686 350 759 q 287 505 287 612 q 318 325 287 398 q 408 213 350 251 q 543 175 466 175 q 678 213 620 175 q 768 325 736 251 q 799 505 799 398 m 468 1108 l 572 1332 l 766 1332 l 616 1108 l 468 1108 z "},"Ờ":{"ha":1129,"x_min":70,"x_max":1112,"o":"m 977 1059 l 1112 1059 q 1050 836 1112 915 q 851 757 987 757 l 851 865 q 950 916 923 865 q 977 1059 977 968 m 1016 505 q 954 224 1016 340 q 784 47 891 108 q 543 -14 677 -14 q 301 47 408 -14 q 132 224 194 109 q 70 505 70 340 q 132 786 70 670 q 301 963 194 902 q 543 1024 408 1024 q 784 963 677 1024 q 954 786 891 902 q 1016 505 1016 670 m 799 505 q 768 686 799 612 q 678 797 736 759 q 543 835 620 835 q 408 797 466 835 q 318 686 350 759 q 287 505 287 612 q 318 325 287 398 q 408 213 350 251 q 543 175 466 175 q 678 213 620 175 q 768 325 736 251 q 799 505 799 398 m 470 1108 l 320 1332 l 513 1332 l 618 1108 l 470 1108 z "},"Ở":{"ha":1129,"x_min":70,"x_max":1112,"o":"m 977 1059 l 1112 1059 q 1050 836 1112 915 q 851 757 987 757 l 851 865 q 950 916 923 865 q 977 1059 977 968 m 1016 505 q 954 224 1016 340 q 784 47 891 108 q 543 -14 677 -14 q 301 47 408 -14 q 132 224 194 109 q 70 505 70 340 q 132 786 70 670 q 301 963 194 902 q 543 1024 408 1024 q 784 963 677 1024 q 954 786 891 902 q 1016 505 1016 670 m 799 505 q 768 686 799 612 q 678 797 736 759 q 543 835 620 835 q 408 797 466 835 q 318 686 350 759 q 287 505 287 612 q 318 325 287 398 q 408 213 350 251 q 543 175 466 175 q 678 213 620 175 q 768 325 736 251 q 799 505 799 398 m 620 1119 l 465 1119 l 454 1207 q 528 1221 506 1210 q 550 1252 550 1233 q 522 1288 550 1279 q 451 1298 494 1298 l 457 1393 q 657 1357 588 1393 q 726 1259 726 1322 q 693 1191 726 1214 q 620 1162 660 1168 l 620 1119 z "},"Ỡ":{"ha":1129,"x_min":70,"x_max":1112,"o":"m 977 1059 l 1112 1059 q 1050 836 1112 915 q 851 757 987 757 l 851 865 q 950 916 923 865 q 977 1059 977 968 m 1016 505 q 954 224 1016 340 q 784 47 891 108 q 543 -14 677 -14 q 301 47 408 -14 q 132 224 194 109 q 70 505 70 340 q 132 786 70 670 q 301 963 194 902 q 543 1024 408 1024 q 784 963 677 1024 q 954 786 891 902 q 1016 505 1016 670 m 799 505 q 768 686 799 612 q 678 797 736 759 q 543 835 620 835 q 408 797 466 835 q 318 686 350 759 q 287 505 287 612 q 318 325 287 398 q 408 213 350 251 q 543 175 466 175 q 678 213 620 175 q 768 325 736 251 q 799 505 799 398 m 402 1103 l 285 1105 q 332 1249 285 1199 q 445 1300 378 1300 q 505 1289 480 1300 q 550 1263 530 1278 q 588 1237 570 1248 q 627 1226 606 1226 q 671 1248 656 1227 q 686 1303 686 1269 l 801 1299 q 754 1155 800 1206 q 641 1104 707 1105 q 579 1115 604 1104 q 535 1141 554 1126 q 499 1167 516 1156 q 459 1178 481 1178 q 418 1158 433 1178 q 402 1103 402 1138 z "},"Ợ":{"ha":1129,"x_min":70,"x_max":1112,"o":"m 977 1059 l 1112 1059 q 1050 836 1112 915 q 851 757 987 757 l 851 865 q 950 916 923 865 q 977 1059 977 968 m 1016 505 q 954 224 1016 340 q 784 47 891 108 q 543 -14 677 -14 q 301 47 408 -14 q 132 224 194 109 q 70 505 70 340 q 132 786 70 670 q 301 963 194 902 q 543 1024 408 1024 q 784 963 677 1024 q 954 786 891 902 q 1016 505 1016 670 m 799 505 q 768 686 799 612 q 678 797 736 759 q 543 835 620 835 q 408 797 466 835 q 318 686 350 759 q 287 505 287 612 q 318 325 287 398 q 408 213 350 251 q 543 175 466 175 q 678 213 620 175 q 768 325 736 251 q 799 505 799 398 m 543 -284 q 463 -253 496 -284 q 429 -178 429 -221 q 463 -103 429 -134 q 543 -72 496 -72 q 623 -103 590 -72 q 656 -178 656 -134 q 623 -253 656 -221 q 543 -284 590 -284 z "},"Ǿ":{"ha":1086,"x_min":70,"x_max":1016,"o":"m 228 -48 l 132 17 l 856 1056 l 952 991 l 228 -48 m 1016 505 q 954 224 1016 340 q 784 47 891 108 q 543 -14 677 -14 q 301 47 408 -14 q 132 224 194 109 q 70 505 70 340 q 132 786 70 670 q 301 963 194 902 q 543 1024 408 1024 q 784 963 677 1024 q 954 786 891 902 q 1016 505 1016 670 m 799 505 q 768 686 799 612 q 678 797 736 759 q 543 835 620 835 q 408 797 466 835 q 318 686 350 759 q 287 505 287 612 q 318 325 287 398 q 408 213 350 251 q 543 175 466 175 q 678 213 620 175 q 768 325 736 251 q 799 505 799 398 m 468 1108 l 572 1332 l 766 1332 l 616 1108 l 468 1108 z "},"Ο":{"ha":1086,"x_min":70,"x_max":1016,"o":"m 1016 505 q 954 224 1016 340 q 784 47 891 108 q 543 -14 677 -14 q 301 47 408 -14 q 132 224 194 109 q 70 505 70 340 q 132 786 70 670 q 301 963 194 902 q 543 1024 408 1024 q 784 963 677 1024 q 954 786 891 902 q 1016 505 1016 670 m 799 505 q 768 686 799 612 q 678 797 736 759 q 543 835 620 835 q 408 797 466 835 q 318 686 350 759 q 287 505 287 612 q 318 325 287 398 q 408 213 350 251 q 543 175 466 175 q 678 213 620 175 q 768 325 736 251 q 799 505 799 398 z "},"Ό":{"ha":1117,"x_min":-15,"x_max":1082,"o":"m 1082 505 q 1019 224 1082 340 q 850 47 957 108 q 609 -14 742 -14 q 367 47 474 -14 q 198 224 260 109 q 136 505 136 340 q 198 786 136 670 q 367 963 260 902 q 609 1024 474 1024 q 850 963 742 1024 q 1019 786 957 902 q 1082 505 1082 670 m 865 505 q 833 686 865 612 q 744 797 801 759 q 609 835 686 835 q 473 797 531 835 q 384 686 416 759 q 352 505 352 612 q 384 325 352 398 q 473 213 416 251 q 609 175 531 175 q 744 213 686 175 q 833 325 801 251 q 865 505 865 398 m -15 848 l 37 1083 l 225 1083 l 109 848 l -15 848 z "},"Ὀ":{"ha":1136,"x_min":-14,"x_max":1100,"o":"m 1100 505 q 1038 224 1100 340 q 868 47 976 108 q 627 -14 761 -14 q 386 47 493 -14 q 217 224 279 109 q 154 505 154 340 q 217 786 154 670 q 386 963 279 902 q 627 1024 493 1024 q 868 963 761 1024 q 1038 786 976 902 q 1100 505 1100 670 m 884 505 q 852 686 884 612 q 763 797 820 759 q 627 835 705 835 q 492 797 550 835 q 403 686 435 759 q 371 505 371 612 q 403 325 371 398 q 492 213 435 251 q 627 175 550 175 q 763 213 705 175 q 852 325 820 251 q 884 505 884 398 m 159 1010 l 159 945 q 144 868 159 903 q 103 807 129 833 q 44 765 77 781 l -14 827 q 19 860 7 841 q 36 900 31 878 q 40 949 40 923 l 40 1010 l 159 1010 z "},"Ὁ":{"ha":1182,"x_min":55,"x_max":1147,"o":"m 1147 505 q 1084 224 1147 340 q 915 47 1022 108 q 674 -14 807 -14 q 432 47 539 -14 q 263 224 325 109 q 201 505 201 340 q 263 786 201 670 q 432 963 325 902 q 674 1024 539 1024 q 915 963 807 1024 q 1084 786 1022 902 q 1147 505 1147 670 m 930 505 q 898 686 930 612 q 809 797 867 759 q 674 835 751 835 q 539 797 596 835 q 449 686 481 759 q 417 505 417 612 q 449 325 417 398 q 539 213 481 251 q 674 175 596 175 q 809 213 751 175 q 898 325 867 251 q 930 505 930 398 m 55 945 l 55 1010 l 175 1010 l 175 949 q 180 903 176 926 q 196 861 184 881 q 228 827 207 842 l 170 765 q 89 836 121 789 q 55 945 56 882 z "},"Ὂ":{"ha":1383,"x_min":-10,"x_max":1348,"o":"m 1348 505 q 1286 224 1348 340 q 1116 47 1223 108 q 875 -14 1009 -14 q 633 47 740 -14 q 464 224 526 109 q 402 505 402 340 q 464 786 402 670 q 633 963 526 902 q 875 1024 740 1024 q 1116 963 1009 1024 q 1286 786 1223 902 q 1348 505 1348 670 m 1131 505 q 1100 686 1131 612 q 1010 797 1068 759 q 875 835 952 835 q 740 797 798 835 q 650 686 682 759 q 618 505 618 612 q 650 325 618 398 q 740 213 682 251 q 875 175 798 175 q 1010 213 952 175 q 1100 325 1068 251 q 1131 505 1131 398 m 431 793 l 431 783 l 365 783 l 205 998 l 205 1012 l 352 1012 l 431 793 m 174 1012 l 174 956 q 158 882 174 917 q 114 818 143 847 q 44 767 85 789 l -10 808 q 32 876 18 839 q 46 960 47 912 l 46 1012 l 174 1012 z "},"Ὃ":{"ha":1335,"x_min":-21,"x_max":1299,"o":"m 1299 505 q 1237 224 1299 340 q 1067 47 1174 108 q 826 -14 960 -14 q 584 47 691 -14 q 415 224 477 109 q 353 505 353 340 q 415 786 353 670 q 584 963 477 902 q 826 1024 691 1024 q 1067 963 960 1024 q 1237 786 1174 902 q 1299 505 1299 670 m 1083 505 q 1051 686 1083 612 q 961 797 1019 759 q 826 835 904 835 q 691 797 749 835 q 601 686 633 759 q 570 505 570 612 q 601 325 570 398 q 691 213 633 251 q 826 175 749 175 q 961 213 904 175 q 1051 325 1019 251 q 1083 505 1083 398 m 382 796 l 382 780 l 316 780 l 156 996 l 156 1010 l 304 1010 l 382 796 m -20 945 l -20 1010 l 101 1010 l 101 949 q 111 882 101 914 q 155 827 121 849 l 97 765 q 12 836 45 789 q -20 945 -21 882 z "},"Ὄ":{"ha":1284,"x_min":-8,"x_max":1249,"o":"m 1249 505 q 1186 224 1249 340 q 1017 47 1124 108 q 776 -14 909 -14 q 534 47 641 -14 q 365 224 427 109 q 303 505 303 340 q 365 786 303 670 q 534 963 427 902 q 776 1024 641 1024 q 1017 963 909 1024 q 1186 786 1124 902 q 1249 505 1249 670 m 1032 505 q 1000 686 1032 612 q 911 797 969 759 q 776 835 853 835 q 641 797 698 835 q 551 686 583 759 q 519 505 519 612 q 551 325 519 398 q 641 213 583 251 q 776 175 698 175 q 911 213 853 175 q 1000 325 969 251 q 1032 505 1032 398 m 187 780 l 187 796 l 267 1010 l 414 1010 l 414 996 l 253 780 l 187 780 m 167 1010 l 167 945 q 152 869 167 904 q 110 808 137 834 q 50 765 84 781 l -8 827 q 35 882 25 849 q 46 949 46 914 l 46 1010 l 167 1010 z "},"Ὅ":{"ha":1300,"x_min":-9,"x_max":1265,"o":"m 1265 505 q 1202 224 1265 340 q 1033 47 1140 108 q 792 -14 925 -14 q 550 47 657 -14 q 381 224 443 109 q 319 505 319 340 q 381 786 319 670 q 550 963 443 902 q 792 1024 657 1024 q 1033 963 925 1024 q 1202 786 1140 902 q 1265 505 1265 670 m 1048 505 q 1016 686 1048 612 q 927 797 984 759 q 792 835 869 835 q 656 797 714 835 q 567 686 599 759 q 535 505 535 612 q 567 325 535 398 q 656 213 599 251 q 792 175 714 175 q 927 213 869 175 q 1016 325 984 251 q 1048 505 1048 398 m 202 780 l 202 796 l 279 1010 l 427 1010 l 427 996 l 265 780 l 202 780 m 106 765 q 25 834 58 788 q -9 945 -9 880 l -9 1010 l 111 1010 l 111 949 q 122 879 111 909 q 164 827 134 848 l 106 765 z "},"Ὸ":{"ha":1172,"x_min":-10,"x_max":1137,"o":"m 1137 505 q 1074 224 1137 340 q 905 47 1012 108 q 664 -14 798 -14 q 422 47 529 -14 q 253 224 315 109 q 191 505 191 340 q 253 786 191 670 q 422 963 315 902 q 664 1024 529 1024 q 905 963 798 1024 q 1074 786 1012 902 q 1137 505 1137 670 m 920 505 q 889 686 920 612 q 799 797 857 759 q 664 835 741 835 q 529 797 586 835 q 439 686 471 759 q 407 505 407 612 q 439 325 407 398 q 529 213 471 251 q 664 175 586 175 q 799 213 741 175 q 889 325 857 251 q 920 505 920 398 m 150 779 l -10 996 l -10 1010 l 137 1010 l 214 798 l 214 779 l 150 779 z "},"ϴ":{"ha":1086,"x_min":70,"x_max":1016,"o":"m 868 574 l 868 436 l 218 436 l 218 574 l 868 574 m 1016 505 q 954 224 1016 340 q 784 47 891 108 q 543 -14 677 -14 q 301 47 408 -14 q 132 224 194 109 q 70 505 70 340 q 132 786 70 670 q 301 963 194 902 q 543 1024 408 1024 q 784 963 677 1024 q 954 786 891 902 q 1016 505 1016 670 m 799 505 q 768 686 799 612 q 678 797 736 759 q 543 835 620 835 q 408 797 466 835 q 318 686 350 759 q 287 505 287 612 q 318 325 287 398 q 408 213 350 251 q 543 175 466 175 q 678 213 620 175 q 768 325 736 251 q 799 505 799 398 z "},"Ό":{"ha":1084,"x_min":34,"x_max":1049,"o":"m 1049 505 q 986 224 1049 340 q 817 47 924 108 q 576 -14 709 -14 q 334 47 441 -14 q 165 224 227 109 q 103 505 103 340 q 165 786 103 670 q 334 963 227 902 q 576 1024 441 1024 q 817 963 709 1024 q 986 786 924 902 q 1049 505 1049 670 m 832 505 q 800 686 832 612 q 711 797 768 759 q 576 835 653 835 q 440 797 498 835 q 351 686 383 759 q 319 505 319 612 q 351 325 319 398 q 440 213 383 251 q 576 175 498 175 q 711 213 653 175 q 800 325 768 251 q 832 505 832 398 m 34 852 l 34 871 l 110 1083 l 298 1083 l 298 1069 l 138 852 l 34 852 z "},"О":{"ha":1086,"x_min":70,"x_max":1016,"o":"m 1016 505 q 954 224 1016 340 q 784 47 891 108 q 543 -14 677 -14 q 301 47 408 -14 q 132 224 194 109 q 70 505 70 340 q 132 786 70 670 q 301 963 194 902 q 543 1024 408 1024 q 784 963 677 1024 q 954 786 891 902 q 1016 505 1016 670 m 799 505 q 768 686 799 612 q 678 797 736 759 q 543 835 620 835 q 408 797 466 835 q 318 686 350 759 q 287 505 287 612 q 318 325 287 398 q 408 213 350 251 q 543 175 466 175 q 678 213 620 175 q 768 325 736 251 q 799 505 799 398 z "},"Ӧ":{"ha":1086,"x_min":70,"x_max":1016,"o":"m 1016 505 q 954 224 1016 340 q 784 47 891 108 q 543 -14 677 -14 q 301 47 408 -14 q 132 224 194 109 q 70 505 70 340 q 132 786 70 670 q 301 963 194 902 q 543 1024 408 1024 q 784 963 677 1024 q 954 786 891 902 q 1016 505 1016 670 m 799 505 q 768 686 799 612 q 678 797 736 759 q 543 835 620 835 q 408 797 466 835 q 318 686 350 759 q 287 505 287 612 q 318 325 287 398 q 408 213 350 251 q 543 175 466 175 q 678 213 620 175 q 768 325 736 251 q 799 505 799 398 m 393 1114 q 320 1144 350 1114 q 289 1214 289 1173 q 320 1285 289 1256 q 393 1314 350 1314 q 465 1285 436 1314 q 495 1214 495 1256 q 465 1144 495 1173 q 393 1114 436 1114 m 694 1114 q 621 1144 652 1114 q 591 1214 591 1173 q 621 1285 591 1256 q 694 1314 652 1314 q 767 1285 737 1314 q 797 1214 797 1256 q 767 1144 797 1173 q 694 1114 737 1114 z "},"Ɵ":{"ha":1086,"x_min":70,"x_max":1016,"o":"m 1016 505 q 954 224 1016 340 q 784 47 891 108 q 543 -14 677 -14 q 301 47 408 -14 q 132 224 194 109 q 70 505 70 340 q 132 786 70 670 q 301 963 194 902 q 543 1024 408 1024 q 784 963 677 1024 q 954 786 891 902 q 1016 505 1016 670 m 799 505 q 768 686 799 612 q 678 797 736 759 q 543 835 620 835 q 408 797 466 835 q 318 686 350 759 q 287 505 287 612 q 318 325 287 398 q 408 213 350 251 q 543 175 466 175 q 678 213 620 175 q 768 325 736 251 q 799 505 799 398 m 868 574 l 868 436 l 218 436 l 218 574 l 868 574 z "},"Ө":{"ha":1086,"x_min":70,"x_max":1016,"o":"m 1016 505 q 954 224 1016 340 q 784 47 891 108 q 543 -14 677 -14 q 301 47 408 -14 q 132 224 194 109 q 70 505 70 340 q 132 786 70 670 q 301 963 194 902 q 543 1024 408 1024 q 784 963 677 1024 q 954 786 891 902 q 1016 505 1016 670 m 799 505 q 768 686 799 612 q 678 797 736 759 q 543 835 620 835 q 408 797 466 835 q 318 686 350 759 q 287 505 287 612 q 318 325 287 398 q 408 213 350 251 q 543 175 466 175 q 678 213 620 175 q 768 325 736 251 q 799 505 799 398 m 868 574 l 868 436 l 218 436 l 218 574 l 868 574 z "},"Ӫ":{"ha":1086,"x_min":70,"x_max":1016,"o":"m 1016 505 q 954 224 1016 340 q 784 47 891 108 q 543 -14 677 -14 q 301 47 408 -14 q 132 224 194 109 q 70 505 70 340 q 132 786 70 670 q 301 963 194 902 q 543 1024 408 1024 q 784 963 677 1024 q 954 786 891 902 q 1016 505 1016 670 m 799 505 q 768 686 799 612 q 678 797 736 759 q 543 835 620 835 q 408 797 466 835 q 318 686 350 759 q 287 505 287 612 q 318 325 287 398 q 408 213 350 251 q 543 175 466 175 q 678 213 620 175 q 768 325 736 251 q 799 505 799 398 m 868 574 l 868 436 l 218 436 l 218 574 l 868 574 m 393 1114 q 320 1144 350 1114 q 289 1214 289 1173 q 320 1285 289 1256 q 393 1314 350 1314 q 465 1285 436 1314 q 495 1214 495 1256 q 465 1144 495 1173 q 393 1114 436 1114 m 694 1114 q 621 1144 652 1114 q 591 1214 591 1173 q 621 1285 591 1256 q 694 1314 652 1314 q 767 1285 737 1314 q 797 1214 797 1256 q 767 1144 797 1173 q 694 1114 737 1114 z "},"Œ":{"ha":1414,"x_min":70,"x_max":1334,"o":"m 529 0 q 293 58 398 0 q 130 228 189 116 q 70 504 70 340 q 130 781 70 668 q 293 952 189 894 q 529 1010 398 1010 l 1332 1010 l 1332 834 l 865 834 l 865 593 l 1297 593 l 1297 417 l 865 417 l 865 176 l 1334 176 l 1334 0 l 529 0 m 651 176 l 651 834 l 529 834 q 402 799 457 834 q 315 691 347 764 q 284 504 284 618 q 315 317 284 390 q 402 210 347 245 q 529 176 457 176 l 651 176 z "},"P":{"ha":900,"x_min":88,"x_max":848,"o":"m 88 0 l 88 1010 l 486 1010 q 682 966 601 1010 q 806 846 763 923 q 848 668 848 768 q 805 490 848 567 q 679 370 762 413 q 481 327 597 327 l 227 327 l 227 499 l 446 499 q 548 520 508 499 q 608 580 588 542 q 628 668 628 618 q 608 756 628 718 q 548 815 588 794 q 445 836 508 836 l 301 836 l 301 0 l 88 0 z "},"Ṕ":{"ha":900,"x_min":88,"x_max":848,"o":"m 88 0 l 88 1010 l 486 1010 q 682 966 601 1010 q 806 846 763 923 q 848 668 848 768 q 805 490 848 567 q 679 370 762 413 q 481 327 597 327 l 227 327 l 227 499 l 446 499 q 548 520 508 499 q 608 580 588 542 q 628 668 628 618 q 608 756 628 718 q 548 815 588 794 q 445 836 508 836 l 301 836 l 301 0 l 88 0 m 368 1108 l 472 1332 l 667 1332 l 516 1108 l 368 1108 z "},"Ṗ":{"ha":900,"x_min":88,"x_max":848,"o":"m 88 0 l 88 1010 l 486 1010 q 682 966 601 1010 q 806 846 763 923 q 848 668 848 768 q 805 490 848 567 q 679 370 762 413 q 481 327 597 327 l 227 327 l 227 499 l 446 499 q 548 520 508 499 q 608 580 588 542 q 628 668 628 618 q 608 756 628 718 q 548 815 588 794 q 445 836 508 836 l 301 836 l 301 0 l 88 0 m 444 1108 q 363 1139 397 1108 q 330 1214 330 1170 q 363 1289 330 1258 q 443 1320 397 1320 q 524 1289 491 1320 q 557 1214 557 1258 q 524 1139 557 1170 q 444 1108 491 1108 z "},"Ҏ":{"ha":918,"x_min":93,"x_max":853,"o":"m 515 663 l 765 277 l 676 219 l 426 606 l 515 663 m 93 0 l 93 1010 l 491 1010 q 687 966 606 1010 q 810 846 767 923 q 853 668 853 768 q 810 490 853 567 q 684 370 766 413 q 486 327 602 327 l 232 327 l 232 499 l 451 499 q 553 520 512 499 q 613 580 593 542 q 633 668 633 618 q 613 756 633 718 q 553 815 593 794 q 450 836 512 836 l 306 836 l 306 0 l 93 0 z "},"Ƥ":{"ha":1185,"x_min":49,"x_max":1134,"o":"m 240 651 l 49 651 l 49 750 q 84 888 49 829 q 184 978 119 946 q 338 1010 249 1010 l 772 1010 q 968 966 887 1010 q 1091 846 1049 923 q 1134 668 1134 768 q 1090 490 1134 567 q 965 370 1047 413 q 766 327 883 327 l 587 327 l 587 0 l 374 0 l 374 836 l 339 836 q 276 817 298 836 q 247 769 254 798 q 240 709 239 740 l 240 651 m 587 499 l 732 499 q 834 520 794 499 q 894 580 874 542 q 914 668 914 618 q 894 756 914 718 q 834 815 874 794 q 731 836 793 836 l 587 836 l 587 499 z "},"Ρ":{"ha":900,"x_min":88,"x_max":848,"o":"m 88 0 l 88 1010 l 486 1010 q 682 966 601 1010 q 806 846 763 923 q 848 668 848 768 q 805 490 848 567 q 679 370 762 413 q 481 327 597 327 l 227 327 l 227 499 l 446 499 q 548 520 508 499 q 608 580 588 542 q 628 668 628 618 q 608 756 628 718 q 548 815 588 794 q 445 836 508 836 l 301 836 l 301 0 l 88 0 z "},"Ῥ":{"ha":1114,"x_min":70,"x_max":1047,"o":"m 286 0 l 286 1010 l 685 1010 q 880 966 799 1010 q 1004 846 961 923 q 1047 668 1047 768 q 1003 490 1047 567 q 878 370 960 413 q 679 327 796 327 l 425 327 l 425 499 l 645 499 q 746 520 706 499 q 807 580 787 542 q 827 668 827 618 q 807 756 827 718 q 746 815 787 794 q 644 836 706 836 l 500 836 l 500 0 l 286 0 m 70 945 l 70 1010 l 189 1010 l 189 949 q 194 903 190 926 q 210 861 199 881 q 243 827 221 842 l 184 765 q 103 836 136 789 q 70 945 70 882 z "},"Q":{"ha":1087,"x_min":70,"x_max":1016,"o":"m 469 351 l 651 351 l 742 234 l 832 129 l 1001 -83 l 801 -83 l 685 60 l 625 145 l 469 351 m 1016 505 q 954 224 1016 340 q 784 47 891 108 q 543 -14 677 -14 q 301 47 408 -14 q 132 224 194 109 q 70 505 70 340 q 132 786 70 670 q 301 963 194 902 q 543 1024 408 1024 q 784 963 677 1024 q 954 786 891 902 q 1016 505 1016 670 m 799 505 q 768 686 799 612 q 678 797 736 759 q 543 835 620 835 q 408 797 466 835 q 318 686 350 759 q 287 505 287 612 q 318 325 287 398 q 408 213 350 251 q 543 175 466 175 q 678 213 620 175 q 768 325 736 251 q 799 505 799 398 z "},"R":{"ha":911,"x_min":88,"x_max":884,"o":"m 88 0 l 88 1010 l 486 1010 q 682 969 601 1010 q 806 854 763 929 q 848 680 848 780 q 805 507 848 580 q 679 397 762 435 q 481 358 597 358 l 214 358 l 214 530 l 446 530 q 548 546 508 530 q 608 597 588 563 q 628 680 628 630 q 608 765 628 730 q 548 818 588 799 q 445 836 507 836 l 301 836 l 301 0 l 88 0 m 633 460 l 884 0 l 649 0 l 403 460 l 633 460 z "},"Ŕ":{"ha":911,"x_min":88,"x_max":884,"o":"m 88 0 l 88 1010 l 486 1010 q 682 969 601 1010 q 806 854 763 929 q 848 680 848 780 q 805 507 848 580 q 679 397 762 435 q 481 358 597 358 l 214 358 l 214 530 l 446 530 q 548 546 508 530 q 608 597 588 563 q 628 680 628 630 q 608 765 628 730 q 548 818 588 799 q 445 836 507 836 l 301 836 l 301 0 l 88 0 m 633 460 l 884 0 l 649 0 l 403 460 l 633 460 m 374 1108 l 479 1332 l 673 1332 l 523 1108 l 374 1108 z "},"Ŗ":{"ha":911,"x_min":88,"x_max":884,"o":"m 88 0 l 88 1010 l 486 1010 q 682 969 601 1010 q 806 854 763 929 q 848 680 848 780 q 805 507 848 580 q 679 397 762 435 q 481 358 597 358 l 214 358 l 214 530 l 446 530 q 548 546 508 530 q 608 597 588 563 q 628 680 628 630 q 608 765 628 730 q 548 818 588 799 q 445 836 507 836 l 301 836 l 301 0 l 88 0 m 633 460 l 884 0 l 649 0 l 403 460 l 633 460 m 310 -324 l 371 -80 l 565 -80 l 457 -324 l 310 -324 z "},"Ř":{"ha":911,"x_min":88,"x_max":884,"o":"m 88 0 l 88 1010 l 486 1010 q 682 969 601 1010 q 806 854 763 929 q 848 680 848 780 q 805 507 848 580 q 679 397 762 435 q 481 358 597 358 l 214 358 l 214 530 l 446 530 q 548 546 508 530 q 608 597 588 563 q 628 680 628 630 q 608 765 628 730 q 548 818 588 799 q 445 836 507 836 l 301 836 l 301 0 l 88 0 m 633 460 l 884 0 l 649 0 l 403 460 l 633 460 m 351 1325 l 450 1204 l 549 1325 l 728 1325 l 728 1318 l 528 1101 l 371 1101 l 172 1318 l 172 1325 l 351 1325 z "},"Ȑ":{"ha":911,"x_min":88,"x_max":884,"o":"m 88 0 l 88 1010 l 486 1010 q 682 969 601 1010 q 806 854 763 929 q 848 680 848 780 q 805 507 848 580 q 679 397 762 435 q 481 358 597 358 l 214 358 l 214 530 l 446 530 q 548 546 508 530 q 608 597 588 563 q 628 680 628 630 q 608 765 628 730 q 548 818 588 799 q 445 836 507 836 l 301 836 l 301 0 l 88 0 m 633 460 l 884 0 l 649 0 l 403 460 l 633 460 m 260 1108 l 107 1332 l 304 1332 l 409 1108 l 260 1108 m 504 1108 l 399 1332 l 590 1332 l 650 1108 l 504 1108 z "},"Ȓ":{"ha":911,"x_min":88,"x_max":884,"o":"m 88 0 l 88 1010 l 486 1010 q 682 969 601 1010 q 806 854 763 929 q 848 680 848 780 q 805 507 848 580 q 679 397 762 435 q 481 358 597 358 l 214 358 l 214 530 l 446 530 q 548 546 508 530 q 608 597 588 563 q 628 680 628 630 q 608 765 628 730 q 548 818 588 799 q 445 836 507 836 l 301 836 l 301 0 l 88 0 m 633 460 l 884 0 l 649 0 l 403 460 l 633 460 m 204 1132 q 270 1279 204 1222 q 448 1337 336 1337 q 627 1279 561 1337 q 693 1132 693 1222 l 546 1132 q 524 1193 546 1166 q 448 1220 501 1220 q 373 1193 395 1220 q 351 1132 350 1166 l 204 1132 z "},"Ṙ":{"ha":911,"x_min":88,"x_max":884,"o":"m 88 0 l 88 1010 l 486 1010 q 682 969 601 1010 q 806 854 763 929 q 848 680 848 780 q 805 507 848 580 q 679 397 762 435 q 481 358 597 358 l 214 358 l 214 530 l 446 530 q 548 546 508 530 q 608 597 588 563 q 628 680 628 630 q 608 765 628 730 q 548 818 588 799 q 445 836 507 836 l 301 836 l 301 0 l 88 0 m 633 460 l 884 0 l 649 0 l 403 460 l 633 460 m 450 1108 q 370 1139 403 1108 q 336 1214 336 1170 q 370 1289 336 1258 q 450 1320 403 1320 q 530 1289 497 1320 q 564 1214 564 1258 q 530 1139 564 1170 q 450 1108 497 1108 z "},"Ṛ":{"ha":911,"x_min":88,"x_max":884,"o":"m 88 0 l 88 1010 l 486 1010 q 682 969 601 1010 q 806 854 763 929 q 848 680 848 780 q 805 507 848 580 q 679 397 762 435 q 481 358 597 358 l 214 358 l 214 530 l 446 530 q 548 546 508 530 q 608 597 588 563 q 628 680 628 630 q 608 765 628 730 q 548 818 588 799 q 445 836 507 836 l 301 836 l 301 0 l 88 0 m 633 460 l 884 0 l 649 0 l 403 460 l 633 460 m 467 -284 q 386 -253 420 -284 q 353 -178 353 -221 q 386 -103 353 -134 q 467 -72 420 -72 q 547 -103 513 -72 q 580 -178 580 -134 q 547 -253 580 -221 q 467 -284 513 -284 z "},"Ṝ":{"ha":911,"x_min":88,"x_max":884,"o":"m 88 0 l 88 1010 l 486 1010 q 682 969 601 1010 q 806 854 763 929 q 848 680 848 780 q 805 507 848 580 q 679 397 762 435 q 481 358 597 358 l 214 358 l 214 530 l 446 530 q 548 546 508 530 q 608 597 588 563 q 628 680 628 630 q 608 765 628 730 q 548 818 588 799 q 445 836 507 836 l 301 836 l 301 0 l 88 0 m 633 460 l 884 0 l 649 0 l 403 460 l 633 460 m 467 -284 q 386 -253 420 -284 q 353 -178 353 -221 q 386 -103 353 -134 q 467 -72 420 -72 q 547 -103 513 -72 q 580 -178 580 -134 q 547 -253 580 -221 q 467 -284 513 -284 m 690 1263 l 690 1149 l 210 1149 l 210 1263 l 690 1263 z "},"Ṟ":{"ha":911,"x_min":88,"x_max":884,"o":"m 88 0 l 88 1010 l 486 1010 q 682 969 601 1010 q 806 854 763 929 q 848 680 848 780 q 805 507 848 580 q 679 397 762 435 q 481 358 597 358 l 214 358 l 214 530 l 446 530 q 548 546 508 530 q 608 597 588 563 q 628 680 628 630 q 608 765 628 730 q 548 818 588 799 q 445 836 507 836 l 301 836 l 301 0 l 88 0 m 633 460 l 884 0 l 649 0 l 403 460 l 633 460 m 707 -126 l 707 -240 l 226 -240 l 226 -126 l 707 -126 z "},"℟":{"ha":920,"x_min":92,"x_max":888,"o":"m 648 1152 l 345 -248 l 266 -237 l 559 1100 l 342 1151 l 363 1224 l 648 1152 m 92 0 l 92 1010 l 490 1010 q 686 969 605 1010 q 809 854 766 929 q 852 680 852 780 q 808 507 852 580 q 683 397 765 435 q 484 358 601 358 l 218 358 l 218 530 l 450 530 q 551 546 511 530 q 612 597 592 563 q 632 680 632 630 q 612 765 632 730 q 551 818 592 799 q 449 836 511 836 l 305 836 l 305 0 l 92 0 m 637 460 l 888 0 l 652 0 l 406 460 l 637 460 z "},"℞":{"ha":1064,"x_min":88,"x_max":999,"o":"m 88 1010 l 477 1010 q 682 972 600 1010 q 805 863 764 933 q 846 695 846 792 q 818 555 846 615 q 738 456 789 496 q 623 393 688 416 l 578 375 l 225 375 l 224 550 l 474 550 q 562 566 526 550 q 617 613 598 582 q 635 691 635 645 q 618 767 635 735 q 565 817 600 799 q 477 834 530 834 l 301 834 l 301 0 l 88 0 l 88 1010 m 815 0 l 485 457 l 666 457 l 999 0 l 815 0 m 646 0 l 496 0 l 830 457 l 975 457 l 646 0 z "},"Ɍ":{"ha":939,"x_min":11,"x_max":907,"o":"m 236 372 l 11 372 l 11 532 l 236 532 l 236 372 m 110 0 l 110 1010 l 509 1010 q 704 969 623 1010 q 828 854 785 929 q 871 680 871 780 q 827 507 871 580 q 702 397 784 435 q 504 358 619 358 l 237 358 l 237 530 l 469 530 q 571 546 530 530 q 631 597 611 563 q 651 680 651 630 q 631 765 651 730 q 570 818 611 799 q 468 836 530 836 l 324 836 l 324 0 l 110 0 m 656 460 l 907 0 l 671 0 l 425 460 l 656 460 z "},"S":{"ha":909,"x_min":55,"x_max":854,"o":"m 636 720 q 585 812 630 779 q 463 845 540 845 q 375 831 411 845 q 320 791 339 816 q 301 732 301 765 q 312 685 300 705 q 347 650 325 665 q 399 625 369 636 q 461 607 428 615 l 551 585 q 673 546 618 571 q 768 485 728 521 q 831 400 809 449 q 854 289 854 352 q 807 128 854 196 q 673 23 761 60 q 462 -14 585 -14 q 249 23 340 -14 q 108 134 159 61 q 55 317 58 208 l 262 317 q 291 233 265 266 q 361 182 317 199 q 460 165 404 165 q 554 181 514 165 q 617 224 594 196 q 639 289 639 253 q 619 346 639 323 q 561 386 599 369 q 467 415 522 402 l 357 443 q 155 540 229 474 q 82 718 81 606 q 131 878 81 810 q 267 985 181 947 q 465 1024 354 1024 q 661 985 577 1024 q 792 878 745 947 q 840 720 839 810 l 636 720 z "},"Ś":{"ha":909,"x_min":55,"x_max":854,"o":"m 636 720 q 585 812 630 779 q 463 845 540 845 q 375 831 411 845 q 320 791 339 816 q 301 732 301 765 q 312 685 300 705 q 347 650 325 665 q 399 625 369 636 q 461 607 428 615 l 551 585 q 673 546 618 571 q 768 485 728 521 q 831 400 809 449 q 854 289 854 352 q 807 128 854 196 q 673 23 761 60 q 462 -14 585 -14 q 249 23 340 -14 q 108 134 159 61 q 55 317 58 208 l 262 317 q 291 233 265 266 q 361 182 317 199 q 460 165 404 165 q 554 181 514 165 q 617 224 594 196 q 639 289 639 253 q 619 346 639 323 q 561 386 599 369 q 467 415 522 402 l 357 443 q 155 540 229 474 q 82 718 81 606 q 131 878 81 810 q 267 985 181 947 q 465 1024 354 1024 q 661 985 577 1024 q 792 878 745 947 q 840 720 839 810 l 636 720 m 379 1108 l 484 1332 l 678 1332 l 528 1108 l 379 1108 z "},"Ŝ":{"ha":909,"x_min":55,"x_max":854,"o":"m 636 720 q 585 812 630 779 q 463 845 540 845 q 375 831 411 845 q 320 791 339 816 q 301 732 301 765 q 312 685 300 705 q 347 650 325 665 q 399 625 369 636 q 461 607 428 615 l 551 585 q 673 546 618 571 q 768 485 728 521 q 831 400 809 449 q 854 289 854 352 q 807 128 854 196 q 673 23 761 60 q 462 -14 585 -14 q 249 23 340 -14 q 108 134 159 61 q 55 317 58 208 l 262 317 q 291 233 265 266 q 361 182 317 199 q 460 165 404 165 q 554 181 514 165 q 617 224 594 196 q 639 289 639 253 q 619 346 639 323 q 561 386 599 369 q 467 415 522 402 l 357 443 q 155 540 229 474 q 82 718 81 606 q 131 878 81 810 q 267 985 181 947 q 465 1024 354 1024 q 661 985 577 1024 q 792 878 745 947 q 840 720 839 810 l 636 720 m 554 1101 l 455 1221 l 356 1101 l 177 1101 l 177 1108 l 377 1325 l 533 1325 l 733 1108 l 733 1101 l 554 1101 z "},"Ş":{"ha":909,"x_min":55,"x_max":854,"o":"m 636 720 q 585 812 630 779 q 463 845 540 845 q 375 831 411 845 q 320 791 339 816 q 301 732 301 765 q 312 685 300 705 q 347 650 325 665 q 399 625 369 636 q 461 607 428 615 l 551 585 q 673 546 618 571 q 768 485 728 521 q 831 400 809 449 q 854 289 854 352 q 807 128 854 196 q 673 23 761 60 q 462 -14 585 -14 q 249 23 340 -14 q 108 134 159 61 q 55 317 58 208 l 262 317 q 291 233 265 266 q 361 182 317 199 q 460 165 404 165 q 554 181 514 165 q 617 224 594 196 q 639 289 639 253 q 619 346 639 323 q 561 386 599 369 q 467 415 522 402 l 357 443 q 155 540 229 474 q 82 718 81 606 q 131 878 81 810 q 267 985 181 947 q 465 1024 354 1024 q 661 985 577 1024 q 792 878 745 947 q 840 720 839 810 l 636 720 m 408 4 l 505 4 l 497 -39 q 580 -77 547 -47 q 613 -159 612 -107 q 545 -276 613 -232 q 352 -320 476 -320 l 350 -226 q 448 -211 412 -226 q 484 -164 483 -196 q 461 -118 485 -134 q 386 -96 437 -103 l 408 4 z "},"Š":{"ha":909,"x_min":55,"x_max":854,"o":"m 636 720 q 585 812 630 779 q 463 845 540 845 q 375 831 411 845 q 320 791 339 816 q 301 732 301 765 q 312 685 300 705 q 347 650 325 665 q 399 625 369 636 q 461 607 428 615 l 551 585 q 673 546 618 571 q 768 485 728 521 q 831 400 809 449 q 854 289 854 352 q 807 128 854 196 q 673 23 761 60 q 462 -14 585 -14 q 249 23 340 -14 q 108 134 159 61 q 55 317 58 208 l 262 317 q 291 233 265 266 q 361 182 317 199 q 460 165 404 165 q 554 181 514 165 q 617 224 594 196 q 639 289 639 253 q 619 346 639 323 q 561 386 599 369 q 467 415 522 402 l 357 443 q 155 540 229 474 q 82 718 81 606 q 131 878 81 810 q 267 985 181 947 q 465 1024 354 1024 q 661 985 577 1024 q 792 878 745 947 q 840 720 839 810 l 636 720 m 356 1325 l 455 1204 l 554 1325 l 733 1325 l 733 1318 l 533 1101 l 377 1101 l 177 1318 l 177 1325 l 356 1325 z "},"Ș":{"ha":909,"x_min":55,"x_max":854,"o":"m 636 720 q 585 812 630 779 q 463 845 540 845 q 375 831 411 845 q 320 791 339 816 q 301 732 301 765 q 312 685 300 705 q 347 650 325 665 q 399 625 369 636 q 461 607 428 615 l 551 585 q 673 546 618 571 q 768 485 728 521 q 831 400 809 449 q 854 289 854 352 q 807 128 854 196 q 673 23 761 60 q 462 -14 585 -14 q 249 23 340 -14 q 108 134 159 61 q 55 317 58 208 l 262 317 q 291 233 265 266 q 361 182 317 199 q 460 165 404 165 q 554 181 514 165 q 617 224 594 196 q 639 289 639 253 q 619 346 639 323 q 561 386 599 369 q 467 415 522 402 l 357 443 q 155 540 229 474 q 82 718 81 606 q 131 878 81 810 q 267 985 181 947 q 465 1024 354 1024 q 661 985 577 1024 q 792 878 745 947 q 840 720 839 810 l 636 720 m 301 -330 l 363 -87 l 557 -87 l 449 -330 l 301 -330 z "},"Ṡ":{"ha":909,"x_min":55,"x_max":854,"o":"m 636 720 q 585 812 630 779 q 463 845 540 845 q 375 831 411 845 q 320 791 339 816 q 301 732 301 765 q 312 685 300 705 q 347 650 325 665 q 399 625 369 636 q 461 607 428 615 l 551 585 q 673 546 618 571 q 768 485 728 521 q 831 400 809 449 q 854 289 854 352 q 807 128 854 196 q 673 23 761 60 q 462 -14 585 -14 q 249 23 340 -14 q 108 134 159 61 q 55 317 58 208 l 262 317 q 291 233 265 266 q 361 182 317 199 q 460 165 404 165 q 554 181 514 165 q 617 224 594 196 q 639 289 639 253 q 619 346 639 323 q 561 386 599 369 q 467 415 522 402 l 357 443 q 155 540 229 474 q 82 718 81 606 q 131 878 81 810 q 267 985 181 947 q 465 1024 354 1024 q 661 985 577 1024 q 792 878 745 947 q 840 720 839 810 l 636 720 m 455 1108 q 375 1139 408 1108 q 341 1214 341 1170 q 375 1289 341 1258 q 455 1320 408 1320 q 535 1289 502 1320 q 569 1214 569 1258 q 535 1139 569 1170 q 455 1108 502 1108 z "},"Ṣ":{"ha":909,"x_min":55,"x_max":854,"o":"m 636 720 q 585 812 630 779 q 463 845 540 845 q 375 831 411 845 q 320 791 339 816 q 301 732 301 765 q 312 685 300 705 q 347 650 325 665 q 399 625 369 636 q 461 607 428 615 l 551 585 q 673 546 618 571 q 768 485 728 521 q 831 400 809 449 q 854 289 854 352 q 807 128 854 196 q 673 23 761 60 q 462 -14 585 -14 q 249 23 340 -14 q 108 134 159 61 q 55 317 58 208 l 262 317 q 291 233 265 266 q 361 182 317 199 q 460 165 404 165 q 554 181 514 165 q 617 224 594 196 q 639 289 639 253 q 619 346 639 323 q 561 386 599 369 q 467 415 522 402 l 357 443 q 155 540 229 474 q 82 718 81 606 q 131 878 81 810 q 267 985 181 947 q 465 1024 354 1024 q 661 985 577 1024 q 792 878 745 947 q 840 720 839 810 l 636 720 m 458 -291 q 378 -259 411 -291 q 344 -184 344 -228 q 378 -109 344 -141 q 458 -78 411 -78 q 538 -109 505 -78 q 572 -184 572 -141 q 538 -259 572 -228 q 458 -291 505 -291 z "},"Ṥ":{"ha":909,"x_min":55,"x_max":854,"o":"m 636 720 q 585 812 630 779 q 463 845 540 845 q 375 831 411 845 q 320 791 339 816 q 301 732 301 765 q 312 685 300 705 q 347 650 325 665 q 399 625 369 636 q 461 607 428 615 l 551 585 q 673 546 618 571 q 768 485 728 521 q 831 400 809 449 q 854 289 854 352 q 807 128 854 196 q 673 23 761 60 q 462 -14 585 -14 q 249 23 340 -14 q 108 134 159 61 q 55 317 58 208 l 262 317 q 291 233 265 266 q 361 182 317 199 q 460 165 404 165 q 554 181 514 165 q 617 224 594 196 q 639 289 639 253 q 619 346 639 323 q 561 386 599 369 q 467 415 522 402 l 357 443 q 155 540 229 474 q 82 718 81 606 q 131 878 81 810 q 267 985 181 947 q 465 1024 354 1024 q 661 985 577 1024 q 792 878 745 947 q 840 720 839 810 l 636 720 m 408 1110 l 508 1283 l 659 1283 l 521 1110 l 408 1110 m 230 1277 q 257 1335 231 1311 q 325 1358 283 1358 q 395 1334 369 1358 q 421 1277 421 1310 q 395 1220 421 1244 q 325 1197 369 1197 q 257 1220 283 1197 q 230 1277 231 1244 z "},"Ṧ":{"ha":909,"x_min":55,"x_max":854,"o":"m 636 720 q 585 812 630 779 q 463 845 540 845 q 375 831 411 845 q 320 791 339 816 q 301 732 301 765 q 312 685 300 705 q 347 650 325 665 q 399 625 369 636 q 461 607 428 615 l 551 585 q 673 546 618 571 q 768 485 728 521 q 831 400 809 449 q 854 289 854 352 q 807 128 854 196 q 673 23 761 60 q 462 -14 585 -14 q 249 23 340 -14 q 108 134 159 61 q 55 317 58 208 l 262 317 q 291 233 265 266 q 361 182 317 199 q 460 165 404 165 q 554 181 514 165 q 617 224 594 196 q 639 289 639 253 q 619 346 639 323 q 561 386 599 369 q 467 415 522 402 l 357 443 q 155 540 229 474 q 82 718 81 606 q 131 878 81 810 q 267 985 181 947 q 465 1024 354 1024 q 661 985 577 1024 q 792 878 745 947 q 840 720 839 810 l 636 720 m 360 1406 q 386 1464 360 1440 q 455 1487 412 1487 q 524 1463 498 1487 q 550 1406 550 1440 q 524 1350 550 1372 q 455 1327 498 1327 q 386 1350 412 1327 q 360 1406 360 1372 m 364 1294 l 456 1217 l 547 1294 l 724 1294 l 724 1282 l 527 1126 l 385 1126 l 187 1283 l 187 1294 l 364 1294 z "},"Ṩ":{"ha":909,"x_min":55,"x_max":854,"o":"m 636 720 q 585 812 630 779 q 463 845 540 845 q 375 831 411 845 q 320 791 339 816 q 301 732 301 765 q 312 685 300 705 q 347 650 325 665 q 399 625 369 636 q 461 607 428 615 l 551 585 q 673 546 618 571 q 768 485 728 521 q 831 400 809 449 q 854 289 854 352 q 807 128 854 196 q 673 23 761 60 q 462 -14 585 -14 q 249 23 340 -14 q 108 134 159 61 q 55 317 58 208 l 262 317 q 291 233 265 266 q 361 182 317 199 q 460 165 404 165 q 554 181 514 165 q 617 224 594 196 q 639 289 639 253 q 619 346 639 323 q 561 386 599 369 q 467 415 522 402 l 357 443 q 155 540 229 474 q 82 718 81 606 q 131 878 81 810 q 267 985 181 947 q 465 1024 354 1024 q 661 985 577 1024 q 792 878 745 947 q 840 720 839 810 l 636 720 m 458 -291 q 378 -259 411 -291 q 344 -184 344 -228 q 378 -109 344 -141 q 458 -78 411 -78 q 538 -109 505 -78 q 572 -184 572 -141 q 538 -259 572 -228 q 458 -291 505 -291 m 455 1108 q 375 1139 408 1108 q 341 1214 341 1170 q 375 1289 341 1258 q 455 1320 408 1320 q 535 1289 502 1320 q 569 1214 569 1258 q 535 1139 569 1170 q 455 1108 502 1108 z "},"Ѕ":{"ha":909,"x_min":55,"x_max":854,"o":"m 636 720 q 585 812 630 779 q 463 845 540 845 q 375 831 411 845 q 320 791 339 816 q 301 732 301 765 q 312 685 300 705 q 347 650 325 665 q 399 625 369 636 q 461 607 428 615 l 551 585 q 673 546 618 571 q 768 485 728 521 q 831 400 809 449 q 854 289 854 352 q 807 128 854 196 q 673 23 761 60 q 462 -14 585 -14 q 249 23 340 -14 q 108 134 159 61 q 55 317 58 208 l 262 317 q 291 233 265 266 q 361 182 317 199 q 460 165 404 165 q 554 181 514 165 q 617 224 594 196 q 639 289 639 253 q 619 346 639 323 q 561 386 599 369 q 467 415 522 402 l 357 443 q 155 540 229 474 q 82 718 81 606 q 131 878 81 810 q 267 985 181 947 q 465 1024 354 1024 q 661 985 577 1024 q 792 878 745 947 q 840 720 839 810 l 636 720 z "},"Ƨ":{"ha":909,"x_min":55,"x_max":854,"o":"m 274 720 l 69 720 q 117 878 71 810 q 248 985 164 947 q 445 1024 332 1024 q 642 985 555 1024 q 779 878 729 947 q 828 718 829 810 q 754 540 828 606 q 552 443 680 474 l 442 415 q 349 386 387 402 q 291 346 311 369 q 271 289 271 323 q 293 224 271 253 q 355 181 315 196 q 450 165 396 165 q 549 182 506 165 q 618 233 592 199 q 648 317 644 266 l 854 317 q 801 134 852 208 q 660 23 751 61 q 447 -14 570 -14 q 236 23 324 -14 q 102 128 149 60 q 55 289 56 196 q 78 400 56 352 q 141 485 101 449 q 237 546 182 521 q 358 585 292 571 l 449 607 q 529 633 493 618 q 588 672 566 648 q 609 732 610 696 q 590 791 609 765 q 535 831 571 816 q 446 845 499 845 q 358 830 395 845 q 300 787 321 815 q 274 720 278 760 z "},"ẞ":{"ha":995,"x_min":88,"x_max":940,"o":"m 88 0 l 88 665 q 131 856 88 776 q 255 980 175 937 q 445 1024 336 1024 q 596 1001 518 1024 q 749 939 674 979 q 886 849 823 900 l 661 585 q 809 534 746 575 q 906 432 872 494 q 940 292 940 370 q 894 130 940 199 q 767 24 848 62 q 581 -14 686 -14 q 465 -3 525 -14 q 358 27 405 8 l 417 186 q 489 163 450 173 q 566 154 528 154 q 688 191 644 154 q 732 293 732 228 q 720 360 732 332 q 688 406 708 387 q 642 435 667 424 q 590 450 618 446 q 539 455 563 455 l 446 455 l 446 583 l 630 793 q 550 837 596 819 q 447 855 503 855 q 363 830 396 855 q 316 762 331 805 q 301 665 301 719 l 301 0 l 88 0 z "},"T":{"ha":928,"x_min":49,"x_max":879,"o":"m 49 834 l 49 1010 l 879 1010 l 879 834 l 570 834 l 570 0 l 359 0 l 359 834 l 49 834 z "},"Ţ":{"ha":928,"x_min":49,"x_max":879,"o":"m 49 834 l 49 1010 l 879 1010 l 879 834 l 570 834 l 570 0 l 359 0 l 359 834 l 49 834 m 419 4 l 515 4 l 508 -39 q 591 -77 558 -47 q 623 -159 623 -107 q 555 -276 624 -232 q 363 -320 487 -320 l 361 -226 q 458 -211 423 -226 q 495 -164 494 -196 q 472 -118 496 -134 q 397 -96 448 -103 l 419 4 z "},"Ť":{"ha":928,"x_min":49,"x_max":879,"o":"m 49 834 l 49 1010 l 879 1010 l 879 834 l 570 834 l 570 0 l 359 0 l 359 834 l 49 834 m 366 1325 l 465 1204 l 564 1325 l 743 1325 l 743 1318 l 543 1101 l 387 1101 l 187 1318 l 187 1325 l 366 1325 z "},"Ț":{"ha":928,"x_min":49,"x_max":879,"o":"m 49 834 l 49 1010 l 879 1010 l 879 834 l 570 834 l 570 0 l 359 0 l 359 834 l 49 834 m 307 -324 l 368 -80 l 562 -80 l 454 -324 l 307 -324 z "},"Ṫ":{"ha":928,"x_min":49,"x_max":879,"o":"m 49 834 l 49 1010 l 879 1010 l 879 834 l 570 834 l 570 0 l 359 0 l 359 834 l 49 834 m 465 1108 q 385 1139 418 1108 q 351 1214 351 1170 q 385 1289 351 1258 q 465 1320 418 1320 q 545 1289 512 1320 q 579 1214 579 1258 q 545 1139 579 1170 q 465 1108 512 1108 z "},"Ṭ":{"ha":928,"x_min":49,"x_max":879,"o":"m 49 834 l 49 1010 l 879 1010 l 879 834 l 570 834 l 570 0 l 359 0 l 359 834 l 49 834 m 464 -284 q 383 -253 417 -284 q 350 -178 350 -221 q 383 -103 350 -134 q 464 -72 417 -72 q 544 -103 510 -72 q 577 -178 577 -134 q 544 -253 577 -221 q 464 -284 510 -284 z "},"Ṯ":{"ha":928,"x_min":49,"x_max":879,"o":"m 49 834 l 49 1010 l 879 1010 l 879 834 l 570 834 l 570 0 l 359 0 l 359 834 l 49 834 m 704 -126 l 704 -240 l 223 -240 l 223 -126 l 704 -126 z "},"Ṱ":{"ha":928,"x_min":49,"x_max":879,"o":"m 49 834 l 49 1010 l 879 1010 l 879 834 l 570 834 l 570 0 l 359 0 l 359 834 l 49 834 m 563 -287 l 464 -167 l 364 -287 l 185 -287 l 185 -280 l 386 -63 l 542 -63 l 742 -280 l 742 -287 l 563 -287 z "},"Ƭ":{"ha":977,"x_min":49,"x_max":927,"o":"m 927 1010 l 927 834 l 618 834 l 618 0 l 407 0 l 407 834 l 327 834 q 264 816 286 834 q 234 769 242 798 q 226 711 226 741 l 226 652 l 49 652 l 49 749 q 121 940 49 870 q 327 1010 192 1010 l 927 1010 z "},"Ʈ":{"ha":928,"x_min":49,"x_max":879,"o":"m 570 0 l 570 -46 q 603 -105 570 -91 q 678 -119 637 -119 l 720 -119 l 720 -284 l 622 -284 q 526 -274 573 -284 q 441 -238 479 -264 q 381 -166 403 -213 q 359 -46 359 -119 l 359 0 l 570 0 m 49 834 l 49 1010 l 879 1010 l 879 834 l 570 834 l 570 0 l 359 0 l 359 834 l 49 834 z "},"Ⱦ":{"ha":928,"x_min":49,"x_max":879,"o":"m 212 -128 l 621 1138 l 751 1138 l 341 -128 l 212 -128 m 49 834 l 49 1010 l 879 1010 l 879 834 l 570 834 l 570 0 l 359 0 l 359 834 l 49 834 z "},"Τ":{"ha":928,"x_min":49,"x_max":879,"o":"m 49 834 l 49 1010 l 879 1010 l 879 834 l 570 834 l 570 0 l 359 0 l 359 834 l 49 834 z "},"U":{"ha":1013,"x_min":88,"x_max":925,"o":"m 712 1010 l 925 1010 l 925 354 q 873 161 925 244 q 726 32 820 78 q 507 -14 632 -14 q 287 32 381 -14 q 140 161 192 78 q 88 354 88 244 l 88 1010 l 301 1010 l 301 372 q 327 270 301 315 q 399 199 352 225 q 507 174 445 174 q 615 199 569 174 q 686 270 661 225 q 712 372 712 315 l 712 1010 z "},"Ư":{"ha":1208,"x_min":88,"x_max":1159,"o":"m 1023 1047 l 1159 1047 q 1132 874 1159 945 q 1040 765 1105 802 q 859 727 975 727 l 859 837 q 969 863 934 837 q 1014 935 1004 888 q 1023 1047 1023 981 m 712 1010 l 925 1010 l 925 354 q 873 161 925 244 q 726 32 820 78 q 507 -14 632 -14 q 287 32 381 -14 q 140 161 192 78 q 88 354 88 244 l 88 1010 l 301 1010 l 301 372 q 327 270 301 315 q 399 199 352 225 q 507 174 445 174 q 615 199 569 174 q 686 270 661 225 q 712 372 712 315 l 712 1010 z "},"Ù":{"ha":1013,"x_min":88,"x_max":925,"o":"m 712 1010 l 925 1010 l 925 354 q 873 161 925 244 q 726 32 820 78 q 507 -14 632 -14 q 287 32 381 -14 q 140 161 192 78 q 88 354 88 244 l 88 1010 l 301 1010 l 301 372 q 327 270 301 315 q 399 199 352 225 q 507 174 445 174 q 615 199 569 174 q 686 270 661 225 q 712 372 712 315 l 712 1010 m 434 1108 l 284 1332 l 477 1332 l 582 1108 l 434 1108 z "},"Ú":{"ha":1013,"x_min":88,"x_max":925,"o":"m 712 1010 l 925 1010 l 925 354 q 873 161 925 244 q 726 32 820 78 q 507 -14 632 -14 q 287 32 381 -14 q 140 161 192 78 q 88 354 88 244 l 88 1010 l 301 1010 l 301 372 q 327 270 301 315 q 399 199 352 225 q 507 174 445 174 q 615 199 569 174 q 686 270 661 225 q 712 372 712 315 l 712 1010 m 431 1108 l 536 1332 l 730 1332 l 580 1108 l 431 1108 z "},"Û":{"ha":1013,"x_min":88,"x_max":925,"o":"m 712 1010 l 925 1010 l 925 354 q 873 161 925 244 q 726 32 820 78 q 507 -14 632 -14 q 287 32 381 -14 q 140 161 192 78 q 88 354 88 244 l 88 1010 l 301 1010 l 301 372 q 327 270 301 315 q 399 199 352 225 q 507 174 445 174 q 615 199 569 174 q 686 270 661 225 q 712 372 712 315 l 712 1010 m 606 1101 l 507 1221 l 407 1101 l 228 1101 l 228 1108 l 428 1325 l 584 1325 l 785 1108 l 785 1101 l 606 1101 z "},"Ü":{"ha":1013,"x_min":88,"x_max":925,"o":"m 712 1010 l 925 1010 l 925 354 q 873 161 925 244 q 726 32 820 78 q 507 -14 632 -14 q 287 32 381 -14 q 140 161 192 78 q 88 354 88 244 l 88 1010 l 301 1010 l 301 372 q 327 270 301 315 q 399 199 352 225 q 507 174 445 174 q 615 199 569 174 q 686 270 661 225 q 712 372 712 315 l 712 1010 m 356 1114 q 283 1144 314 1114 q 253 1214 253 1173 q 283 1285 253 1256 q 356 1314 314 1314 q 429 1285 399 1314 q 459 1214 459 1256 q 429 1144 459 1173 q 356 1114 399 1114 m 658 1114 q 585 1144 616 1114 q 554 1214 554 1173 q 585 1285 554 1256 q 658 1314 616 1314 q 731 1285 701 1314 q 761 1214 761 1256 q 731 1144 761 1173 q 658 1114 701 1114 z "},"Ũ":{"ha":1013,"x_min":88,"x_max":925,"o":"m 712 1010 l 925 1010 l 925 354 q 873 161 925 244 q 726 32 820 78 q 507 -14 632 -14 q 287 32 381 -14 q 140 161 192 78 q 88 354 88 244 l 88 1010 l 301 1010 l 301 372 q 327 270 301 315 q 399 199 352 225 q 507 174 445 174 q 615 199 569 174 q 686 270 661 225 q 712 372 712 315 l 712 1010 m 365 1103 l 249 1105 q 295 1249 249 1199 q 409 1300 342 1300 q 468 1289 443 1300 q 513 1263 493 1278 q 551 1237 533 1248 q 591 1226 570 1226 q 635 1248 619 1227 q 650 1303 650 1269 l 764 1299 q 717 1155 763 1206 q 604 1104 671 1105 q 542 1115 567 1104 q 499 1141 517 1126 q 462 1167 480 1156 q 422 1178 444 1178 q 381 1158 397 1178 q 365 1103 365 1138 z "},"Ū":{"ha":1013,"x_min":88,"x_max":925,"o":"m 712 1010 l 925 1010 l 925 354 q 873 161 925 244 q 726 32 820 78 q 507 -14 632 -14 q 287 32 381 -14 q 140 161 192 78 q 88 354 88 244 l 88 1010 l 301 1010 l 301 372 q 327 270 301 315 q 399 199 352 225 q 507 174 445 174 q 615 199 569 174 q 686 270 661 225 q 712 372 712 315 l 712 1010 m 747 1263 l 747 1149 l 266 1149 l 266 1263 l 747 1263 z "},"Ŭ":{"ha":1013,"x_min":88,"x_max":925,"o":"m 712 1010 l 925 1010 l 925 354 q 873 161 925 244 q 726 32 820 78 q 507 -14 632 -14 q 287 32 381 -14 q 140 161 192 78 q 88 354 88 244 l 88 1010 l 301 1010 l 301 372 q 327 270 301 315 q 399 199 352 225 q 507 174 445 174 q 615 199 569 174 q 686 270 661 225 q 712 372 712 315 l 712 1010 m 604 1274 l 751 1274 q 684 1130 750 1185 q 507 1075 618 1075 q 328 1130 394 1075 q 263 1274 263 1185 l 408 1274 q 430 1213 408 1240 q 507 1186 453 1186 q 581 1213 559 1186 q 604 1274 604 1239 z "},"Ů":{"ha":1013,"x_min":88,"x_max":925,"o":"m 712 1010 l 925 1010 l 925 354 q 873 161 925 244 q 726 32 820 78 q 507 -14 632 -14 q 287 32 381 -14 q 140 161 192 78 q 88 354 88 244 l 88 1010 l 301 1010 l 301 372 q 327 270 301 315 q 399 199 352 225 q 507 174 445 174 q 615 199 569 174 q 686 270 661 225 q 712 372 712 315 l 712 1010 m 507 1068 q 399 1112 443 1068 q 355 1217 355 1156 q 375 1291 355 1258 q 430 1345 396 1325 q 507 1365 465 1365 q 583 1345 548 1365 q 638 1291 618 1325 q 658 1217 658 1258 q 638 1142 658 1176 q 583 1088 618 1108 q 507 1068 548 1068 m 507 1153 q 553 1171 534 1153 q 573 1217 573 1190 q 553 1263 573 1244 q 507 1281 534 1281 q 459 1262 479 1281 q 440 1217 440 1243 q 459 1171 440 1190 q 507 1153 478 1152 z "},"Ű":{"ha":1013,"x_min":88,"x_max":925,"o":"m 712 1010 l 925 1010 l 925 354 q 873 161 925 244 q 726 32 820 78 q 507 -14 632 -14 q 287 32 381 -14 q 140 161 192 78 q 88 354 88 244 l 88 1010 l 301 1010 l 301 372 q 327 270 301 315 q 399 199 352 225 q 507 174 445 174 q 615 199 569 174 q 686 270 661 225 q 712 372 712 315 l 712 1010 m 544 1098 l 700 1302 l 877 1302 l 692 1098 l 544 1098 m 291 1098 l 422 1302 l 599 1302 l 437 1098 l 291 1098 z "},"Ų":{"ha":1013,"x_min":88,"x_max":925,"o":"m 712 1010 l 925 1010 l 925 354 q 873 161 925 244 q 726 32 820 78 q 507 -14 632 -14 q 287 32 381 -14 q 140 161 192 78 q 88 354 88 244 l 88 1010 l 301 1010 l 301 372 q 327 270 301 315 q 399 199 352 225 q 507 174 445 174 q 615 199 569 174 q 686 270 661 225 q 712 372 712 315 l 712 1010 m 539 -282 q 429 -248 473 -282 q 374 -152 385 -215 q 375 -71 366 -111 q 410 4 384 -30 q 479 58 436 38 l 635 1 q 559 -46 589 -21 q 530 -107 530 -71 q 542 -143 530 -130 q 578 -156 554 -156 q 607 -152 594 -156 q 630 -144 620 -147 l 652 -253 q 605 -273 633 -263 q 539 -282 577 -282 z "},"Ǔ":{"ha":1013,"x_min":88,"x_max":925,"o":"m 712 1010 l 925 1010 l 925 354 q 873 161 925 244 q 726 32 820 78 q 507 -14 632 -14 q 287 32 381 -14 q 140 161 192 78 q 88 354 88 244 l 88 1010 l 301 1010 l 301 372 q 327 270 301 315 q 399 199 352 225 q 507 174 445 174 q 615 199 569 174 q 686 270 661 225 q 712 372 712 315 l 712 1010 m 407 1325 l 507 1204 l 606 1325 l 785 1325 l 785 1318 l 584 1101 l 428 1101 l 228 1318 l 228 1325 l 407 1325 z "}}}
